<svg width="83" height="66" viewBox="0 0 83 66" fill="none" xmlns="http://www.w3.org/2000/svg">
<path fill-rule="evenodd" clip-rule="evenodd" d="M43.9768 31.0982C43.4688 32.0804 43.3969 33.3473 43.761 34.8991L40.1044 35.8108C39.7483 34.3825 39.6416 33.2 39.7845 32.2633C39.9274 31.3265 40.3958 30.2202 41.1898 28.9443C41.9839 27.6684 42.4669 26.7809 42.639 26.2817C42.9053 25.5195 42.9433 24.7572 42.7532 23.9948C42.5015 22.9853 42.0597 22.277 41.4278 21.87C40.7959 21.4629 39.9967 21.3798 39.0302 21.6208C38.1067 21.8511 37.4279 22.2969 36.994 22.9583C36.5601 23.6197 36.4542 24.3961 36.6765 25.2874L32.7621 26.2634C32.3097 24.3572 32.5818 22.6925 33.5786 21.2691C34.5754 19.8457 36.1208 18.8729 38.2149 18.3508C40.3735 17.8126 42.1933 17.9406 43.6746 18.7348C45.1558 19.5289 46.1414 20.9086 46.6314 22.8738C47.0679 24.6243 46.6814 26.5514 45.4722 28.6551L43.9768 31.0982ZM45.299 41.4109C45.0115 41.9046 44.5133 42.2398 43.8046 42.4165C43.0958 42.5932 42.5013 42.5305 42.021 42.2282C41.5406 41.9259 41.2269 41.4794 41.0796 40.8888C40.9216 40.2552 40.9924 39.6929 41.2921 39.2018C41.5917 38.7108 42.0798 38.3809 42.7563 38.2122C43.4436 38.0409 44.0361 38.107 44.5339 38.4107C45.0316 38.7143 45.3568 39.1722 45.5094 39.7843C45.6567 40.3749 45.5865 40.9171 45.299 41.4109Z" fill="#BABABA"/>
<path fill-rule="evenodd" clip-rule="evenodd" d="M57.414 24.9805C56.7509 25.3657 56.2425 26.0774 55.8888 27.1157L53.3785 26.3001C53.6915 25.3366 54.0627 24.6083 54.4919 24.1151C54.9211 23.6219 55.6063 23.1498 56.5476 22.6989C57.4888 22.2479 58.1024 21.9087 58.3882 21.6812C58.8267 21.3352 59.1295 20.905 59.2966 20.3907C59.5178 19.7098 59.5153 19.1344 59.2889 18.6644C59.0626 18.1944 58.6177 17.8517 57.9542 17.6361C57.3201 17.4301 56.7525 17.4398 56.2513 17.6654C55.7501 17.891 55.4018 18.3043 55.2065 18.9056L52.5192 18.0324C52.9505 16.7551 53.7242 15.8853 54.8403 15.423C55.9564 14.9608 57.2332 14.9632 58.6709 15.4304C60.1527 15.9119 61.1883 16.6568 61.7777 17.6651C62.367 18.6735 62.4463 19.8405 62.0156 21.1661C61.632 22.3468 60.6939 23.3273 59.2014 24.1077L57.414 24.9805ZM54.4108 31.4766C54.0583 31.6584 53.6387 31.6702 53.1522 31.5121C52.6656 31.354 52.335 31.0984 52.1603 30.7454C51.9857 30.3923 51.9631 30.0166 52.0925 29.6182C52.2314 29.1908 52.4802 28.8892 52.8389 28.7135C53.1975 28.5377 53.6091 28.5253 54.0736 28.6762C54.5454 28.8295 54.8736 29.0863 55.0581 29.4466C55.2427 29.8068 55.2679 30.1934 55.1337 30.6063C55.0042 31.0047 54.7633 31.2948 54.4108 31.4766Z" fill="#BABABA"/>
<path fill-rule="evenodd" clip-rule="evenodd" d="M64.9237 6.81298C64.871 7.34971 65.0678 7.93443 65.514 8.56714L64.0192 9.65318C63.5989 9.07469 63.3364 8.56101 63.2316 8.11214C63.1268 7.66327 63.1391 7.07783 63.2685 6.35581C63.3979 5.6338 63.4565 5.14434 63.4442 4.88743C63.4271 4.49453 63.3063 4.14367 63.0819 3.83485C62.7849 3.42599 62.4561 3.18807 62.0955 3.12108C61.7349 3.05409 61.3571 3.16412 60.962 3.45118C60.5845 3.72548 60.3571 4.05183 60.2799 4.43023C60.2027 4.80864 60.2952 5.17835 60.5575 5.53936L58.9573 6.70194C58.4068 5.92569 58.2289 5.12459 58.4236 4.29862C58.6183 3.47266 59.1437 2.7487 59.9997 2.12674C60.8821 1.48564 61.7314 1.20751 62.5477 1.29234C63.3639 1.37718 64.0611 1.81758 64.6394 2.61354C65.1545 3.32252 65.3281 4.26303 65.1601 5.43507L64.9237 6.81298ZM67.3914 11.2204C67.3503 11.4961 67.1849 11.7393 66.8951 11.9498C66.6054 12.1603 66.3241 12.2417 66.0514 12.194C65.7786 12.1463 65.5553 12.0028 65.3815 11.7636C65.195 11.507 65.1254 11.2403 65.1724 10.9635C65.2195 10.6867 65.3814 10.4479 65.6579 10.2469C65.9389 10.0428 66.2198 9.96327 66.5008 10.0084C66.7817 10.0535 67.0122 10.2 67.1924 10.4479C67.3662 10.6871 67.4325 10.9446 67.3914 11.2204Z" fill="#BABABA"/>
<rect x="0.717529" y="47.6153" width="70.5397" height="15.0857" rx="2.5" transform="rotate(-2 0.717529 47.6153)" fill="url(#paint0_linear)"/>
<mask id="mask0" mask-type="alpha" maskUnits="userSpaceOnUse" x="0" y="45" width="72" height="18">
<path fill-rule="evenodd" clip-rule="evenodd" d="M3.76463 47.5089C2.08164 47.5677 0.76385 48.9418 0.820999 50.5783L1.14053 59.7284C1.19768 61.365 2.60813 62.6442 4.29112 62.5854L68.6932 60.3364C70.3762 60.2777 71.6944 58.9032 71.6372 57.2666L71.3177 48.1165C71.2606 46.48 69.8497 45.2011 68.1667 45.2599L3.76463 47.5089Z" fill="white"/>
</mask>
<g mask="url(#mask0)">
<path fill-rule="evenodd" clip-rule="evenodd" d="M9.32307 54.625C10.3636 54.5886 10.9522 54.0811 10.9222 53.2235C10.8927 52.3787 10.2558 51.8755 9.26748 51.91L8.45077 51.9385L8.54553 54.6521L9.32307 54.625ZM8.69844 59.0304L6.89339 59.0934L6.59521 50.5548L9.40166 50.4568C11.4828 50.3841 12.6895 51.3288 12.7503 53.0699C12.8124 54.8491 11.6521 55.9921 9.71611 56.0597L8.59607 56.0988L8.69844 59.0304ZM17.4111 54.3041C18.4387 54.2682 19.0018 53.7615 18.9719 52.9036C18.9433 52.0844 18.3721 51.5921 17.4759 51.6234L16.501 51.6574L16.5944 54.3326L17.4111 54.3041ZM16.7486 58.7489L14.9443 58.8119L14.6462 50.2737L17.3597 50.1789C19.5334 50.103 20.7387 50.9964 20.7999 52.75C20.8469 54.0944 20.1528 55.0157 18.8079 55.3959L21.3467 58.5883L19.1596 58.6647L16.6302 55.3566L16.7486 58.7489ZM27.9831 53.3454L24.9006 53.453L24.8273 51.3538L27.9098 51.2462L27.8597 49.8122L22.9722 49.9829L23.2703 58.5215L28.1579 58.3508L28.1078 56.9169L25.0253 57.0245L24.9507 54.887L28.0332 54.7793L27.9831 53.3454ZM32.2692 58.2073L30.4642 58.2703L30.166 49.7317L32.208 49.6604L35.0108 54.7535L37.4642 49.4768L39.5065 49.4055L39.8047 57.9441L37.9996 58.0072L37.8137 52.6817L35.1368 58.3634L32.0833 52.8818L32.2692 58.2073ZM44.2325 57.7895L42.4282 57.8525L42.13 49.3139L43.9343 49.2509L44.2325 57.7895ZM48.3909 54.1069C48.4186 54.9004 48.5394 55.332 48.8406 55.655C49.1155 55.9658 49.5969 56.154 50.0845 56.137C50.5983 56.1191 51.0906 55.8708 51.3415 55.5036C51.5932 55.1484 51.6589 54.7748 51.6312 53.9809L51.4569 48.9882L53.275 48.9247L53.4475 53.8662C53.4914 55.1209 53.2445 56.001 52.6748 56.6617C52.1039 57.3224 51.1945 57.713 50.167 57.7489C49.0995 57.7861 48.1116 57.4362 47.4686 56.7794C46.8811 56.1844 46.6297 55.4246 46.5836 54.1059L46.4111 49.1644L48.2161 49.1014L48.3909 54.1069ZM56.0645 57.3763L57.8688 57.3133L57.6828 51.9878L60.7364 57.4695L63.4132 51.7877L63.5992 57.1132L65.4043 57.0502L65.1061 48.5116L63.0645 48.5829L60.6103 53.8596L57.8083 48.7664L55.7663 48.8377L56.0645 57.3763Z" fill="black"/>
</g>
<rect x="1.41797" y="30.2358" width="29.6" height="15.2" rx="2.5" transform="rotate(3 1.41797 30.2358)" fill="url(#paint1_linear)"/>
<path fill-rule="evenodd" clip-rule="evenodd" d="M11.3749 33.9287L13.2765 34.0283L9.98016 42.7344L8.01112 42.6312L5.75049 33.6339L7.65207 33.7336L9.16197 39.7627L11.3749 33.9287ZM14.2828 42.9599L16.1302 43.0567L16.5942 34.2022L14.7468 34.1054L14.2828 42.9599ZM23.4211 37.4884C23.3745 38.378 22.7277 38.8497 21.6621 38.7939L20.8663 38.7522L21.0138 35.9381L21.8501 35.9819C22.8616 36.0349 23.467 36.6123 23.4211 37.4884ZM18.781 43.1956L20.6284 43.2925L20.7877 40.2523L21.934 40.3124C23.9167 40.4163 25.2043 39.339 25.301 37.4938C25.3957 35.6882 24.2487 34.6034 22.1175 34.4917L19.245 34.3411L18.781 43.1956Z" fill="black"/>
<defs>
<linearGradient id="paint0_linear" x1="0.717529" y1="47.6153" x2="0.717529" y2="62.701" gradientUnits="userSpaceOnUse">
<stop stop-color="#57C7E3"/>
<stop offset="0.470566" stop-color="#86E5F4"/>
<stop offset="1" stop-color="#2EC2ED"/>
<stop offset="1" stop-color="#57C7E3"/>
</linearGradient>
<linearGradient id="paint1_linear" x1="1.41797" y1="30.2358" x2="1.41797" y2="45.4358" gradientUnits="userSpaceOnUse">
<stop stop-color="#E3B941"/>
<stop offset="0.502111" stop-color="#FEDF7B"/>
<stop offset="1" stop-color="#E3B941"/>
</linearGradient>
</defs>
</svg>
