<svg width="74" height="84" viewBox="0 0 74 84" fill="none" xmlns="http://www.w3.org/2000/svg">
<mask id="mask0" mask-type="alpha" maskUnits="userSpaceOnUse" x="0" y="12" width="74" height="68">
<path fill-rule="evenodd" clip-rule="evenodd" d="M73.7285 12.5433H0.319519V79.8896H73.7285V12.5433Z" fill="white"/>
</mask>
<g mask="url(#mask0)">
<path opacity="0.652" d="M0.391548 49.6678C-0.570251 59.2536 8.37645 66.5168 9.57625 67.4401C24.3336 78.7948 54.1522 76.7851 66.7627 63.49C72.8555 57.0675 73.3875 49.6398 73.6206 46.396C73.8558 43.1151 74.6972 26.3865 62.7349 21.0301C55.359 17.7275 46.9653 20.468 36.2798 23.9568C24.6563 27.7522 1.84475 35.2002 0.391548 49.6678Z" fill="#F9F5EF"/>
</g>
<path fill-rule="evenodd" clip-rule="evenodd" d="M50.5305 43.0038C49.8046 41.9916 50.1805 40.4789 51.3712 39.6256L59.9931 33.4446C61.1831 32.5906 62.7371 32.7194 63.4623 33.7316C63.7717 34.4141 63.8095 35.0126 63.7605 35.4802C63.505 37.8938 60.5489 40.4264 56.3923 41.8117C55.5713 42.2656 54.7728 42.7592 53.9997 43.2908C53.9773 43.3069 53.9696 43.3118 50.5305 43.0038Z" fill="#CC825C"/>
<path d="M61.0081 22.0616L48.133 67.2942C47.9118 68.071 47.3699 68.7165 46.6432 69.069C45.9165 69.4214 45.074 69.4473 44.3271 69.1401L26.5177 61.8181C25.1804 61.2684 24.4708 59.8007 24.8706 58.4112L36.6383 17.4927C37.0345 16.1163 38.3948 15.2515 39.8093 15.4767L58.7268 18.4846C59.5278 18.612 60.2359 19.0762 60.6721 19.76C61.1083 20.4437 61.2309 21.2815 61.0088 22.0616" fill="#3BA673"/>
<path d="M34.9456 53.2778L34.4197 55.2407L42.2712 57.3445L42.7972 55.3816L44.7601 55.9076L52.474 27.1186L50.5112 26.5927L51.0371 24.6298L43.1856 22.526L42.6596 24.4888L40.6967 23.9629L32.9828 52.7519L34.9456 53.2778Z" fill="#44C086"/>
<circle r="3.38688" transform="matrix(-0.965926 -0.258819 -0.258819 0.965926 42.7284 39.9352)" fill="#3BA673"/>
<path d="M61.1768 23.065C61.2549 22.7952 61.2843 22.5136 61.2636 22.2334L61.1236 20.3392C61.1236 20.3392 61.0893 20.7809 61.034 20.9797L48.238 65.4829C48.238 65.4829 47.4764 69.0368 44.3271 68.1401C44.3271 68.1401 47.2538 69.6017 48.2919 67.5087L61.1761 23.065H61.1768Z" fill="#3BA673"/>
<path fill-rule="evenodd" clip-rule="evenodd" d="M57.8322 49.9933C57.2393 51.5277 55.2975 52.2627 53.4943 51.6348C51.6918 51.0069 50.7111 49.2534 51.304 47.719C51.8969 46.1846 53.8387 45.4496 55.6419 46.0775C57.4444 46.7054 58.4251 48.4582 57.8322 49.9933ZM54.8607 56.8638C53.8632 58.1721 51.7933 58.3352 50.2372 57.2292C48.6818 56.1225 48.2296 54.1653 49.2278 52.857C50.226 51.5487 52.2959 51.3856 53.8513 52.4923C55.4067 53.5983 55.8589 55.5555 54.8607 56.8638ZM52.1461 62.7676C51.1521 63.7966 49.2327 63.6664 47.8586 62.4764C46.4838 61.2864 46.1758 59.4874 47.1698 58.4577C48.1638 57.4287 50.0832 57.5589 51.4573 58.7489C52.8321 59.9389 53.1401 61.7379 52.1461 62.7676Z" fill="#CC825C"/>
<path opacity="0.102" d="M31.8942 42.2296C31.8942 42.2296 29.6451 46.6585 31.8942 52.5791C31.8942 52.5791 34.5346 58.296 30.2471 62.8327L23.7308 60.2098L22.9888 50.4238L26.7702 44.947L31.8942 42.2296V42.2296Z" fill="black"/>
<path fill-rule="evenodd" clip-rule="evenodd" d="M27.5522 83.5506C23.4299 82.2934 18.3731 79.2967 16.1002 74.9462C15.3421 73.4951 14.6708 72.2099 14.5434 70.3591C14.2648 66.3369 16.9661 65.6201 17.9867 61.1548C19.1053 56.2576 17.1887 51.289 18.0637 48.3406C18.7007 46.1916 20.0475 44.688 20.0475 44.688C20.058 44.6768 20.1063 44.6257 20.1707 44.5536C22.9721 41.4239 26.8109 38.8304 26.8109 38.8304C34.4745 33.7148 35.4398 36.0535 35.4398 36.0535C37.5384 38.1136 32.2646 41.9559 32.2646 41.9559C32.1379 42.0469 32.014 42.1379 31.8936 42.2289C28.8976 44.5074 27.6712 48.3917 28.6666 52.0219C29.0393 53.3647 29.1257 54.7708 28.92 56.1491C28.5203 58.8049 27.1476 60.5745 26.5148 61.2983C31.7186 63.4368 36.9224 65.5767 42.1262 67.7173L32.6468 72.8049C32.3612 72.9589 32.1498 73.2214 32.0616 73.5329L29.529 82.4705C29.4138 82.8783 29.1394 83.2226 28.7675 83.4258C28.3956 83.629 27.9576 83.674 27.5522 83.5506Z" fill="#CC825C"/>
</svg>
