<svg width="51" height="52" viewBox="0 0 51 52" fill="none" xmlns="http://www.w3.org/2000/svg">
<path d="M48.1029 13.3727C46.5735 11.6788 44.5758 10.555 42.373 10.1275C42.2426 8.31568 41.5141 6.61079 40.2719 5.24719C38.8079 3.63991 36.8056 2.69907 34.6339 2.59789C33.3542 2.53754 32.1041 2.77428 30.9554 3.28613C29.1415 1.31446 26.6412 0.137765 23.92 0.0109185C21.5855 -0.0974954 19.264 0.604321 17.3849 1.98843C15.932 3.0587 14.7873 4.50009 14.071 6.13789C13.5085 6.02848 12.9374 5.95981 12.3621 5.93305C5.87981 5.62852 0.365764 10.6564 0.0638107 17.1357C-0.153711 21.8018 2.42057 26.1372 6.54635 28.2034C6.87169 30.3772 8.16304 32.2445 9.97328 33.3487C9.37611 34.3729 9.03224 35.5621 9.03224 36.8307C9.03224 40.6558 12.1441 43.7676 15.9691 43.7676C19.3895 43.7676 22.2377 41.2787 22.8025 38.0171C22.8505 38.0179 22.8985 38.0205 22.9465 38.0205C25.5546 38.0203 28.0093 36.832 29.6346 34.8469C30.8942 35.6929 32.3644 36.1827 33.9099 36.2548C35.9193 36.3484 37.8971 35.7165 39.4778 34.4751C40.7534 33.4734 41.7066 32.1279 42.2296 30.6134C46.9506 29.7614 50.55 25.7307 50.778 20.8418C50.9067 18.0785 49.9567 15.4259 48.1029 13.3727Z" fill="#E1E8EE"/>
<path fill-rule="evenodd" clip-rule="evenodd" d="M0.0141602 46.2451C0.0141602 43.5129 2.23694 41.2902 4.96909 41.2902C7.70124 41.2902 9.92402 43.5129 9.92402 46.2451C9.92402 48.9772 7.70124 51.2 4.96909 51.2C2.23694 51.2 0.0141602 48.9772 0.0141602 46.2451ZM2.98712 46.2451C2.98712 47.338 3.87623 48.2271 4.96909 48.2271C6.06195 48.2271 6.95106 47.338 6.95106 46.2451C6.95106 45.1522 6.06195 44.2631 4.96909 44.2631C3.87623 44.2631 2.98712 45.1522 2.98712 46.2451Z" fill="#E1E8EE"/>
<path d="M15.9691 40.7947C13.7834 40.7947 12.0051 39.0164 12.0051 36.8307C12.0051 34.645 13.7834 32.8668 15.9691 32.8668C18.1548 32.8668 19.933 34.645 19.933 36.8307C19.933 39.0164 18.1548 40.7947 15.9691 40.7947Z" fill="white"/>
<path d="M47.8079 20.7035C47.6331 24.454 44.6832 27.498 40.9464 27.7843C40.2846 27.835 39.7364 28.3184 39.6035 28.9688C39.3482 30.2185 38.6513 31.3437 37.6412 32.137C36.6214 32.9378 35.3447 33.3437 34.0479 33.2851C32.6531 33.22 31.3528 32.627 30.3866 31.6152C30.0542 31.2672 29.5739 31.1019 29.0977 31.1709C28.6214 31.2401 28.2082 31.5356 27.9887 31.9639C26.9775 33.9365 24.8955 35.143 22.6841 35.0415C22.6795 35.0413 22.6749 35.0408 22.6704 35.0406C21.8789 32.0806 19.175 29.8938 15.9689 29.8938C14.5253 29.8938 13.1835 30.3376 12.072 31.0952C10.5416 30.4436 9.46548 28.9371 9.43941 27.1872C9.43049 26.59 9.06502 26.0561 8.51145 25.8317C5.06143 24.4335 2.86006 20.9943 3.03348 17.274C3.25923 12.4324 7.38361 8.67787 12.2234 8.90263C13.0183 8.93979 13.8021 9.08308 14.5531 9.32865C14.94 9.4551 15.3618 9.41744 15.7202 9.2244C16.0785 9.03135 16.342 8.69977 16.4492 8.30704C16.8757 6.74376 17.8342 5.34984 19.148 4.38204C20.4991 3.38699 22.1006 2.90379 23.7815 2.98049C26.0295 3.08544 28.0654 4.20099 29.3672 6.04135C29.8313 6.69778 30.7333 6.86605 31.4028 6.42139C32.322 5.81134 33.392 5.51771 34.4954 5.56746C35.8739 5.63168 37.1447 6.22894 38.074 7.24917C39.0032 8.26929 39.4796 9.59017 39.4153 10.9684C39.411 11.0601 39.4029 11.1614 39.3905 11.2781C39.3476 11.6829 39.4724 12.0876 39.736 12.3977C39.9996 12.7079 40.3789 12.8963 40.7853 12.9192C44.8471 13.1472 47.9974 16.6393 47.8079 20.7035Z" fill="white"/>
</svg>
