<svg width="66" height="83" viewBox="0 0 66 83" fill="none" xmlns="http://www.w3.org/2000/svg">
<path fill-rule="evenodd" clip-rule="evenodd" d="M30.8917 48.622C32.2084 49.2219 33.5195 48.951 34.7466 48.6458C37.3156 48.0067 41.1782 46.8076 45.9669 44.4087C43.1088 42.5705 40.2514 40.7323 37.3933 38.8948L27.6157 42.693C27.7039 43.5169 28.1946 47.3914 30.8917 48.622Z" fill="#C67B63"/>
<path fill-rule="evenodd" clip-rule="evenodd" d="M39.5057 19.5979C38.7266 18.928 38.7315 17.6407 39.5162 16.7216L45.2016 10.0639C45.9863 9.14483 47.254 8.94253 48.0338 9.61173C48.4153 10.0982 48.5624 10.5707 48.6156 10.9564C48.8843 12.9437 47.0161 15.5582 43.9626 17.4874C43.3235 18.081 42.7873 18.6389 42.3379 19.1457C42.3225 19.1625 42.3183 19.1688 39.5057 19.5979Z" fill="#CC825C"/>
<path fill-rule="evenodd" clip-rule="evenodd" d="M46.9938 44.2654L29.4931 46.7196C27.7424 46.9646 26.1226 45.7403 25.8748 43.9854L20.6661 7.01699C20.419 5.26069 21.6377 3.63809 23.3884 3.39309L40.8891 0.938189C42.6398 0.693189 44.2603 1.91749 44.5074 3.67309L49.7168 40.6415C49.9639 42.3971 48.7452 44.019 46.9938 44.2654Z" fill="#0B111C"/>
<mask id="mask0" mask-type="alpha" maskUnits="userSpaceOnUse" x="22" y="2" width="27" height="44">
<path fill-rule="evenodd" clip-rule="evenodd" d="M40.4312 2.66522L24.306 4.92692C23.0712 5.09982 22.2109 6.24502 22.3859 7.48332L27.3986 43.0636C27.5736 44.3026 28.716 45.1657 29.9515 44.9928L46.0767 42.7311C47.3115 42.5582 48.1718 41.4137 47.9968 40.1747L42.9841 4.59442C42.8245 3.46182 41.8557 2.64352 40.7462 2.64352C40.6426 2.64352 40.5369 2.65052 40.4312 2.66522Z" fill="white"/>
</mask>
<g mask="url(#mask0)">
<path fill-rule="evenodd" clip-rule="evenodd" d="M40.4312 2.66522L24.306 4.92692C23.0712 5.09982 22.2109 6.24502 22.3859 7.48332L27.3986 43.0636C27.5736 44.3026 28.716 45.1657 29.9515 44.9928L46.0767 42.7311C47.3115 42.5582 48.1718 41.4137 47.9968 40.1747L42.9841 4.59442C42.8245 3.46182 41.8557 2.64352 40.7462 2.64352C40.6426 2.64352 40.5369 2.65052 40.4312 2.66522Z" fill="url(#paint0_linear)"/>
</g>
<g clip-path="url(#clip0)">
<path fill-rule="evenodd" clip-rule="evenodd" d="M49.872 21.8787C50.0596 23.2451 48.9368 24.5702 47.3639 24.839C45.791 25.1071 44.3644 24.2167 44.1768 22.851C43.9899 21.4846 45.1127 20.1595 46.6849 19.8914C48.2578 19.6226 49.6844 20.5123 49.872 21.8787Z" fill="#CC825C"/>
<path fill-rule="evenodd" clip-rule="evenodd" d="M50.4789 28.123C50.2787 29.4866 48.8311 30.4442 47.2456 30.2615C45.6594 30.0788 44.5373 28.8251 44.7375 27.4615C44.9384 26.0979 46.386 25.1403 47.9715 25.323C49.557 25.5057 50.6798 26.7594 50.4789 28.123Z" fill="#CC825C"/>
<path fill-rule="evenodd" clip-rule="evenodd" d="M50.8831 33.5542C50.573 34.712 49.1156 35.3931 47.6288 35.0753C46.142 34.7582 45.1879 33.5626 45.4987 32.4048C45.8095 31.247 47.2662 30.5659 48.753 30.8837C50.2398 31.2008 51.1932 32.3964 50.8831 33.5542Z" fill="#CC825C"/>
<path fill-rule="evenodd" clip-rule="evenodd" d="M30.6616 46.6539C30.7302 46.5517 30.7638 46.4999 30.8086 46.4313C32.448 43.8735 33.0997 40.1222 32.098 36.9652C31.0305 33.6024 28.3229 31.662 27.5459 29.3128" fill="#EA9878"/>
<path fill-rule="evenodd" clip-rule="evenodd" d="M37.8441 81.2765C36.8116 70.3999 35.7791 59.5226 34.7466 48.646C34.3203 48.7664 32.606 49.1962 31.1458 48.2351C30.8119 48.0153 30.5508 47.7619 30.3478 47.5169C30.9316 46.3451 32.7964 42.2382 31.5707 37.1499C30.6726 33.4231 28.5656 31.0326 27.5457 30.0127C27.3882 29.4583 27.2447 28.7744 27.1852 27.9841C27.1453 27.4444 27.1516 26.9523 27.181 26.5204C27.181 26.5204 27.1852 26.4896 27.1852 26.4868C27.2307 26.1718 27.3805 25.1155 27.3833 25.1008C27.4827 24.4148 27.6276 23.9416 27.7137 23.5321C27.7732 23.2472 28.0553 21.7954 27.6367 20.492C27.2531 19.2971 26.1058 17.6759 24.9053 17.6927C22.5568 17.727 21.0973 24.0144 20.9832 24.5051C20.3056 27.4227 20.5772 30.3424 20.5772 31.4827C20.5772 34.7335 19.5776 37.0421 19.0589 38.8971C18.7327 40.0598 18.4464 41.884 18.2399 44.6721C17.2606 54.393 16.2813 64.1125 15.302 73.8334C15.0542 76.1728 14.8057 78.5122 14.5579 80.8516C15.869 80.8362 17.1808 80.8222 18.4919 80.8068C24.9431 80.9636 31.3936 81.1197 37.8441 81.2765Z" fill="#CC825C"/>
<path fill-rule="evenodd" clip-rule="evenodd" d="M40.3009 13.8311C41.1647 17.1316 39.19 20.5077 35.8895 21.3715C32.589 22.236 29.2129 20.2613 28.3491 16.9608C27.4846 13.6603 29.46 10.2842 32.7605 9.41972C36.0603 8.55592 39.4371 10.5306 40.3009 13.8311Z" fill="white"/>
<path d="M36.1663 13.0073L35.1613 13.1845C35.3494 13.3893 35.4928 13.64 35.5914 13.9367L36.5579 13.7662L36.4709 14.7633L35.7545 14.8896C35.7649 15.3803 35.6412 15.7938 35.3832 16.1302C35.1252 16.4665 34.7175 16.7417 34.1603 16.9556L36.7009 19.076L36.7127 19.1433L35.1211 19.424L32.3129 17.1078L32.1589 16.2624L33.2986 16.0614C33.8916 15.9568 34.2214 15.6524 34.2878 15.1482L31.9172 15.5662L31.9993 14.57L34.0911 14.2012C33.8656 13.841 33.4862 13.7046 32.9529 13.792L31.645 14.0227L31.7227 12.8041L36.2476 12.0063L36.1663 13.0073Z" fill="black"/>
</g>
<path fill-rule="evenodd" clip-rule="evenodd" d="M40.3958 61.6054C39.4487 61.1322 38.552 59.7238 37.7372 54.6943C36.9301 49.7068 36.5528 47.1805 37.8436 45.5488C38.5618 44.6416 39.882 44.0655 40.9999 43.5167C41.9624 43.0449 42.892 42.5892 43.9693 42.4058C44.5951 42.2994 45.9804 42.1643 50.9224 44.4869C53.5166 45.7056 54.827 46.3321 55.4941 47.1448C56.6876 48.5987 56.8899 50.1695 57.1958 52.9926C57.3932 54.8161 57.5206 57.3634 57.1958 60.4357C59.6766 67.3475 62.1581 74.2586 64.6389 81.1704C58.4719 81.1543 52.3056 81.1375 46.1379 81.1221C45.3266 75.3576 44.5146 69.5924 43.7026 63.8286C43.4331 63.5752 42.997 63.1888 42.416 62.7751C41.4241 62.0688 40.6135 61.7139 40.3958 61.6054Z" fill="#CC825C"/>
<path fill-rule="evenodd" clip-rule="evenodd" d="M44.7026 43.5299C41.5897 36.7084 40.3206 33.2252 40.077 31.6474C40.0273 31.3289 39.8803 30.1823 39.0403 29.6538C38.5489 29.3444 37.8349 29.2562 37.3659 29.4942C36.395 29.9863 36.3586 31.9246 36.7275 35.1565C36.9977 37.5211 37.5157 40.8377 38.6063 44.8361C40.6384 44.4007 42.6705 43.9653 44.7026 43.5299Z" fill="#CC825C"/>
<path fill-rule="evenodd" clip-rule="evenodd" d="M5.94851 24.0156L6.96211 23.002L4.09491 20.1348C3.81491 19.8548 3.36131 19.8548 3.08131 20.1348L0.214111 23.002L1.22771 24.0156L2.87131 22.372V30.6768H4.30491V22.372L5.94851 24.0156Z" fill="#1F80E0"/>
<path fill-rule="evenodd" clip-rule="evenodd" d="M64.1282 11.5049L65.1418 10.4913L62.2753 7.62409C61.9946 7.34409 61.5417 7.34409 61.261 7.62409L58.3945 10.4913L59.4074 11.5049L61.051 9.86129V18.1661H62.4846V9.86129L64.1282 11.5049Z" fill="#1F80E0"/>
<path fill-rule="evenodd" clip-rule="evenodd" d="M13.5442 4.15727L14.5578 3.14367L11.6906 0.276467C11.4106 -0.00353272 10.957 -0.00353272 10.677 0.276467L7.80981 3.14367L8.82341 4.15727L10.467 2.51367V10.8185H11.9006V2.51367L13.5442 4.15727Z" fill="#1F80E0"/>
<defs>
<linearGradient id="paint0_linear" x1="17.6608" y1="12.0448" x2="40.153" y2="44.3612" gradientUnits="userSpaceOnUse">
<stop stop-color="#182133"/>
<stop offset="1" stop-color="#111726"/>
</linearGradient>
<clipPath id="clip0">
<rect width="37" height="73" fill="white" transform="translate(14 9.17661)"/>
</clipPath>
</defs>
</svg>
