<svg width="88" height="51" viewBox="0 0 88 51" fill="none" xmlns="http://www.w3.org/2000/svg">
<mask id="mask0" mask-type="alpha" maskUnits="userSpaceOnUse" x="0" y="0" width="88" height="51">
<rect width="88" height="51" fill="white"/>
</mask>
<g mask="url(#mask0)">
<path fill-rule="evenodd" clip-rule="evenodd" d="M35.1214 19.9847C34.7349 19.9847 34.4126 20.049 34.0261 20.049H33.5749C28.9349 20.178 27.8395 16.4404 27.8395 16.4404V16.5694L27.7752 16.4404C26.8085 12.3162 22.6843 9.73832 18.4955 10.705C14.3714 11.6718 11.7938 15.7959 12.7605 19.9201C13.7269 23.9156 12.8891 25.9777 10.6981 26.4932C7.47599 27.2663 7.28271 29.7799 7.28271 32.0353C7.28271 36.9972 9.79599 41.3146 17.0136 40.2836C17.9157 40.155 18.9467 40.0257 19.9134 39.8327C25.5198 38.995 32.2216 38.0282 37.4414 37.6414C38.2792 37.577 39.6325 35.3217 40.019 32.873C41.5656 31.5194 42.5323 29.522 42.5323 27.331C42.5323 23.2711 39.2456 19.9847 35.1214 19.9847Z" fill="#2A2F38"/>
<mask id="mask1" mask-type="alpha" maskUnits="userSpaceOnUse" x="4" y="18" width="38" height="34">
<path fill-rule="evenodd" clip-rule="evenodd" d="M6.76742 18.4381L8.76518 19.4691L10.8269 20.5002C10.8269 20.5002 9.92486 22.4979 9.28038 24.8176C8.63622 27.2019 8.70054 29.0707 9.34502 29.8442C9.9895 30.6173 11.665 30.7466 13.5981 30.2954C16.3047 29.6509 25.3908 27.1376 29.0641 27.0086C30.2884 26.9443 31.7706 27.3309 32.5437 29.0707C35.6369 36.095 38.0212 43.248 41.2433 51.3677C34.7994 51.3677 25.7777 51.3677 19.5265 51.303C17.8513 46.4698 16.498 41.3146 14.6292 35.2573C13.5335 35.3862 12.5025 35.4506 11.6004 35.4506C9.02278 35.4506 7.08966 34.4838 5.73638 33.0019C3.86726 30.9395 3.4807 27.7174 4.70534 23.529C5.41414 20.7581 6.70278 18.5024 6.76742 18.4381Z" fill="white"/>
</mask>
<g mask="url(#mask1)">
<path fill-rule="evenodd" clip-rule="evenodd" d="M41.2433 51.3677C38.0212 43.248 35.6369 36.095 32.5437 29.0707C31.7706 27.3309 30.2884 26.9443 29.0641 27.0086C25.3908 27.1376 16.3047 29.6509 13.5981 30.2954C11.665 30.7466 9.9895 30.6173 9.34502 29.8442C8.70054 29.0707 8.63622 27.2019 9.28038 24.8176C9.92486 22.4979 10.8269 20.5002 10.8269 20.5002L8.76518 19.4691L6.76742 18.4381C6.70278 18.5024 5.41414 20.7581 4.70534 23.529C3.4807 27.7174 3.86726 30.9395 5.73638 33.0019C7.08966 34.4838 9.02278 35.4506 11.6004 35.4506C12.5025 35.4506 13.5335 35.3862 14.6292 35.2573C16.498 41.3146 17.8513 46.4698 19.5265 51.303C25.7777 51.3677 34.7994 51.3677 41.2433 51.3677Z" fill="url(#paint0_linear)"/>
</g>
<path fill-rule="evenodd" clip-rule="evenodd" d="M26.0351 31.9708L25.1973 27.5241L24.5532 24.1734L18.9468 25.4623L20.4933 30.8108L21.1375 33.0662C21.3308 33.9682 21.9753 34.7417 22.813 34.9996C23.7151 35.2575 24.6818 35.0639 25.3263 34.4194C26.0351 33.7753 26.293 32.8082 26.0351 31.9708Z" fill="#FFE1D9"/>
<path fill-rule="evenodd" clip-rule="evenodd" d="M22.6843 28.8132C25.5841 28.1044 27.3243 25.3332 26.6152 22.498L26.0353 17.0849C25.7131 15.6026 23.5864 14.7005 22.1044 15.0228L17.1425 16.1828C15.6603 16.505 14.0491 17.9226 14.436 19.4049L16.3691 24.8823C17.0136 27.7175 20.4289 29.393 22.6843 28.8132Z" fill="#FFE1D9"/>
<path fill-rule="evenodd" clip-rule="evenodd" d="M18.8823 24.9466C19.9776 24.9466 20.88 24.0445 20.88 22.9488C20.88 21.8535 19.9776 20.9514 18.8823 20.9514C17.7869 20.9514 16.8845 21.8535 16.8845 22.9488C16.8845 24.0445 17.7869 24.9466 18.8823 24.9466Z" fill="white"/>
<path fill-rule="evenodd" clip-rule="evenodd" d="M18.56 23.2067H18.431C18.3021 23.1421 18.2378 23.0135 18.3021 22.8845C18.4957 22.5623 18.8822 22.4979 19.0755 22.5623C19.2045 22.5623 19.3334 22.6912 19.2688 22.8845C19.2688 22.9488 19.2045 23.0135 19.1398 23.0778C19.0755 23.1421 19.0112 23.1421 18.9466 23.1421C18.8822 23.1421 18.7533 23.1421 18.689 23.2067C18.7533 23.1421 18.689 23.2067 18.56 23.2067Z" fill="#161616"/>
<path fill-rule="evenodd" clip-rule="evenodd" d="M23.5864 23.2711C24.6817 23.2711 25.5841 22.3691 25.5841 21.2734C25.5841 20.178 24.6817 19.2759 23.5864 19.2759C22.491 19.2759 21.5886 20.178 21.5886 21.2734C21.5886 22.3691 22.491 23.2711 23.5864 23.2711Z" fill="white"/>
<path fill-rule="evenodd" clip-rule="evenodd" d="M23.2643 21.4668C23.1353 21.4668 23.071 21.4024 23.0064 21.2735C22.9421 21.1445 23.0064 21.0802 23.071 21.0156C23.3286 20.758 23.7155 20.8869 23.9088 20.9512C24.0377 21.0156 24.1021 21.2092 23.9731 21.3378C23.9088 21.4668 23.7155 21.5314 23.5865 21.4024C23.5222 21.4024 23.3933 21.3378 23.3286 21.4024C23.3933 21.4024 23.3286 21.4668 23.2643 21.4668Z" fill="#161616"/>
<path fill-rule="evenodd" clip-rule="evenodd" d="M21.782 21.8535L21.1375 22.0467C21.0732 22.0467 21.0732 22.1114 21.0085 22.1114V22.24L21.5244 23.7869C21.5887 23.9155 21.653 23.9155 21.782 23.9155L22.4265 23.7223C22.942 23.529 23.1999 23.0135 23.0063 22.4979C22.8777 21.9824 22.2975 21.6602 21.782 21.8535Z" fill="#FFE1D9"/>
<path fill-rule="evenodd" clip-rule="evenodd" d="M25.1976 23.0778C24.1022 22.8199 22.8132 22.8846 21.5243 23.2711C20.2356 23.7223 19.14 24.4311 18.4312 25.2689L19.5912 26.8798L25.1329 25.0756L25.1976 23.0778Z" fill="#FFE1D9"/>
<path fill-rule="evenodd" clip-rule="evenodd" d="M20.7511 24.7533C20.4289 24.9466 20.2999 25.3978 20.5579 25.7843C21.0734 26.6221 21.9755 27.0733 22.7489 26.8154C23.522 26.5578 23.9732 25.7843 23.9732 24.7533C23.9732 24.3021 23.5863 23.9799 23.2644 23.9799C22.5553 24.0445 21.5889 24.1088 20.7511 24.7533Z" fill="#FF8888"/>
<path fill-rule="evenodd" clip-rule="evenodd" d="M7.6051 14.8938C7.79838 15.1517 8.18494 15.216 8.37854 15.0227C8.57182 14.8295 8.70046 14.4426 8.50718 14.2493C8.3139 13.9917 7.92734 13.9271 7.73406 14.1203C7.54078 14.3139 7.41182 14.6359 7.6051 14.8938Z" fill="#D8D8D8"/>
<mask id="mask2" mask-type="alpha" maskUnits="userSpaceOnUse" x="49" y="28" width="23" height="24">
<path fill-rule="evenodd" clip-rule="evenodd" d="M50.3295 31.9062C51.1026 29.1354 53.9382 27.4598 56.7094 28.2333L67.8575 31.1974C70.6284 31.9709 72.3039 34.8061 71.5305 37.577L69.5974 51.3677L49.3628 51.1744L50.3295 31.9062Z" fill="white"/>
</mask>
<g mask="url(#mask2)">
<path fill-rule="evenodd" clip-rule="evenodd" d="M69.5974 51.3677L71.5305 37.577C72.3039 34.8061 70.6284 31.9709 67.8575 31.1974L56.7094 28.2333C53.9382 27.4598 51.1026 29.1354 50.3295 31.9062L49.3628 51.1744L69.5974 51.3677Z" fill="url(#paint1_linear)"/>
</g>
<path fill-rule="evenodd" clip-rule="evenodd" d="M60.64 34.9996C59.8669 34.8063 59.1581 34.2905 58.7712 33.5817C58.3847 32.8729 58.256 32.0351 58.449 31.2617L60.2535 24.6245L66.1821 26.2354L64.4423 32.8082C63.9911 34.4841 62.3155 35.3861 60.64 34.9996Z" fill="#CC825C"/>
<path fill-rule="evenodd" clip-rule="evenodd" d="M60.3179 24.56L59.2869 28.2333C60.1246 29.9731 62.1224 31.2618 64.5067 31.4551H64.7646L66.1822 26.1709L60.3179 24.56Z" fill="#BC6E4B"/>
<path fill-rule="evenodd" clip-rule="evenodd" d="M72.304 23.6578C73.1418 23.078 73.3351 21.918 72.7549 21.1446C72.1751 20.3711 71.0154 20.2425 70.1773 20.8223C69.3395 21.4025 69.1463 22.5625 69.7261 23.3356C70.3706 24.1734 71.4663 24.3023 72.304 23.6578Z" fill="#CC825C"/>
<path fill-rule="evenodd" clip-rule="evenodd" d="M58.7713 20.4358C59.6734 20.0493 60.0603 18.9536 59.6734 18.0515C59.2868 17.0848 58.1915 16.6339 57.3537 17.0205C56.4516 17.407 56.0648 18.5024 56.4516 19.4048C56.8382 20.3069 57.8692 20.8224 58.7713 20.4358Z" fill="#CC825C"/>
<path fill-rule="evenodd" clip-rule="evenodd" d="M71.9818 19.4691C71.0151 23.0778 67.6644 29.0064 62.7022 27.7175C57.7402 26.3645 57.8689 19.5338 58.8359 15.9248C59.8023 12.3162 63.5399 10.1895 67.2132 11.1562C70.8218 12.1872 72.9486 15.8605 71.9818 19.4691Z" fill="#CC825C"/>
<path fill-rule="evenodd" clip-rule="evenodd" d="M62.8957 19.9202C63.9911 19.9202 64.8931 19.0181 64.8931 17.9224C64.8931 16.8271 63.9911 15.925 62.8957 15.925C61.8 15.925 60.8979 16.8271 60.8979 17.9224C60.8979 19.0181 61.8 19.9202 62.8957 19.9202Z" fill="white"/>
<path fill-rule="evenodd" clip-rule="evenodd" d="M62.8956 18.3093C62.8313 18.3093 62.7667 18.2446 62.7023 18.2446C62.6377 18.1803 62.6377 18.116 62.6377 18.0514V17.6648C62.6377 17.6005 62.7023 17.5358 62.7023 17.4715C62.7667 17.4072 62.8313 17.4072 62.8956 17.4072C62.9599 17.4072 63.0243 17.4715 63.0889 17.4715C63.1535 17.5358 63.1535 17.6005 63.1535 17.6648V18.0514C63.1535 18.1803 63.0243 18.3093 62.8956 18.3093Z" fill="#161616"/>
<path fill-rule="evenodd" clip-rule="evenodd" d="M67.7287 21.2735C68.8241 21.2735 69.7262 20.3714 69.7262 19.2757C69.7262 18.1803 68.8241 17.2783 67.7287 17.2783C66.633 17.2783 65.731 18.1803 65.731 19.2757C65.731 20.3714 66.633 21.2735 67.7287 21.2735Z" fill="white"/>
<path fill-rule="evenodd" clip-rule="evenodd" d="M67.6643 19.7269C67.5997 19.7269 67.471 19.6623 67.4064 19.598C67.3421 19.5336 67.3421 19.4047 67.4064 19.3404L67.5997 19.0181C67.6643 18.9535 67.7286 18.8892 67.8576 18.8892C67.9219 18.8892 68.0509 18.9535 68.0509 19.0181C68.1152 19.0824 68.1152 19.2114 68.0509 19.2757L67.8576 19.598C67.8576 19.6623 67.793 19.7269 67.6643 19.7269Z" fill="#161616"/>
<path fill-rule="evenodd" clip-rule="evenodd" d="M65.9888 18.6958L65.3443 18.5026C65.2157 18.5026 65.151 18.5026 65.0867 18.6315L64.6355 20.1781V20.307C64.6355 20.3714 64.7001 20.3714 64.7645 20.3714L65.4089 20.5646C65.6665 20.6293 65.9245 20.6293 66.1821 20.5003C66.44 20.3714 66.5686 20.1781 66.6976 19.9202C66.7622 19.4046 66.5043 18.8891 65.9888 18.6958Z" fill="#CC825C"/>
<path fill-rule="evenodd" clip-rule="evenodd" d="M67.9864 21.6602C67.2773 20.8224 66.182 20.1136 64.893 19.7268C63.6044 19.3402 62.3154 19.3402 61.2197 19.5981L61.2847 21.5956L66.8908 23.2711L67.9864 21.6602Z" fill="#CC825C"/>
<path fill-rule="evenodd" clip-rule="evenodd" d="M64.6999 20.178C61.2199 19.4046 60.1889 21.7246 58.9002 20.5646C58.578 20.2423 58.0625 20.4359 57.9981 20.8868C57.289 24.2379 56.5159 30.4244 61.5421 31.7774C66.5687 33.131 69.0173 27.3953 70.113 24.1732C70.2417 23.7867 69.9197 23.3358 69.4685 23.4644C67.793 23.7867 68.1153 21.2734 64.6999 20.178Z" fill="#2A2F38"/>
<path fill-rule="evenodd" clip-rule="evenodd" d="M65.731 23.6579C65.473 24.6246 64.2487 25.9779 63.2177 25.7199C62.187 25.4623 61.8001 23.6579 62.1223 22.6911C62.3799 21.7244 63.2177 21.8534 64.2487 22.1113C65.2158 22.3689 65.9889 22.6268 65.731 23.6579Z" fill="#CC825C"/>
<path fill-rule="evenodd" clip-rule="evenodd" d="M67.0197 23.5933C65.9886 23.7866 61.9934 22.6266 61.0267 21.9824C60.7048 21.7245 61.22 21.209 61.22 21.209L67.213 22.8199C67.213 22.8199 67.4066 23.529 67.0197 23.5933Z" fill="white"/>
<path fill-rule="evenodd" clip-rule="evenodd" d="M74.7527 35.5149L70.2417 33.4531L71.2084 28.04C71.2727 27.5888 71.7239 27.2666 72.1748 27.2666L73.1419 27.3309L73.8507 25.7843L77.8459 27.5888C78.2324 27.7821 78.5547 28.1043 78.6836 28.5552C78.8126 29.0064 78.7479 29.4573 78.4903 29.7799L74.7527 35.5149Z" fill="#CC825C"/>
<mask id="mask3" mask-type="alpha" maskUnits="userSpaceOnUse" x="79" y="21" width="4" height="5">
<path fill-rule="evenodd" clip-rule="evenodd" d="M79.0403 21.9823H82.6148V25.1399H79.0403V21.9823Z" fill="white"/>
</mask>
<g mask="url(#mask3)">
<path fill-rule="evenodd" clip-rule="evenodd" d="M79.1994 25.1399C78.9415 24.8823 79.0061 24.4311 79.328 24.1732L81.5191 22.1757C81.8413 21.9178 82.2279 21.9178 82.4858 22.1757C82.6148 22.369 82.6148 22.498 82.6148 22.6266C82.6148 23.3357 81.8413 24.1089 80.746 24.6244C80.488 24.8177 80.2948 24.9466 80.1012 25.0756C80.1661 25.0756 80.1661 25.0756 79.1994 25.1399Z" fill="#CC825C"/>
</g>
<path fill-rule="evenodd" clip-rule="evenodd" d="M79.1994 31.6487C79.1348 32.0995 78.6196 32.4218 78.168 32.2931L73.0128 30.7466C72.6263 30.6173 72.3684 30.2307 72.4327 29.8442L74.4951 18.1159C74.5594 17.7293 74.9463 17.4714 75.3328 17.4714L80.6813 17.7293C81.1325 17.7293 81.5191 18.1805 81.3904 18.6314L79.1994 31.6487Z" fill="#2E3333"/>
<path fill-rule="evenodd" clip-rule="evenodd" d="M78.5548 32.4218C78.6837 32.4218 78.8127 32.3574 78.9417 32.2931C79.1346 32.1638 79.3282 31.9062 79.3925 31.6486L81.6482 18.6957C81.7125 18.4381 81.6482 18.1805 81.4549 17.9869C81.2613 17.7936 81.0681 17.6646 80.8105 17.6646L75.4617 17.407C75.0108 17.407 74.5596 17.7293 74.4949 18.1805L72.4329 29.9085C72.3685 30.3597 72.6265 30.8109 73.0773 30.9395L78.2325 32.4861C78.2972 32.4218 78.4261 32.4861 78.5548 32.4218ZM75.2684 17.6646H75.3973L80.7461 17.9226C80.9391 17.9226 81.1327 18.0515 81.197 18.1805C81.326 18.3091 81.3903 18.5024 81.326 18.6957L79.0703 31.6486C79.006 31.8419 78.9417 31.9709 78.7481 32.0995C78.6194 32.2285 78.4261 32.2285 78.2325 32.1638L73.0773 30.6173C72.7551 30.553 72.5618 30.2307 72.6265 29.8442L74.6885 18.1158C74.7529 17.9226 75.0108 17.6646 75.2684 17.6646Z" fill="#565C5C"/>
<path fill-rule="evenodd" clip-rule="evenodd" d="M76.5573 18.438L79.3282 18.6313C79.3925 18.6313 79.5218 18.567 79.5218 18.438C79.5218 18.3094 79.4571 18.2447 79.3282 18.2447L76.5573 18.0515C76.493 18.0515 76.364 18.1158 76.364 18.2447C76.364 18.3737 76.4283 18.438 76.5573 18.438Z" fill="#565C5C"/>
<path fill-rule="evenodd" clip-rule="evenodd" d="M81.5835 19.2759V19.0179L81.5191 18.5024V18.696L79.2638 31.4554C79.2638 31.4554 79.1348 32.4861 78.2324 32.2931C78.2324 32.2931 79.0702 32.6154 79.3281 31.9709L81.5835 19.2759Z" fill="white"/>
<path fill-rule="evenodd" clip-rule="evenodd" d="M78.8124 32.4861C78.8768 32.4861 79.0057 32.4861 79.0704 32.4218C79.2636 32.3575 79.328 32.2285 79.3923 32.0353L81.648 19.3402V19.0826L81.5833 18.5668H81.3257V18.6957L79.0704 31.4551C79.0704 31.4551 79.0057 31.9063 78.7481 32.0996C78.6192 32.2285 78.4259 32.2285 78.2326 32.2285L78.168 32.4861C78.168 32.4218 78.4902 32.5508 78.8124 32.4861Z" fill="#565C5C"/>
<path fill-rule="evenodd" clip-rule="evenodd" d="M75.0751 30.1021C75.0107 30.4886 75.2037 30.8109 75.5259 30.8752C75.8482 30.9395 76.1707 30.6819 76.2351 30.2954C76.2994 29.9088 76.1061 29.5866 75.7839 29.5222C75.3973 29.4573 75.1394 29.7152 75.0751 30.1021Z" fill="#565C5C"/>
<path fill-rule="evenodd" clip-rule="evenodd" d="M81.4546 26.8799C81.326 27.3311 80.8101 27.5887 80.2946 27.4598C79.7791 27.3311 79.4569 26.8799 79.5858 26.4287C79.7148 25.9778 80.2303 25.7199 80.7458 25.8489C81.2613 25.9778 81.5833 26.4287 81.4546 26.8799Z" fill="#CC825C"/>
<path fill-rule="evenodd" clip-rule="evenodd" d="M80.8103 28.8132C80.5524 29.1997 79.9725 29.3287 79.5217 29.0708C79.0705 28.8132 78.8769 28.2976 79.1348 27.9111C79.3924 27.5242 79.9725 27.3952 80.4237 27.6532C80.8746 27.9111 81.0682 28.4266 80.8103 28.8132Z" fill="#CC825C"/>
<path fill-rule="evenodd" clip-rule="evenodd" d="M80.2304 30.553C79.9725 30.8753 79.4569 30.8753 79.0061 30.6173C78.6195 30.2951 78.4259 29.8442 78.6838 29.522C78.9417 29.1997 79.4569 29.1997 79.9081 29.4573C80.359 29.7799 80.4883 30.2308 80.2304 30.553Z" fill="#CC825C"/>
<path fill-rule="evenodd" clip-rule="evenodd" d="M74.044 37.0614C72.884 36.8038 71.4017 36.1594 70.6283 34.9997C70.3707 34.6128 70.1774 34.2906 70.0484 33.775C69.8552 32.6797 70.564 32.3574 70.7572 31.1331C70.9505 29.7152 70.2417 28.4266 70.4353 27.5888C70.564 26.9443 70.8862 26.4931 70.8862 26.4931V26.4288C71.5953 25.4621 72.5617 24.6243 72.5617 24.6243C74.5592 22.9488 74.8814 23.5933 74.8814 23.5933C75.5259 24.1088 74.1726 25.3334 74.1726 25.3334C74.1083 25.3334 74.1083 25.3978 74.1083 25.3978C73.3348 26.1066 73.1419 27.2019 73.5284 28.2333C73.6571 28.5552 73.7217 28.9418 73.7217 29.393C73.6571 30.1664 73.3348 30.6816 73.2062 30.8752C74.6884 31.3264 76.235 31.7773 77.7172 32.2285C76.8792 32.8083 76.0414 33.3238 75.2036 33.904C75.1393 33.9683 75.075 34.0326 75.075 34.0973L74.6238 36.6749C74.4948 36.9328 74.2372 37.1261 74.044 37.0614Z" fill="#CC825C"/>
<path fill-rule="evenodd" clip-rule="evenodd" d="M75.3972 33.5818C73.6574 39.9616 71.9818 45.8899 70.6286 48.7254C67.9866 53.881 59.0935 50.7229 62.8311 44.6656C64.6999 41.5725 68.4375 36.417 70.6286 31.7773C71.8529 31.455 74.9463 31.0042 75.3972 33.5818Z" fill="#CC825C"/>
<mask id="mask4" mask-type="alpha" maskUnits="userSpaceOnUse" x="27" y="30" width="33" height="29">
<path fill-rule="evenodd" clip-rule="evenodd" d="M50.0719 30.0374C55.4851 30.0374 59.9311 34.4195 59.9311 39.897V58.0694H27.9683V39.897C27.9683 34.4838 32.3503 30.0374 37.8278 30.0374H50.0719Z" fill="white"/>
</mask>
<g mask="url(#mask4)">
<path fill-rule="evenodd" clip-rule="evenodd" d="M59.9311 58.0694V39.897C59.9311 34.4195 55.4851 30.0374 50.0719 30.0374H37.8278C32.3503 30.0374 27.9683 34.4838 27.9683 39.897V58.0694H59.9311Z" fill="url(#paint2_linear)"/>
</g>
<mask id="mask5" mask-type="alpha" maskUnits="userSpaceOnUse" x="49" y="35" width="17" height="22">
<path fill-rule="evenodd" clip-rule="evenodd" d="M59.0291 35.7728L65.5379 54.6541L55.6137 56.2653L49.6851 38.9949L59.0291 35.7728Z" fill="white"/>
</mask>
<g mask="url(#mask5)">
<path fill-rule="evenodd" clip-rule="evenodd" d="M55.6137 56.2653L49.6851 38.9949L59.0291 35.7728L65.5379 54.6541L55.6137 56.2653Z" fill="url(#paint3_linear)"/>
</g>
<mask id="mask6" mask-type="alpha" maskUnits="userSpaceOnUse" x="34" y="0" width="20" height="15">
<path fill-rule="evenodd" clip-rule="evenodd" d="M34.2778 0.320007H53.8096V14.3783H34.2778V0.320007Z" fill="white"/>
</mask>
<g mask="url(#mask6)">
<path fill-rule="evenodd" clip-rule="evenodd" d="M34.8636 14.3784H37.4412V5.67852H50.2649V14.3784H52.7785C53.1008 10.7051 53.4873 8.12748 53.8096 4.4542C53.8096 3.87436 53.423 1.55436 50.0073 1.29676C44.9168 0.845558 43.8211 0.652278 38.5369 0.330038C36.5392 0.201078 34.5414 1.29676 34.3481 3.42348C34.0902 5.22764 34.606 10.7051 34.8636 14.3784Z" fill="#2E3333"/>
</g>
<path fill-rule="evenodd" clip-rule="evenodd" d="M38.6013 15.9893L38.9236 22.2402L39.3101 30.4242C39.4391 32.8731 41.4368 34.7419 43.8855 34.7419C46.3341 34.7419 48.3319 32.8085 48.4608 30.4242L48.6541 26.1067L49.1696 15.9893H38.6013Z" fill="#C28562"/>
<path fill-rule="evenodd" clip-rule="evenodd" d="M38.6013 15.9893L38.9236 22.2402L39.3101 30.4242C39.4391 32.8731 41.4368 34.7419 43.8855 34.7419C46.3341 34.7419 48.3319 32.8085 48.4608 30.4242L48.6541 26.1067L49.1696 15.9893H38.6013Z" fill="#D59570"/>
<path fill-rule="evenodd" clip-rule="evenodd" d="M45.1096 27.5888C46.4628 27.5888 47.6875 27.1376 48.6539 26.2998L49.0404 17.9226C48.4606 17.3424 47.6875 16.8915 46.8494 16.5693H43.2408C40.9854 17.3424 39.3745 19.4048 39.3745 21.9178C39.4388 25.0755 42.0164 27.5888 45.1096 27.5888Z" fill="#91634C"/>
<path fill-rule="evenodd" clip-rule="evenodd" d="M43.8854 26.2355C49.7497 26.2355 52.3916 15.9891 52.3916 11.2851C52.3916 5.54975 48.5897 3.93887 43.8854 3.93887C39.1814 3.93887 35.3792 5.61439 35.3792 11.2851C35.3792 16.0538 38.0857 26.2355 43.8854 26.2355Z" fill="#C28562"/>
<path fill-rule="evenodd" clip-rule="evenodd" d="M48.074 13.605C47.9453 13.6694 47.816 13.6694 47.6874 13.5404C47.4295 13.3471 46.914 13.4761 46.7853 13.5404C46.5917 13.605 46.3341 13.5404 46.2695 13.3471C46.2052 13.1538 46.2695 12.8962 46.4631 12.8316C46.5274 12.8316 47.4295 12.3807 48.1383 12.8962C48.3319 13.0252 48.3962 13.2828 48.2672 13.4761C48.2029 13.5404 48.1383 13.605 48.074 13.605Z" fill="#2B2B2B"/>
<path fill-rule="evenodd" clip-rule="evenodd" d="M35.3792 3.74551V4.90551V7.54743V13.9273H36.4102V9.22295C36.4102 8.32087 37.1836 7.54743 38.0857 7.54743H49.6851C50.5871 7.54743 51.3606 8.32087 51.3606 9.22295V13.9273H52.3916V7.54743V4.90551V3.74551H35.3792Z" fill="#2E3333"/>
<path fill-rule="evenodd" clip-rule="evenodd" d="M49.3628 14.8938C49.6851 13.4762 50.9094 12.5095 52.1337 12.7671C53.3583 13.025 54.1315 14.3783 53.8095 15.8605C53.4873 17.2781 52.263 18.2448 51.0383 17.9869C49.814 17.7293 49.0406 16.3114 49.3628 14.8938Z" fill="#C28562"/>
<path fill-rule="evenodd" clip-rule="evenodd" d="M47.6232 10.5763C49.1697 10.5763 50.3941 11.8006 50.3941 13.3472C50.3941 14.8937 49.1697 16.1181 47.6232 16.1181C46.0766 16.1181 44.8523 14.8937 44.8523 13.3472C44.9166 11.8006 46.1409 10.5763 47.6232 10.5763Z" stroke="#2B2B2B" stroke-width="0.68896"/>
<path fill-rule="evenodd" clip-rule="evenodd" d="M35.186 12.7672C36.4103 12.5093 37.6993 13.476 37.9569 14.8939C38.2791 16.3115 37.506 17.7291 36.2814 17.9871C35.0571 18.2447 33.7681 17.2783 33.5105 15.8603C33.2526 14.4427 33.9614 13.0251 35.186 12.7672Z" fill="#C28562"/>
<path fill-rule="evenodd" clip-rule="evenodd" d="M39.8256 10.5763C41.3721 10.5763 42.5964 11.8006 42.5964 13.3472C42.5964 14.8937 41.3721 16.1181 39.8256 16.1181C38.279 16.1181 37.0547 14.8937 37.0547 13.3472C37.0547 11.8006 38.3433 10.5763 39.8256 10.5763Z" stroke="#2B2B2B" stroke-width="0.68896"/>
<path fill-rule="evenodd" clip-rule="evenodd" d="M46.141 16.8271C46.6562 16.956 46.9788 17.4069 46.9142 17.8581C46.7209 20.5003 45.4319 23.2712 43.8854 23.2712C42.4034 23.2712 40.8569 20.1135 40.7922 17.8581C40.7922 17.4069 41.1145 16.956 41.5657 16.8271C42.79 16.5048 44.7231 16.5048 46.141 16.8271Z" fill="#8C553D"/>
<path fill-rule="evenodd" clip-rule="evenodd" d="M40.0834 17.0204C40.019 17.2783 40.019 17.5359 40.019 17.8581C40.019 17.8581 41.1787 18.0514 43.5634 18.0514C46.2053 18.0514 47.6875 17.8581 47.6875 17.8581C47.6875 17.6002 47.7518 17.2783 47.7518 17.0204C45.6898 16.2469 41.6299 16.2469 40.0834 17.0204Z" fill="white"/>
<path d="M43.1765 13.2183H44.3365" stroke="#2B2B2B" stroke-width="0.68896" stroke-linecap="square"/>
<path fill-rule="evenodd" clip-rule="evenodd" d="M40.8567 13.605C40.7277 13.6694 40.5988 13.6694 40.5345 13.5404C40.2769 13.3471 39.89 13.4761 39.7613 13.5404C39.5677 13.605 39.3745 13.5404 39.3101 13.3471C39.2455 13.1538 39.3101 12.9606 39.5034 12.8962C39.5677 12.8962 40.3412 12.5094 40.9857 12.9606C41.1789 13.0895 41.1789 13.2828 41.05 13.4761C40.9857 13.5404 40.921 13.605 40.8567 13.605Z" fill="#2B2B2B"/>
<mask id="mask7" mask-type="alpha" maskUnits="userSpaceOnUse" x="21" y="35" width="18" height="22">
<path fill-rule="evenodd" clip-rule="evenodd" d="M28.8707 35.5795L38.1501 39.1235L31.6416 56.136L21.7178 54.2675L28.8707 35.5795Z" fill="white"/>
</mask>
<g mask="url(#mask7)">
<path fill-rule="evenodd" clip-rule="evenodd" d="M31.6416 56.136L38.1501 39.1235L28.8707 35.5795L21.7178 54.2675L31.6416 56.136Z" fill="url(#paint4_linear)"/>
</g>
<path fill-rule="evenodd" clip-rule="evenodd" d="M25.3908 15.0227C25.3908 15.0227 23.651 21.4025 14.8868 22.1113L13.4692 16.1827L21.0734 12.0582L25.3908 15.0227Z" fill="#2A2F38"/>
<path fill-rule="evenodd" clip-rule="evenodd" d="M6.63843 18.5025L10.5693 20.6936L13.8557 17.6005C14.1779 17.2782 14.2426 16.827 13.9203 16.4405L13.3402 15.7317L14.4359 13.7982L11.0205 12.5739C9.60259 12.1873 8.70051 13.2184 8.37827 13.9915L6.63843 18.5025Z" fill="#FFE1D9"/>
<mask id="mask8" mask-type="alpha" maskUnits="userSpaceOnUse" x="4" y="4" width="16" height="15">
<path fill-rule="evenodd" clip-rule="evenodd" d="M15.9182 4.712L19.5912 9.41632C19.8491 9.73856 19.7844 10.1251 19.4622 10.3827L9.73164 17.9869C9.4094 18.2448 9.02284 18.1805 8.76524 17.8582L5.09196 13.1539C4.83404 12.8317 4.89868 12.4451 5.22092 12.1872L14.9515 4.58304" fill="white"/>
</mask>
<g mask="url(#mask8)">
<path fill-rule="evenodd" clip-rule="evenodd" d="M15.9182 4.712L19.5912 9.41632C19.8491 9.73856 19.7844 10.1251 19.4622 10.3827L9.73164 17.9869C9.4094 18.2448 9.02284 18.1805 8.76524 17.8582L5.09196 13.1539C4.83404 12.8317 4.89868 12.4451 5.22092 12.1872L14.9515 4.58304C15.2091 4.38976 15.6603 4.38976 15.9182 4.712Z" fill="url(#paint5_linear)"/>
</g>
</g>
<defs>
<linearGradient id="paint0_linear" x1="51.1155" y1="47.8184" x2="40.5645" y2="4.03402" gradientUnits="userSpaceOnUse">
<stop stop-color="#022346"/>
<stop offset="1" stop-color="#0E4D8C"/>
</linearGradient>
<linearGradient id="paint1_linear" x1="82.0956" y1="51.0813" x2="71.3712" y2="13.3633" gradientUnits="userSpaceOnUse">
<stop stop-color="#022346"/>
<stop offset="1" stop-color="#0E4D8C"/>
</linearGradient>
<linearGradient id="paint2_linear" x1="68.1768" y1="54.8519" x2="59.3846" y2="18.0687" gradientUnits="userSpaceOnUse">
<stop stop-color="#004B95"/>
<stop offset="1" stop-color="#4890DB"/>
</linearGradient>
<linearGradient id="paint3_linear" x1="47.3689" y1="42.652" x2="57.7897" y2="57.1407" gradientUnits="userSpaceOnUse">
<stop stop-color="#216BB6"/>
<stop offset="1" stop-color="#2872BC"/>
</linearGradient>
<linearGradient id="paint4_linear" x1="46.0972" y1="55.7066" x2="35.2455" y2="23.8782" gradientUnits="userSpaceOnUse">
<stop stop-color="#004B95"/>
<stop offset="1" stop-color="#4890DB"/>
</linearGradient>
<linearGradient id="paint5_linear" x1="13.1416" y1="2.59539" x2="3.63983" y2="11.2864" gradientUnits="userSpaceOnUse">
<stop stop-color="#858585"/>
<stop offset="1" stop-color="#4F4F4F"/>
</linearGradient>
</defs>
</svg>
