<svg width="89" height="67" viewBox="0 0 89 67" fill="none" xmlns="http://www.w3.org/2000/svg">
<path fill-rule="evenodd" clip-rule="evenodd" d="M76.3454 56.3511V60.1005C76.3454 60.4767 76.0385 60.7836 75.6605 60.7836H49.7477C49.3697 60.7836 49.0637 60.4767 49.0637 60.1005V56.3511C49.0637 56.3115 49.0655 56.2719 49.0745 56.235C49.1285 55.9155 49.4093 55.6689 49.7477 55.6689H75.6605C75.9989 55.6689 76.2806 55.9155 76.3337 56.235C76.3427 56.2719 76.3454 56.3115 76.3454 56.3511Z" fill="#C46C1A"/>
<path fill-rule="evenodd" clip-rule="evenodd" d="M51.4458 60.7838H53.748V55.6691H51.4458V60.7838Z" fill="#C4AE1A"/>
<path fill-rule="evenodd" clip-rule="evenodd" d="M55.1448 60.7838H57.4443V55.6691H55.1448V60.7838Z" fill="#C4AE1A"/>
<path fill-rule="evenodd" clip-rule="evenodd" d="M68.2092 60.7838H73.962V55.6691H68.2092V60.7838Z" fill="#C4AE1A"/>
<path fill-rule="evenodd" clip-rule="evenodd" d="M76.3342 56.2352H49.075C49.1281 55.9157 49.4089 55.6691 49.7482 55.6691H75.6609C75.9993 55.6691 76.2801 55.9157 76.3342 56.2352Z" fill="#C4931A"/>
<path fill-rule="evenodd" clip-rule="evenodd" d="M49.0747 60.2165H76.3339C76.2808 60.5369 75.9991 60.7835 75.6607 60.7835H49.7479C49.4095 60.7835 49.1287 60.5369 49.0747 60.2165Z" fill="#C4931A"/>
<path fill-rule="evenodd" clip-rule="evenodd" d="M73.7836 49.6548L74.2426 53.3763C74.2885 53.7498 74.0221 54.0909 73.6468 54.1368L47.9275 57.3057C47.5522 57.3516 47.2111 57.0852 47.1652 56.7126L46.7062 52.9902C46.7017 52.9515 46.699 52.9119 46.7035 52.8732C46.7179 52.5492 46.9663 52.2711 47.3029 52.2288L73.0204 49.0617C73.357 49.0203 73.6657 49.2291 73.7584 49.5405C73.7719 49.5765 73.7791 49.6152 73.7836 49.6548Z" fill="#C46C1A"/>
<path fill-rule="evenodd" clip-rule="evenodd" d="M51.2729 51.7404L51.8975 56.8164L49.6133 57.0972L48.9878 52.0212L51.2729 51.7404Z" fill="#C4AE1A"/>
<path fill-rule="evenodd" clip-rule="evenodd" d="M54.9416 51.2886L55.5671 56.3646L53.2847 56.6454L52.6592 51.5694L54.9416 51.2886Z" fill="#C4AE1A"/>
<path fill-rule="evenodd" clip-rule="evenodd" d="M71.3348 49.269L71.9603 54.345L66.2516 55.0488L65.6252 49.9719L71.3348 49.269Z" fill="#C4AE1A"/>
<path fill-rule="evenodd" clip-rule="evenodd" d="M73.758 49.5405L46.7031 52.8732C46.7175 52.5492 46.9659 52.2711 47.3025 52.2288L73.0209 49.0617C73.3575 49.0203 73.6653 49.2291 73.758 49.5405Z" fill="#C4931A"/>
<path fill-rule="evenodd" clip-rule="evenodd" d="M47.1904 56.8258L74.2453 53.4931C74.2309 53.8171 73.9825 54.0961 73.6468 54.1375L47.9275 57.3055C47.5909 57.3469 47.2831 57.1372 47.1904 56.8258Z" fill="#C4931A"/>
<path fill-rule="evenodd" clip-rule="evenodd" d="M62.7137 46.8906L62.5022 50.6346C62.4797 51.0099 62.1575 51.2979 61.7795 51.2772L35.9081 49.812C35.5301 49.7913 35.2421 49.4682 35.2628 49.0929L35.4752 45.3489C35.477 45.3093 35.4815 45.2697 35.4932 45.2337C35.5643 44.9169 35.8586 44.6874 36.197 44.7063L62.0684 46.1706C62.4068 46.1904 62.6732 46.4514 62.7083 46.7736C62.7155 46.8114 62.7155 46.851 62.7137 46.8906Z" fill="#C46C1A"/>
<path fill-rule="evenodd" clip-rule="evenodd" d="M40.1908 44.9324L39.9019 50.039L37.6033 49.9085L37.8931 44.8019L40.1908 44.9324Z" fill="#C4AE1A"/>
<path fill-rule="evenodd" clip-rule="evenodd" d="M43.8817 45.1416L43.5928 50.2473L41.2969 50.1177L41.5858 45.0111L43.8817 45.1416Z" fill="#C4AE1A"/>
<path fill-rule="evenodd" clip-rule="evenodd" d="M60.3724 46.0751L60.0835 51.1808L54.3406 50.8559L54.6295 45.7502L60.3724 46.0751Z" fill="#C4AE1A"/>
<path fill-rule="evenodd" clip-rule="evenodd" d="M62.7085 46.7737L35.4934 45.2338C35.5645 44.917 35.8588 44.6875 36.1972 44.7064L62.0686 46.1707C62.407 46.1905 62.6734 46.4515 62.7085 46.7737Z" fill="#C4931A"/>
<path fill-rule="evenodd" clip-rule="evenodd" d="M35.2681 49.2092L62.4832 50.75C62.4121 51.0659 62.1178 51.2954 61.7794 51.2774L35.908 49.8122C35.5696 49.7933 35.3032 49.5314 35.2681 49.2092Z" fill="#C4931A"/>
<path fill-rule="evenodd" clip-rule="evenodd" d="M58.0661 57.0763V61.6852C58.0661 61.732 58.0625 61.7797 58.0517 61.8256C58.0445 61.8769 58.0301 61.9246 58.0157 61.9705C57.9977 62.0137 57.9788 62.0614 57.9545 62.101C57.9068 62.1847 57.8456 62.2603 57.77 62.3215C57.77 62.3251 57.7664 62.3251 57.7619 62.3296C57.7619 62.3296 57.7619 62.3332 57.7583 62.3332C57.7376 62.3503 57.7115 62.3692 57.6863 62.3827C57.6683 62.398 57.6503 62.4088 57.6323 62.4196C57.6287 62.4196 57.6287 62.4232 57.6251 62.4232C57.5927 62.4412 57.5567 62.4565 57.5207 62.47C57.4802 62.4844 57.437 62.4988 57.3938 62.506C57.3857 62.5096 57.3785 62.5096 57.3686 62.5096C57.3209 62.5213 57.2741 62.5249 57.2228 62.5249H25.3664C25.316 62.5249 25.2692 62.5213 25.2215 62.5096C25.2152 62.5096 25.2035 62.5096 25.1972 62.506C25.1531 62.4988 25.1099 62.4844 25.0703 62.47C25.0334 62.4565 24.9974 62.4412 24.965 62.4232C24.9506 62.4124 24.9362 62.4052 24.9254 62.398C24.8057 62.3251 24.7085 62.2207 24.6392 62.101C24.614 62.0614 24.596 62.0137 24.578 61.9705C24.5636 61.9246 24.5492 61.8769 24.542 61.8256C24.5312 61.7797 24.5276 61.732 24.5276 61.6852V57.0763C24.5276 57.025 24.5312 56.9791 24.542 56.9314C24.6068 56.5372 24.9506 56.2366 25.3664 56.2366H57.2228C57.6431 56.2366 57.9869 56.5372 58.0517 56.9314C58.0625 56.9791 58.0661 57.025 58.0661 57.0763Z" fill="#FC9F21"/>
<path fill-rule="evenodd" clip-rule="evenodd" d="M27.4563 62.5226H30.2868V56.2361H27.4563V62.5226Z" fill="#FCEE21"/>
<path fill-rule="evenodd" clip-rule="evenodd" d="M32.0039 62.5226H34.8308V56.2361H32.0039V62.5226Z" fill="#FCEE21"/>
<path fill-rule="evenodd" clip-rule="evenodd" d="M48.0635 62.5244H55.1357V56.237H48.0635V62.5244Z" fill="#FCEE21"/>
<path fill-rule="evenodd" clip-rule="evenodd" d="M58.0519 56.9313H24.5422C24.607 56.538 24.9508 56.2374 25.3666 56.2374H57.223C57.6433 56.2374 57.9871 56.538 58.0519 56.9313Z" fill="#FCCB21"/>
<path fill-rule="evenodd" clip-rule="evenodd" d="M58.0519 61.8258C58.0438 61.8771 58.0303 61.9239 58.0159 61.9707C57.997 62.0139 57.979 62.0616 57.9547 62.1012C57.907 62.184 57.8458 62.2596 57.7702 62.3217C57.7702 62.3253 57.7666 62.3253 57.7621 62.3298C57.7621 62.3298 57.7621 62.3325 57.7585 62.3298V62.3325C57.7369 62.3505 57.7117 62.3694 57.6865 62.3829C57.6676 62.3982 57.6505 62.4081 57.6316 62.4189C57.628 62.4189 57.628 62.4234 57.6244 62.4234C57.592 62.4414 57.556 62.4558 57.52 62.4702C57.4795 62.4837 57.4363 62.499 57.394 62.5062C57.3859 62.5098 57.3787 62.5098 57.3679 62.5098C57.3211 62.5206 57.2743 62.5242 57.223 62.5242H25.3666C25.3153 62.5242 25.2685 62.5206 25.2217 62.5098C25.2145 62.5098 25.2037 62.5098 25.1965 62.5062C25.1533 62.499 25.1092 62.4837 25.0705 62.4702C25.0336 62.4558 24.9976 62.4414 24.9652 62.4234C24.9508 62.4117 24.9364 62.4054 24.9247 62.3982C24.8059 62.3253 24.7078 62.22 24.6394 62.1012C24.6142 62.0616 24.5962 62.0139 24.5782 61.9707C24.5638 61.9239 24.5485 61.8771 24.5422 61.8258H58.0519Z" fill="#FCCB21"/>
<path fill-rule="evenodd" clip-rule="evenodd" d="M62.7953 50.8009V55.4098C62.7953 55.4566 62.7917 55.5043 62.7809 55.5502C62.7746 55.6015 62.7593 55.6492 62.7449 55.6951C62.7269 55.7383 62.708 55.786 62.6837 55.8256C62.636 55.9093 62.5748 55.9849 62.4992 56.0461C62.4992 56.0497 62.4956 56.0497 62.4911 56.0542C62.4911 56.0542 62.4911 56.0578 62.4875 56.0578C62.4668 56.0749 62.4407 56.0938 62.4155 56.1073C62.3975 56.1226 62.3795 56.1334 62.3615 56.1442C62.3579 56.1442 62.3579 56.1478 62.3543 56.1478C62.3219 56.1658 62.2859 56.1811 62.2499 56.1946C62.2094 56.2099 62.1662 56.2234 62.123 56.2306C62.1149 56.2342 62.1077 56.2342 62.0978 56.2342C62.0501 56.2459 62.0033 56.2495 61.952 56.2495H30.0956C30.0452 56.2495 29.9984 56.2459 29.9507 56.2342C29.9444 56.2342 29.9327 56.2342 29.9264 56.2306C29.8823 56.2234 29.8391 56.2099 29.7995 56.1946C29.7626 56.1811 29.7266 56.1658 29.6942 56.1478C29.6798 56.137 29.6654 56.1298 29.6546 56.1226C29.5349 56.0497 29.4377 55.9453 29.3684 55.8256C29.3432 55.786 29.3252 55.7383 29.3072 55.6951C29.2928 55.6492 29.2784 55.6015 29.2712 55.5502C29.2604 55.5043 29.2568 55.4566 29.2568 55.4098V50.8009C29.2568 50.7496 29.2604 50.7037 29.2712 50.656C29.336 50.2618 29.6798 49.9612 30.0956 49.9612H61.952C62.3723 49.9612 62.7161 50.2618 62.7809 50.656C62.7917 50.7037 62.7953 50.7496 62.7953 50.8009Z" fill="#FC9F21"/>
<path fill-rule="evenodd" clip-rule="evenodd" d="M32.1858 56.2478H35.0163V49.9613H32.1858V56.2478Z" fill="#FCEE21"/>
<path fill-rule="evenodd" clip-rule="evenodd" d="M36.7334 56.2478H39.5603V49.9613H36.7334V56.2478Z" fill="#FCEE21"/>
<path fill-rule="evenodd" clip-rule="evenodd" d="M52.793 56.2496H59.8652V49.9622H52.793V56.2496Z" fill="#FCEE21"/>
<path fill-rule="evenodd" clip-rule="evenodd" d="M62.7814 50.6559H29.2717C29.3365 50.2626 29.6803 49.962 30.0961 49.962H61.9525C62.3728 49.962 62.7166 50.2626 62.7814 50.6559Z" fill="#FCCB21"/>
<path fill-rule="evenodd" clip-rule="evenodd" d="M62.7814 55.5505C62.7742 55.6018 62.7598 55.6486 62.7454 55.6954C62.7265 55.7386 62.7085 55.7863 62.6842 55.8259C62.6365 55.9087 62.5753 55.9843 62.4997 56.0464C62.4997 56.05 62.4961 56.05 62.4916 56.0545C62.4916 56.0545 62.4916 56.0572 62.488 56.0545V56.0572C62.4664 56.0752 62.4412 56.0941 62.416 56.1076C62.3971 56.1229 62.38 56.1328 62.3611 56.1436C62.3575 56.1436 62.3575 56.1481 62.3539 56.1481C62.3215 56.1661 62.2855 56.1805 62.2495 56.1949C62.209 56.2093 62.1658 56.2237 62.1235 56.2309C62.1154 56.2345 62.1082 56.2345 62.0974 56.2345C62.0506 56.2453 62.0038 56.2489 61.9525 56.2489H30.0961C30.0448 56.2489 29.998 56.2453 29.9512 56.2345C29.944 56.2345 29.9332 56.2345 29.926 56.2309C29.8828 56.2237 29.8387 56.2093 29.8 56.1949C29.7631 56.1805 29.7271 56.1661 29.6947 56.1481C29.6803 56.1364 29.6659 56.1301 29.6542 56.1229C29.5354 56.05 29.4373 55.9447 29.3689 55.8259C29.3437 55.7863 29.3257 55.7386 29.3077 55.6954C29.2933 55.6486 29.278 55.6018 29.2717 55.5505H62.7814Z" fill="#FCCB21"/>
<path fill-rule="evenodd" clip-rule="evenodd" d="M65.6449 44.5255V49.1344C65.6449 49.1812 65.6413 49.2289 65.6305 49.2748C65.6242 49.3261 65.6089 49.3738 65.5945 49.4197C65.5765 49.4638 65.5585 49.5106 65.5333 49.5502C65.4856 49.6339 65.4244 49.7095 65.3488 49.7707C65.3488 49.7743 65.3452 49.7743 65.3416 49.7788C65.3416 49.7788 65.3416 49.7824 65.3371 49.7824C65.3164 49.7995 65.2903 49.8184 65.2651 49.8319C65.248 49.8472 65.2291 49.858 65.2111 49.8688C65.2075 49.8688 65.2075 49.8724 65.2039 49.8724C65.1715 49.8904 65.1355 49.9057 65.0995 49.9192C65.059 49.9345 65.0158 49.948 64.9726 49.9552C64.9645 49.9588 64.9573 49.9588 64.9474 49.9588C64.8997 49.9705 64.8529 49.9741 64.8016 49.9741H32.9452C32.8948 49.9741 32.848 49.9705 32.8012 49.9588C32.794 49.9588 32.7823 49.9588 32.776 49.9552C32.7319 49.948 32.6887 49.9345 32.6491 49.9192C32.6122 49.9057 32.5762 49.8904 32.5438 49.8724C32.5294 49.8616 32.515 49.8544 32.5042 49.8472C32.3845 49.7743 32.2873 49.6699 32.218 49.5502C32.1937 49.5106 32.1748 49.4638 32.1568 49.4197C32.1424 49.3738 32.128 49.3261 32.1208 49.2748C32.11 49.2289 32.1064 49.1812 32.1064 49.1344V44.5255C32.1064 44.4742 32.11 44.4283 32.1208 44.3806C32.1856 43.9864 32.5294 43.6858 32.9452 43.6858H64.8016C65.2219 43.6858 65.5657 43.9864 65.6305 44.3806C65.6413 44.4283 65.6449 44.4742 65.6449 44.5255Z" fill="#FC9F21"/>
<path fill-rule="evenodd" clip-rule="evenodd" d="M35.0361 49.973H37.8657V43.6856H35.0361V49.973Z" fill="#FCEE21"/>
<path fill-rule="evenodd" clip-rule="evenodd" d="M39.583 49.973H42.4099V43.6856H39.583V49.973Z" fill="#FCEE21"/>
<path fill-rule="evenodd" clip-rule="evenodd" d="M55.6426 49.9739H62.7148V43.6865H55.6426V49.9739Z" fill="#FCEE21"/>
<path fill-rule="evenodd" clip-rule="evenodd" d="M65.6308 44.3804H32.1211C32.1859 43.9871 32.5297 43.6865 32.9455 43.6865H64.8019C65.2222 43.6865 65.566 43.9871 65.6308 44.3804Z" fill="#FCCB21"/>
<path fill-rule="evenodd" clip-rule="evenodd" d="M65.6308 49.2751C65.6236 49.3264 65.6092 49.3732 65.5948 49.42C65.5759 49.4641 65.5588 49.5109 65.5336 49.5505C65.4859 49.6333 65.4247 49.7089 65.3491 49.771C65.3491 49.7746 65.3455 49.7746 65.3419 49.7791C65.3419 49.7791 65.3419 49.7818 65.3374 49.7791V49.7818C65.3158 49.7998 65.2906 49.8187 65.2654 49.8322C65.2474 49.8475 65.2294 49.8574 65.2105 49.8691C65.2069 49.8691 65.2069 49.8727 65.2033 49.8727C65.1709 49.8907 65.1349 49.9051 65.0989 49.9195C65.0584 49.9339 65.0152 49.9483 64.9729 49.9555C64.9648 49.9591 64.9576 49.9591 64.9468 49.9591C64.9 49.9699 64.8532 49.9735 64.8019 49.9735H32.9455C32.8951 49.9735 32.8483 49.9699 32.8006 49.9591C32.7934 49.9591 32.7826 49.9591 32.7754 49.9555C32.7322 49.9483 32.6881 49.9339 32.6494 49.9195C32.6125 49.9051 32.5765 49.8907 32.5441 49.8727C32.5297 49.861 32.5153 49.8547 32.5045 49.8475C32.3848 49.7746 32.2876 49.6693 32.2183 49.5505C32.1931 49.5109 32.1751 49.4641 32.1571 49.42C32.1427 49.3732 32.1274 49.3264 32.1211 49.2751H65.6308Z" fill="#FCCB21"/>
<path fill-rule="evenodd" clip-rule="evenodd" d="M62.7953 38.2501V42.859C62.7953 42.9058 62.7917 42.9535 62.7809 43.0003C62.7746 43.0507 62.7593 43.0984 62.7449 43.1443C62.7269 43.1884 62.708 43.2352 62.6837 43.2748C62.636 43.3585 62.5748 43.4341 62.4992 43.4953C62.4992 43.4989 62.4956 43.4989 62.4911 43.5034C62.4911 43.5034 62.4911 43.507 62.4875 43.507C62.4668 43.5241 62.4407 43.543 62.4155 43.5565C62.3975 43.5718 62.3795 43.5826 62.3615 43.5934C62.3579 43.5934 62.3579 43.597 62.3543 43.597C62.3219 43.615 62.2859 43.6303 62.2499 43.6438C62.2094 43.6591 62.1662 43.6726 62.123 43.6798C62.1149 43.6834 62.1077 43.6834 62.0978 43.6834C62.0501 43.6951 62.0033 43.6987 61.952 43.6987H30.0956C30.0452 43.6987 29.9984 43.6951 29.9507 43.6834C29.9444 43.6834 29.9327 43.6834 29.9264 43.6798C29.8823 43.6726 29.8391 43.6591 29.7995 43.6438C29.7626 43.6303 29.7266 43.615 29.6942 43.597C29.6798 43.5862 29.6654 43.579 29.6546 43.5718C29.5349 43.4989 29.4377 43.3945 29.3684 43.2748C29.3432 43.2352 29.3252 43.1884 29.3072 43.1443C29.2928 43.0984 29.2784 43.0507 29.2712 43.0003C29.2604 42.9535 29.2568 42.9058 29.2568 42.859V38.2501C29.2568 38.1997 29.2604 38.1529 29.2712 38.1052C29.336 37.711 29.6798 37.4104 30.0956 37.4104H61.952C62.3723 37.4104 62.7161 37.711 62.7809 38.1052C62.7917 38.1529 62.7953 38.1997 62.7953 38.2501Z" fill="#FC9F21"/>
<path fill-rule="evenodd" clip-rule="evenodd" d="M32.1858 43.6973H35.0163V37.4099H32.1858V43.6973Z" fill="#FCEE21"/>
<path fill-rule="evenodd" clip-rule="evenodd" d="M36.7334 43.6973H39.5603V37.4099H36.7334V43.6973Z" fill="#FCEE21"/>
<path fill-rule="evenodd" clip-rule="evenodd" d="M52.793 43.6982H59.8652V37.4108H52.793V43.6982Z" fill="#FCEE21"/>
<path fill-rule="evenodd" clip-rule="evenodd" d="M62.7814 38.1051H29.2717C29.3365 37.7118 29.6803 37.4112 30.0961 37.4112H61.9525C62.3728 37.4112 62.7166 37.7118 62.7814 38.1051Z" fill="#FCCB21"/>
<path fill-rule="evenodd" clip-rule="evenodd" d="M62.7814 43.0005C62.7742 43.0509 62.7598 43.0977 62.7454 43.1445C62.7265 43.1886 62.7085 43.2354 62.6842 43.275C62.6365 43.3578 62.5753 43.4334 62.4997 43.4955C62.4997 43.4991 62.4961 43.4991 62.4916 43.5036C62.4916 43.5036 62.4916 43.5063 62.488 43.5036V43.5063C62.4664 43.5243 62.4412 43.5432 62.416 43.5567C62.3971 43.572 62.38 43.5819 62.3611 43.5936C62.3575 43.5936 62.3575 43.5972 62.3539 43.5972C62.3215 43.6152 62.2855 43.6296 62.2495 43.644C62.209 43.6584 62.1658 43.6728 62.1235 43.68C62.1154 43.6836 62.1082 43.6836 62.0974 43.6836C62.0506 43.6944 62.0038 43.698 61.9525 43.698H30.0961C30.0448 43.698 29.998 43.6944 29.9512 43.6836C29.944 43.6836 29.9332 43.6836 29.926 43.68C29.8828 43.6728 29.8387 43.6584 29.8 43.644C29.7631 43.6296 29.7271 43.6152 29.6947 43.5972C29.6803 43.5855 29.6659 43.5792 29.6542 43.572C29.5354 43.4991 29.4373 43.3938 29.3689 43.275C29.3437 43.2354 29.3257 43.1886 29.3077 43.1445C29.2933 43.0977 29.278 43.0509 29.2717 43.0005H62.7814Z" fill="#FCCB21"/>
<mask id="mask0" mask-type="alpha" maskUnits="userSpaceOnUse" x="59" y="35" width="30" height="27">
<path fill-rule="evenodd" clip-rule="evenodd" d="M59.7234 35.4593H88.507V61.4718H59.7234V35.4593Z" fill="white"/>
</mask>
<g mask="url(#mask0)">
<path fill-rule="evenodd" clip-rule="evenodd" d="M88.304 57.6967L85.2863 61.1824C84.9848 61.5325 84.4538 61.5703 84.1019 61.2661L60.0143 40.4185C59.6633 40.1143 59.6246 39.5824 59.927 39.2332L62.9438 35.7475C62.9753 35.7106 63.0104 35.6755 63.0482 35.6494C63.3551 35.3947 63.8141 35.392 64.1291 35.6647L88.2167 56.5123C88.5317 56.7841 88.5947 57.2386 88.3868 57.5797C88.3652 57.622 88.3355 57.6598 88.304 57.6967Z" fill="#FC9F21"/>
</g>
<path fill-rule="evenodd" clip-rule="evenodd" d="M67.8483 38.8829L63.7335 43.6367L61.5933 41.7854L65.7081 37.0307L67.8483 38.8829Z" fill="#FCEE21"/>
<path fill-rule="evenodd" clip-rule="evenodd" d="M71.284 41.8571L67.1692 46.6109L65.0317 44.7614L69.1465 40.0067L71.284 41.8571Z" fill="#FCEE21"/>
<path fill-rule="evenodd" clip-rule="evenodd" d="M86.6374 55.1453L82.5226 59.8991L77.1748 55.2713L81.2905 50.5166L86.6374 55.1453Z" fill="#FCEE21"/>
<mask id="mask1" mask-type="alpha" maskUnits="userSpaceOnUse" x="63" y="35" width="26" height="23">
<path fill-rule="evenodd" clip-rule="evenodd" d="M63.0479 35.4594H88.5068V57.5799H63.0479V35.4594Z" fill="white"/>
</mask>
<g mask="url(#mask1)">
<path fill-rule="evenodd" clip-rule="evenodd" d="M88.3865 57.5799L63.0479 35.6496C63.3557 35.3949 63.8138 35.3922 64.1288 35.664L88.2173 56.5116C88.5314 56.7843 88.5944 57.2388 88.3865 57.5799Z" fill="#FCCB21"/>
</g>
<path fill-rule="evenodd" clip-rule="evenodd" d="M59.8449 39.3505L85.1826 61.2808C84.8757 61.5355 84.4167 61.5382 84.1017 61.2664L60.0141 40.4188C59.7 40.1461 59.637 39.6916 59.8449 39.3505Z" fill="#FCCB21"/>
<mask id="mask2" mask-type="alpha" maskUnits="userSpaceOnUse" x="10" y="9" width="28" height="15">
<path fill-rule="evenodd" clip-rule="evenodd" d="M10.6884 12.2279L10.6434 20.1245C10.6344 21.722 11.9223 23.0243 13.5189 23.0324L34.3746 23.1512C35.9721 23.1602 37.2744 21.8732 37.2834 20.2757L37.3284 12.38C37.3374 10.7825 36.0495 9.48022 34.4529 9.47122L13.5963 9.35242C13.5909 9.35242 13.5855 9.35242 13.5801 9.35242C11.9907 9.35242 10.6974 10.6376 10.6884 12.2279Z" fill="white"/>
</mask>
<g mask="url(#mask2)">
<path fill-rule="evenodd" clip-rule="evenodd" d="M10.6884 12.2279L10.6434 20.1245C10.6344 21.722 11.9223 23.0243 13.5189 23.0324L34.3746 23.1512C35.9721 23.1602 37.2744 21.8732 37.2834 20.2757L37.3284 12.38C37.3374 10.7825 36.0495 9.48022 34.4529 9.47122L13.5963 9.35242C13.5909 9.35242 13.5855 9.35242 13.5801 9.35242C11.9907 9.35242 10.6974 10.6376 10.6884 12.2279Z" fill="url(#paint0_linear)"/>
</g>
<path fill-rule="evenodd" clip-rule="evenodd" d="M29.3152 13.6443L28.561 13.6398L28.5466 16.176L29.2639 16.1805C30.2242 16.1859 30.7858 15.7341 30.7903 14.9331C30.7957 14.1429 30.2269 13.6497 29.3152 13.6443ZM29.4925 12.2934C31.414 12.3042 32.4904 13.2312 32.4814 14.8584C32.4715 16.5216 31.3591 17.544 29.5726 17.5341L28.5394 17.5278L28.5241 20.2674L26.8582 20.2584L26.9041 12.2781L29.4925 12.2934ZM24.5146 12.2646L24.4696 20.2449L22.8055 20.2359L22.8496 12.2556L24.5146 12.2646ZM16.456 12.2196L18.067 17.5764L19.8112 12.2385L21.5248 12.2484L18.9274 20.2134L17.1526 20.2035L14.7424 12.2097L16.456 12.2196Z" fill="black"/>
<path fill-rule="evenodd" clip-rule="evenodd" d="M29.6641 56.3511V60.0996C29.6641 60.1392 29.6605 60.1788 29.6533 60.2193C29.6497 60.2301 29.6497 60.24 29.6461 60.2517C29.6389 60.2913 29.6245 60.3273 29.6101 60.3633C29.5957 60.3957 29.5813 60.4245 29.5633 60.4542C29.5516 60.4758 29.5372 60.4965 29.5192 60.5154C29.4868 60.5631 29.4472 60.5991 29.404 60.6351C29.386 60.6486 29.3644 60.6639 29.3428 60.6783C29.3167 60.6927 29.2915 60.7071 29.2663 60.7188C29.2591 60.7251 29.2483 60.7287 29.2375 60.7323C29.2051 60.7467 29.1691 60.7575 29.1322 60.7647C29.1286 60.7683 29.1214 60.7683 29.1142 60.7683C29.071 60.7791 29.0278 60.7836 28.981 60.7836H3.0673C3.0205 60.7836 2.9773 60.7791 2.9341 60.7683C2.926 60.7683 2.9233 60.7683 2.9197 60.7647C2.8792 60.7575 2.8432 60.7467 2.8072 60.7323C2.7712 60.7188 2.7388 60.6999 2.7055 60.6783C2.6875 60.6675 2.6695 60.6567 2.6515 60.6423C2.6335 60.6315 2.6227 60.6162 2.6083 60.6063C2.5867 60.5874 2.5687 60.5667 2.5507 60.5442C2.5435 60.5406 2.539 60.5334 2.5354 60.5262C2.5138 60.5046 2.4994 60.4794 2.485 60.4542C2.467 60.4245 2.449 60.3957 2.4382 60.3633C2.4238 60.3273 2.4094 60.2913 2.4022 60.2517C2.3986 60.24 2.3986 60.2301 2.395 60.2193C2.3878 60.1788 2.3833 60.1392 2.3833 60.0996V56.3511C2.3833 56.3115 2.3833 56.2719 2.395 56.2359C2.449 55.9137 2.7271 55.668 3.0673 55.668H28.981C29.3167 55.668 29.5993 55.9137 29.6533 56.2359C29.6605 56.2719 29.6641 56.3115 29.6641 56.3511Z" fill="#C46C1A"/>
<path fill-rule="evenodd" clip-rule="evenodd" d="M4.76538 60.7838H7.06758V55.6691H4.76538V60.7838Z" fill="#C4AE1A"/>
<path fill-rule="evenodd" clip-rule="evenodd" d="M8.46436 60.7838H10.7639V55.6691H8.46436V60.7838Z" fill="#C4AE1A"/>
<path fill-rule="evenodd" clip-rule="evenodd" d="M21.5288 60.7838H27.2807V55.6682H21.5288V60.7838Z" fill="#C4AE1A"/>
<path fill-rule="evenodd" clip-rule="evenodd" d="M29.6537 56.236H2.39453C2.44943 55.9138 2.72753 55.6681 3.06773 55.6681H28.9805C29.3171 55.6681 29.5988 55.9138 29.6537 56.236Z" fill="#C4931A"/>
<path fill-rule="evenodd" clip-rule="evenodd" d="M29.6537 60.2192C29.6501 60.23 29.6501 60.2399 29.6465 60.2516C29.6393 60.2912 29.6249 60.3272 29.6105 60.3632C29.5961 60.3956 29.5808 60.4253 29.5628 60.4541C29.552 60.4757 29.5376 60.4973 29.5196 60.5153C29.4872 60.563 29.4476 60.599 29.4044 60.635C29.3864 60.6494 29.3639 60.6638 29.3423 60.6782C29.3171 60.6926 29.2919 60.707 29.2667 60.7187C29.2595 60.725 29.2487 60.7286 29.2379 60.7322C29.2046 60.7466 29.1686 60.7583 29.1326 60.7646C29.129 60.7682 29.1218 60.7682 29.1146 60.7682C29.0714 60.779 29.0282 60.7835 28.9805 60.7835H3.06773C3.02093 60.7835 2.97683 60.779 2.93453 60.7682C2.92643 60.7682 2.92283 60.7682 2.91923 60.7646C2.87963 60.7583 2.84363 60.7466 2.80763 60.7322C2.77073 60.7187 2.73833 60.6998 2.70593 60.6782C2.68793 60.6674 2.66993 60.6566 2.65193 60.6422C2.63393 60.6314 2.62313 60.6161 2.60873 60.6062C2.58623 60.5873 2.56823 60.5666 2.55023 60.5441C2.54303 60.5405 2.53943 60.5342 2.53583 60.5261C2.51423 60.5045 2.49983 60.4793 2.48543 60.4541C2.46743 60.4253 2.44943 60.3956 2.43863 60.3632C2.42423 60.3272 2.40983 60.2912 2.40263 60.2516C2.39813 60.2399 2.39813 60.23 2.39453 60.2192H29.6537Z" fill="#C4931A"/>
<path fill-rule="evenodd" clip-rule="evenodd" d="M28.2862 51.2315V54.9791C28.2862 55.0187 28.2826 55.0592 28.2754 55.0988C28.2718 55.1096 28.2718 55.1204 28.2682 55.1312C28.261 55.1708 28.2466 55.2068 28.2322 55.2437C28.2178 55.2761 28.2034 55.304 28.1854 55.3337C28.1737 55.3553 28.1593 55.3769 28.1413 55.3949C28.1089 55.4426 28.0693 55.4786 28.0252 55.5146C28.0072 55.529 27.9865 55.5434 27.964 55.5587C27.9388 55.5722 27.9136 55.5875 27.8884 55.5983C27.8812 55.6046 27.8704 55.6082 27.8596 55.6118C27.8272 55.6271 27.7903 55.6379 27.7543 55.6442C27.7507 55.6487 27.7435 55.6487 27.7363 55.6487C27.6931 55.6595 27.649 55.6631 27.6022 55.6631H1.68937C1.64257 55.6631 1.59937 55.6595 1.55527 55.6487C1.54897 55.6487 1.54537 55.6487 1.54087 55.6442C1.50127 55.6379 1.46527 55.6271 1.42927 55.6118C1.39327 55.5983 1.36087 55.5794 1.32757 55.5587C1.30957 55.547 1.29157 55.5362 1.27357 55.5218C1.25557 55.511 1.24477 55.4966 1.23037 55.4858C1.20877 55.4678 1.19077 55.4462 1.17277 55.4237C1.16467 55.4201 1.16107 55.4129 1.15747 55.4066C1.13587 55.3841 1.12147 55.3589 1.10707 55.3337C1.08907 55.304 1.07107 55.2761 1.06027 55.2437C1.04587 55.2068 1.03147 55.1708 1.02337 55.1312C1.02067 55.1204 1.02067 55.1096 1.01707 55.0988C1.00897 55.0592 1.00537 55.0187 1.00537 54.9791V51.2315C1.00537 51.1919 1.00537 51.1514 1.01707 51.1154C1.07107 50.7941 1.34917 50.5475 1.68937 50.5475H27.6022C27.9388 50.5475 28.2214 50.7941 28.2754 51.1154C28.2826 51.1514 28.2862 51.1919 28.2862 51.2315Z" fill="#C46C1A"/>
<path fill-rule="evenodd" clip-rule="evenodd" d="M3.3877 55.6628H5.6899V50.5481H3.3877V55.6628Z" fill="#C4AE1A"/>
<path fill-rule="evenodd" clip-rule="evenodd" d="M7.08667 55.6628H9.38617V50.5481H7.08667V55.6628Z" fill="#C4AE1A"/>
<path fill-rule="evenodd" clip-rule="evenodd" d="M20.1501 55.6628H25.902V50.5472H20.1501V55.6628Z" fill="#C4AE1A"/>
<path fill-rule="evenodd" clip-rule="evenodd" d="M28.2751 51.1155H1.01685C1.07085 50.7942 1.34985 50.5476 1.68915 50.5476H27.6019C27.9385 50.5476 28.2211 50.7942 28.2751 51.1155Z" fill="#C4931A"/>
<path fill-rule="evenodd" clip-rule="evenodd" d="M28.2751 55.0987C28.2715 55.1095 28.2715 55.1203 28.2679 55.1311C28.2607 55.1707 28.2463 55.2067 28.2319 55.2436C28.2175 55.276 28.2031 55.3048 28.1851 55.3336C28.1743 55.3552 28.1599 55.3777 28.1419 55.3948C28.1086 55.4425 28.069 55.4785 28.0258 55.5145C28.0078 55.5298 27.9862 55.5433 27.9637 55.5586C27.9385 55.5721 27.9133 55.5874 27.8881 55.5982C27.8809 55.6045 27.8701 55.6081 27.8593 55.6117C27.8269 55.627 27.79 55.6378 27.754 55.6441C27.7504 55.6486 27.7432 55.6486 27.736 55.6486C27.6928 55.6594 27.6496 55.663 27.6019 55.663H1.68915C1.64235 55.663 1.59915 55.6594 1.55595 55.6486C1.54875 55.6486 1.54515 55.6486 1.54065 55.6441C1.50105 55.6378 1.46505 55.627 1.42905 55.6117C1.39305 55.5982 1.36065 55.5793 1.32825 55.5586C1.30935 55.5469 1.29135 55.5361 1.27335 55.5217C1.25535 55.5109 1.24455 55.4965 1.23015 55.4857C1.20855 55.4677 1.19055 55.4461 1.17255 55.4236C1.16445 55.42 1.16175 55.4137 1.15815 55.4065C1.13565 55.384 1.12125 55.3588 1.10685 55.3336C1.08885 55.3048 1.07085 55.276 1.06005 55.2436C1.04565 55.2067 1.03125 55.1707 1.02405 55.1311C1.02045 55.1203 1.02045 55.1095 1.01685 55.0987H28.2751Z" fill="#C4931A"/>
<mask id="mask3" mask-type="alpha" maskUnits="userSpaceOnUse" x="0" y="45" width="28" height="6">
<path fill-rule="evenodd" clip-rule="evenodd" d="M0 45.427H27.2806V50.5426H0V45.427Z" fill="white"/>
</mask>
<g mask="url(#mask3)">
<path fill-rule="evenodd" clip-rule="evenodd" d="M27.2806 46.111V49.8586C27.2806 49.8991 27.277 49.9387 27.2698 49.9783C27.2662 49.99 27.2662 49.9999 27.2617 50.0107C27.2554 50.0512 27.241 50.0872 27.2257 50.1232C27.2113 50.1556 27.1969 50.1844 27.1789 50.2141C27.1681 50.2348 27.1537 50.2564 27.1357 50.2753C27.1033 50.3221 27.0637 50.3581 27.0196 50.395C27.0016 50.4085 26.98 50.4238 26.9584 50.4382C26.9332 50.4517 26.908 50.467 26.8828 50.4778C26.8756 50.485 26.8648 50.4886 26.8531 50.4922C26.8207 50.5066 26.7847 50.5174 26.7487 50.5246C26.7451 50.5282 26.7379 50.5282 26.7307 50.5282C26.6866 50.539 26.6434 50.5426 26.5966 50.5426H0.683756C0.636956 50.5426 0.593756 50.539 0.549656 50.5282C0.542456 50.5282 0.538856 50.5282 0.535256 50.5246C0.495656 50.5174 0.459656 50.5066 0.423656 50.4922C0.386756 50.4778 0.354356 50.4598 0.321956 50.4382C0.303956 50.4274 0.285956 50.4157 0.267956 50.4022C0.249056 50.3905 0.239156 50.3761 0.224756 50.3662C0.202256 50.3473 0.184256 50.3257 0.166256 50.3041C0.159056 50.3005 0.155456 50.2924 0.151856 50.2861C0.130256 50.2636 0.115856 50.2393 0.101456 50.2141C0.0834559 50.1844 0.0654559 50.1556 0.0546559 50.1232C0.0393559 50.0872 0.0249559 50.0512 0.0177559 50.0107C0.0141559 49.9999 0.0141559 49.99 0.0105559 49.9783C0.00335586 49.9387 -0.000244141 49.8991 -0.000244141 49.8586V46.111C-0.000244141 46.0714 -0.000244141 46.0318 0.0105559 45.9958C0.0654559 45.6736 0.343556 45.427 0.683756 45.427H26.5966C26.9332 45.427 27.2149 45.6736 27.2698 45.9958C27.277 46.0318 27.2806 46.0714 27.2806 46.111Z" fill="#C46C1A"/>
</g>
<path fill-rule="evenodd" clip-rule="evenodd" d="M2.38135 50.5427H4.68355V45.428H2.38135V50.5427Z" fill="#C4AE1A"/>
<path fill-rule="evenodd" clip-rule="evenodd" d="M6.08032 50.5427H8.37982V45.428H6.08032V50.5427Z" fill="#C4AE1A"/>
<path fill-rule="evenodd" clip-rule="evenodd" d="M19.1448 50.5427H24.8967V45.4271H19.1448V50.5427Z" fill="#C4AE1A"/>
<path fill-rule="evenodd" clip-rule="evenodd" d="M27.2697 45.9959H0.010498C0.065398 45.6737 0.344398 45.4271 0.683698 45.4271H26.5965C26.9331 45.4271 27.2148 45.6737 27.2697 45.9959Z" fill="#C4931A"/>
<path fill-rule="evenodd" clip-rule="evenodd" d="M27.2697 49.9782C27.2661 49.9899 27.2661 49.9998 27.2625 50.0106C27.2553 50.0511 27.2409 50.0871 27.2265 50.1231C27.2121 50.1555 27.1968 50.1843 27.1788 50.214C27.168 50.2347 27.1536 50.2572 27.1356 50.2752C27.1032 50.322 27.0636 50.358 27.0204 50.3949C27.0024 50.4093 26.9799 50.4237 26.9583 50.4381C26.9331 50.4516 26.9079 50.4669 26.8827 50.4777C26.8755 50.4849 26.8647 50.4885 26.8539 50.4921C26.8206 50.5065 26.7846 50.5182 26.7486 50.5245C26.745 50.5281 26.7378 50.5281 26.7306 50.5281C26.6874 50.5389 26.6442 50.5425 26.5965 50.5425H0.683698C0.636898 50.5425 0.593698 50.5389 0.550498 50.5281C0.542398 50.5281 0.538798 50.5281 0.535198 50.5245C0.495598 50.5182 0.459598 50.5065 0.423598 50.4921C0.386698 50.4777 0.354298 50.4597 0.321898 50.4381C0.303898 50.4273 0.285898 50.4156 0.267898 50.4021C0.249898 50.3904 0.239098 50.376 0.224698 50.3661C0.202198 50.3472 0.184198 50.3256 0.166198 50.304C0.158998 50.3004 0.155398 50.2932 0.151798 50.286C0.130198 50.2635 0.115798 50.2392 0.101398 50.214C0.083398 50.1843 0.065398 50.1555 0.054598 50.1231C0.040198 50.0871 0.025798 50.0511 0.018598 50.0106C0.014098 49.9998 0.014098 49.9899 0.010498 49.9782H27.2697Z" fill="#C4931A"/>
<path fill-rule="evenodd" clip-rule="evenodd" d="M31.1673 40.9914V44.739C31.1673 44.7786 31.1637 44.8182 31.1565 44.8587C31.1529 44.8695 31.1529 44.8794 31.1493 44.8911C31.1421 44.9307 31.1277 44.9667 31.1133 45.0027C31.0989 45.0351 31.0845 45.0639 31.0665 45.0936C31.0548 45.1152 31.0404 45.1368 31.0224 45.1548C30.99 45.2025 30.9504 45.2385 30.9063 45.2745C30.8883 45.288 30.8676 45.3033 30.8451 45.3177C30.8199 45.3321 30.7947 45.3465 30.7695 45.3582C30.7623 45.3645 30.7515 45.3681 30.7407 45.3717C30.7083 45.387 30.6714 45.3978 30.6354 45.4041C30.6318 45.4077 30.6246 45.4077 30.6174 45.4077C30.5742 45.4194 30.5301 45.423 30.4833 45.423H4.57047C4.52367 45.423 4.48047 45.4194 4.43637 45.4077C4.42917 45.4077 4.42557 45.4077 4.42197 45.4041C4.38237 45.3978 4.34637 45.387 4.31037 45.3717C4.27437 45.3582 4.24197 45.3393 4.20867 45.3177C4.19067 45.3069 4.17267 45.2961 4.15467 45.2817C4.13667 45.2709 4.12587 45.2556 4.11057 45.2457C4.08987 45.2268 4.07187 45.2061 4.05387 45.1836C4.04577 45.18 4.04217 45.1728 4.03857 45.1665C4.01697 45.144 4.00257 45.1188 3.98817 45.0936C3.97017 45.0639 3.95217 45.0351 3.94137 45.0027C3.92607 44.9667 3.91257 44.9307 3.90447 44.8911C3.90177 44.8794 3.90177 44.8695 3.89817 44.8587C3.89007 44.8182 3.88647 44.7786 3.88647 44.739V40.9914C3.88647 40.9509 3.88647 40.9113 3.89817 40.8753C3.95217 40.554 4.23027 40.3074 4.57047 40.3074H30.4833C30.8199 40.3074 31.1025 40.554 31.1565 40.8753C31.1637 40.9113 31.1673 40.9509 31.1673 40.9914Z" fill="#C46C1A"/>
<path fill-rule="evenodd" clip-rule="evenodd" d="M6.26855 45.4226H8.57075V40.3079H6.26855V45.4226Z" fill="#C4AE1A"/>
<path fill-rule="evenodd" clip-rule="evenodd" d="M9.96753 45.4226H12.267V40.3079H9.96753V45.4226Z" fill="#C4AE1A"/>
<path fill-rule="evenodd" clip-rule="evenodd" d="M23.031 45.4226H28.7829V40.307H23.031V45.4226Z" fill="#C4AE1A"/>
<path fill-rule="evenodd" clip-rule="evenodd" d="M31.1562 40.8754H3.89795C3.95195 40.5541 4.23095 40.3075 4.57025 40.3075H30.483C30.8196 40.3075 31.1022 40.5541 31.1562 40.8754Z" fill="#C4931A"/>
<path fill-rule="evenodd" clip-rule="evenodd" d="M31.1562 44.8586C31.1526 44.8694 31.1526 44.8793 31.149 44.891C31.1418 44.9306 31.1274 44.9666 31.113 45.0026C31.0986 45.035 31.0842 45.0647 31.0662 45.0935C31.0554 45.1151 31.041 45.1376 31.023 45.1547C30.9897 45.2024 30.9501 45.2384 30.9069 45.2744C30.8889 45.2888 30.8673 45.3032 30.8448 45.3176C30.8196 45.332 30.7944 45.3464 30.7692 45.3581C30.762 45.3644 30.7512 45.368 30.7404 45.3716C30.708 45.3869 30.6711 45.3977 30.6351 45.404C30.6315 45.4076 30.6243 45.4076 30.6171 45.4076C30.5739 45.4193 30.5308 45.4229 30.483 45.4229H4.57025C4.52345 45.4229 4.48025 45.4193 4.43705 45.4076C4.42985 45.4076 4.42535 45.4076 4.42175 45.404C4.38215 45.3977 4.34615 45.3869 4.31015 45.3716C4.27415 45.3581 4.24175 45.3392 4.20935 45.3176C4.19045 45.3068 4.17245 45.296 4.15445 45.2816C4.13645 45.2708 4.12565 45.2555 4.11125 45.2456C4.08965 45.2267 4.07165 45.206 4.05365 45.1835C4.04555 45.1799 4.04285 45.1736 4.03925 45.1664C4.01675 45.1439 4.00235 45.1187 3.98795 45.0935C3.96995 45.0647 3.95195 45.035 3.94115 45.0026C3.92675 44.9666 3.91235 44.9306 3.90515 44.891C3.90155 44.8793 3.90155 44.8694 3.89795 44.8586H31.1562Z" fill="#C4931A"/>
<path fill-rule="evenodd" clip-rule="evenodd" d="M32.0267 37.6375C32.0267 37.6771 32.0231 37.7167 32.0159 37.7527L31.2707 41.4283C31.2635 41.4679 31.2527 41.5048 31.2347 41.5408C31.2095 41.6056 31.1762 41.6677 31.133 41.7172C31.1186 41.7397 31.1006 41.7577 31.079 41.7757C31.061 41.7973 31.0394 41.8189 31.0142 41.8333C30.9926 41.8522 30.9701 41.8657 30.9449 41.881C30.9377 41.8846 30.9305 41.8882 30.9269 41.8918C30.9017 41.9053 30.8765 41.917 30.8468 41.9278C30.8045 41.9458 30.7604 41.9566 30.7172 41.9638C30.6812 41.971 30.6443 41.9746 30.6047 41.9746C30.5579 41.9746 30.5111 41.971 30.4643 41.9602L29.6642 41.7973L29.0711 41.6776L28.8002 41.6236L27.281 41.3167L26.2712 41.1097H26.264L23.1599 40.4806L20.8667 40.0144L12.611 38.3422L10.3574 37.8823L8.98582 37.6087L6.73222 37.1488L5.06812 36.8122C4.98532 36.7942 4.91332 36.7654 4.84402 36.7249C4.81162 36.7042 4.77922 36.6817 4.74952 36.6565C4.60192 36.5269 4.51102 36.3316 4.51822 36.1246C4.51822 36.0886 4.52182 36.049 4.53262 36.0085L5.27782 32.3338C5.28502 32.2942 5.29582 32.2573 5.31022 32.2213C5.42632 31.918 5.75212 31.7326 6.08152 31.8019L7.74922 32.1385L10.0028 32.5975L11.3735 32.8729L13.628 33.3319L21.3185 34.8907L24.176 35.4703L25.3703 35.7124L29.8163 36.6133L31.4804 36.949C31.8098 37.0156 32.0375 37.3117 32.0267 37.6375Z" fill="#C46C1A"/>
<path fill-rule="evenodd" clip-rule="evenodd" d="M10.0034 32.5957L8.98733 37.6087L6.73193 37.1506L7.74803 32.1385L10.0034 32.5957Z" fill="#C4AE1A"/>
<path fill-rule="evenodd" clip-rule="evenodd" d="M13.6264 33.3304L12.6103 38.3425L10.3567 37.8862L11.3728 32.8732L13.6264 33.3304Z" fill="#C4AE1A"/>
<path fill-rule="evenodd" clip-rule="evenodd" d="M29.8163 36.6101V36.6137L29.7038 37.1663L28.9118 41.0705L28.9046 41.1101L28.8002 41.6231L27.281 41.3162L26.2712 41.1101H26.264L23.1599 40.481L23.2724 39.9275L24.0644 36.0242L24.176 35.4698L25.3703 35.7128L29.8163 36.6101Z" fill="#C4AE1A"/>
<path fill-rule="evenodd" clip-rule="evenodd" d="M32.0266 37.6375L29.7037 37.1668L24.0643 36.0238L21.268 35.4559L13.5154 33.8854L11.2618 33.4264L9.89016 33.151L7.63656 32.692L5.31006 32.2213C5.42616 31.918 5.75196 31.7326 6.08136 31.8019L7.74906 32.1385L10.0027 32.5975L11.3734 32.8729L13.6279 33.3319L21.3184 34.8907L24.1759 35.4703L25.3702 35.7124L29.8162 36.6133L31.4803 36.949C31.8097 37.0156 32.0374 37.3117 32.0266 37.6375Z" fill="#C4931A"/>
<path fill-rule="evenodd" clip-rule="evenodd" d="M31.2344 41.5407C31.2092 41.6055 31.1768 41.6676 31.1336 41.7171C31.1192 41.7396 31.1012 41.7576 31.0787 41.7756C31.0607 41.7972 31.0391 41.8197 31.0139 41.8332C30.9923 41.8521 30.9707 41.8656 30.9455 41.8809C30.9374 41.8845 30.9311 41.8881 30.9266 41.8917C30.9014 41.9052 30.8762 41.9169 30.8474 41.9277C30.8042 41.9457 30.761 41.9565 30.7169 41.9637C30.6809 41.9718 30.6449 41.9745 30.6053 41.9745C30.5585 41.9745 30.5108 41.9718 30.464 41.9601L29.6639 41.7972L29.0708 41.6775L28.7999 41.6235L27.2807 41.3166L26.2709 41.1096H26.2637L23.1596 40.4805L20.8664 40.0143L12.6107 38.3421L10.3571 37.8831L8.98639 37.6086L6.73189 37.1487L5.06869 36.8121C4.98499 36.7941 4.91299 36.7653 4.84369 36.7248C4.81129 36.7041 4.77889 36.6825 4.75009 36.6564C4.60159 36.5268 4.51159 36.3315 4.51789 36.1245L6.84439 36.5952L9.09799 37.0551L10.4696 37.3296L12.7232 37.7886L20.9168 39.45L23.2721 39.927L28.9115 41.0709L31.2344 41.5407Z" fill="#C4931A"/>
<path fill-rule="evenodd" clip-rule="evenodd" d="M48.8858 56.9304V61.5384C48.8858 61.5888 48.8831 61.6365 48.8705 61.6833C48.8624 61.7328 48.8498 61.7805 48.8327 61.8273C48.8273 61.848 48.8183 61.8678 48.8093 61.8894C48.7445 62.0271 48.6419 62.1486 48.515 62.2341C48.4916 62.2476 48.4682 62.2629 48.4439 62.2746C48.4205 62.289 48.3971 62.3016 48.371 62.3106C48.3467 62.3214 48.3206 62.3304 48.2945 62.3394C48.2738 62.3457 48.2558 62.3511 48.2351 62.3538C48.1766 62.3691 48.1118 62.3781 48.0434 62.3781H16.1879C16.1267 62.3781 16.0673 62.3718 16.0088 62.3565C15.9854 62.3538 15.9611 62.3484 15.9377 62.3394C15.9116 62.3304 15.8855 62.3214 15.8612 62.3106C15.8117 62.289 15.764 62.2629 15.7172 62.2341C15.6965 62.2188 15.6731 62.2008 15.6524 62.1864C15.6317 62.1711 15.6146 62.154 15.5939 62.1306C15.5759 62.1126 15.5615 62.0946 15.5435 62.0775C15.5381 62.0748 15.5345 62.0685 15.5318 62.0622C15.5174 62.0451 15.5021 62.0271 15.4913 62.0073C15.4724 61.9857 15.4616 61.9632 15.4499 61.9389C15.4346 61.9155 15.4229 61.8921 15.4112 61.8678C15.3905 61.8156 15.3734 61.7625 15.3644 61.7067C15.3608 61.6977 15.3608 61.6923 15.3608 61.6833H15.3581C15.3491 61.6365 15.3464 61.5888 15.3464 61.5384V56.9304C15.3464 56.88 15.3491 56.8332 15.3581 56.7864C15.4256 56.394 15.7703 56.0907 16.1879 56.0907H48.0434C48.4592 56.0907 48.8066 56.394 48.8705 56.7864C48.8831 56.8332 48.8858 56.88 48.8858 56.9304Z" fill="#FC9F21"/>
<path fill-rule="evenodd" clip-rule="evenodd" d="M18.2754 62.3786H21.105V56.0912H18.2754V62.3786Z" fill="#FCEE21"/>
<path fill-rule="evenodd" clip-rule="evenodd" d="M22.8223 62.3786H25.6492V56.0912H22.8223V62.3786Z" fill="#FCEE21"/>
<path fill-rule="evenodd" clip-rule="evenodd" d="M38.8818 62.3777H45.954V56.0912H38.8818V62.3777Z" fill="#FCEE21"/>
<path fill-rule="evenodd" clip-rule="evenodd" d="M48.871 56.7862H15.3586C15.4261 56.3938 15.7708 56.0914 16.1884 56.0914H48.0439C48.4588 56.0914 48.8062 56.3938 48.871 56.7862Z" fill="#FCCB21"/>
<path fill-rule="evenodd" clip-rule="evenodd" d="M48.871 61.6835C48.862 61.733 48.8503 61.7798 48.8332 61.8275C48.8269 61.8482 48.8179 61.868 48.8098 61.8896C48.7441 62.0273 48.6415 62.1488 48.5146 62.2334C48.4912 62.2478 48.4678 62.2631 48.4444 62.2748C48.421 62.2892 48.3976 62.3018 48.3706 62.3099C48.3472 62.3216 48.3211 62.3306 48.2941 62.3396C48.2734 62.345 48.2563 62.3513 48.2356 62.354C48.1771 62.3693 48.1114 62.3774 48.0439 62.3774H16.1884C16.1263 62.3774 16.0678 62.372 16.0084 62.3567C15.985 62.354 15.9616 62.3477 15.9382 62.3396C15.9112 62.3306 15.8851 62.3216 15.8617 62.3099C15.8122 62.2892 15.7645 62.2631 15.7177 62.2334C15.697 62.219 15.6736 62.201 15.6529 62.1866C15.6322 62.1713 15.6142 62.1533 15.5935 62.1308C15.5764 62.1128 15.5611 62.0948 15.544 62.0768C15.5377 62.075 15.535 62.0687 15.5323 62.0624C15.517 62.0444 15.5026 62.0273 15.4909 62.0066C15.4729 61.9859 15.4612 61.9634 15.4495 61.9391C15.4351 61.9157 15.4234 61.8914 15.4117 61.868C15.391 61.8149 15.373 61.7627 15.364 61.706C15.3613 61.6979 15.3586 61.6925 15.3586 61.6835H48.871Z" fill="#FCCB21"/>
<path fill-rule="evenodd" clip-rule="evenodd" d="M47.6441 55.2525C47.6441 55.3029 47.6342 55.347 47.6261 55.3938H47.6288C47.6261 55.4172 47.6207 55.4379 47.6171 55.4613C47.6117 55.473 47.6081 55.4883 47.6054 55.4991C47.5937 55.5342 47.5793 55.5711 47.5649 55.6062C47.5496 55.635 47.5352 55.6647 47.5172 55.6908C47.5082 55.7025 47.4992 55.7178 47.4911 55.7286C47.4173 55.8375 47.3174 55.9266 47.1995 55.9905C47.1761 56.0031 47.1527 56.0148 47.1293 56.0229C47.105 56.0355 47.0789 56.0445 47.0519 56.0535C47.0321 56.0589 47.0141 56.0643 46.9934 56.067C46.9349 56.0823 46.8701 56.0913 46.8017 56.0913H14.9462C14.885 56.0913 14.8256 56.0859 14.7671 56.0706C14.7428 56.067 14.7194 56.0616 14.696 56.0535C14.6699 56.0445 14.6438 56.0355 14.6195 56.0229C14.5934 56.0148 14.5691 56.0031 14.5466 55.9878C14.5223 55.977 14.4989 55.9617 14.4755 55.9464C14.4548 55.932 14.4314 55.914 14.4107 55.9005C14.39 55.8816 14.3729 55.8645 14.3522 55.8438C14.3342 55.8267 14.3198 55.8087 14.3018 55.7916C14.2082 55.6791 14.1425 55.5432 14.1164 55.3938C14.1074 55.3461 14.1047 55.2993 14.1047 55.2525V50.6436C14.1047 50.5932 14.1074 50.5464 14.1164 50.4996C14.1839 50.1045 14.5286 49.8048 14.9462 49.8048H46.8017C47.2166 49.8048 47.5649 50.1045 47.6288 50.4996C47.6414 50.5464 47.6441 50.5932 47.6441 50.6436V55.2525Z" fill="#FC9F21"/>
<path fill-rule="evenodd" clip-rule="evenodd" d="M17.0325 56.0912H19.863V49.8038H17.0325V56.0912Z" fill="#FCEE21"/>
<path fill-rule="evenodd" clip-rule="evenodd" d="M21.5801 56.0912H24.407V49.8038H21.5801V56.0912Z" fill="#FCEE21"/>
<path fill-rule="evenodd" clip-rule="evenodd" d="M37.6406 56.0912H44.7128V49.8038H37.6406V56.0912Z" fill="#FCEE21"/>
<path fill-rule="evenodd" clip-rule="evenodd" d="M47.6291 50.4994H14.1167C14.1842 50.1052 14.5289 49.8055 14.9465 49.8055H46.802C47.2169 49.8055 47.5643 50.1052 47.6291 50.4994Z" fill="#FCCB21"/>
<path fill-rule="evenodd" clip-rule="evenodd" d="M47.6291 55.394C47.6264 55.4165 47.6201 55.4381 47.6174 55.4615C47.6111 55.4732 47.6084 55.4876 47.6057 55.4993C47.594 55.5344 47.5787 55.5704 47.5643 55.6055C47.5499 55.6352 47.5355 55.6649 47.5175 55.691C47.5085 55.7027 47.4995 55.7171 47.4905 55.7288C47.4176 55.8377 47.3168 55.9268 47.1989 55.9907C47.1764 56.0033 47.1521 56.0141 47.1287 56.0231C47.1053 56.0357 47.0792 56.0447 47.0522 56.0528C47.0315 56.0582 47.0135 56.0645 46.9928 56.0672C46.9352 56.0825 46.8695 56.0906 46.802 56.0906H14.9465C14.8844 56.0906 14.8259 56.0861 14.7665 56.0708C14.7431 56.0672 14.7197 56.0618 14.6963 56.0528C14.6693 56.0447 14.6432 56.0357 14.6198 56.0231C14.5928 56.0141 14.5694 56.0033 14.546 55.988C14.5226 55.9763 14.4992 55.9619 14.4758 55.9466C14.4551 55.9322 14.4317 55.9142 14.411 55.8998C14.3903 55.8818 14.3723 55.8638 14.3516 55.844C14.3345 55.826 14.3192 55.8089 14.3021 55.7909C14.2076 55.6784 14.1428 55.5434 14.1167 55.394H47.6291Z" fill="#FCCB21"/>
<path fill-rule="evenodd" clip-rule="evenodd" d="M48.8858 48.9658C48.8858 49.0161 48.8759 49.0612 48.8678 49.1071H48.8705C48.8678 49.1314 48.8624 49.1512 48.8588 49.1746C48.8534 49.1872 48.8498 49.2016 48.848 49.2133C48.8354 49.2484 48.821 49.2844 48.8066 49.3195C48.7913 49.3492 48.7769 49.378 48.7589 49.4041C48.7508 49.4167 48.7418 49.431 48.7328 49.4427C48.659 49.5517 48.5591 49.6399 48.4412 49.7047C48.4178 49.7164 48.3944 49.729 48.371 49.7371C48.3467 49.7488 48.3206 49.7578 48.2945 49.7668C48.2738 49.7722 48.2558 49.7785 48.2351 49.7812C48.1766 49.7965 48.1118 49.8054 48.0434 49.8054H16.1879C16.1267 49.8054 16.0673 49.7991 16.0088 49.7839C15.9854 49.7812 15.9611 49.7749 15.9377 49.7668C15.9116 49.7578 15.8855 49.7488 15.8612 49.7371C15.8351 49.729 15.8117 49.7164 15.7883 49.702C15.764 49.6902 15.7406 49.675 15.7172 49.6606C15.6965 49.6462 15.6731 49.6281 15.6524 49.6137C15.6317 49.5957 15.6146 49.5786 15.5939 49.5571C15.5759 49.54 15.5615 49.522 15.5435 49.5049C15.4499 49.3933 15.3842 49.2574 15.3581 49.1071C15.3491 49.0603 15.3464 49.0135 15.3464 48.9658V44.3542C15.3464 44.3074 15.3491 44.2579 15.3581 44.2129C15.4256 43.8187 15.7703 43.5154 16.1879 43.5154H48.0434C48.4592 43.5154 48.8066 43.8187 48.8705 44.2129C48.8831 44.2579 48.8858 44.3074 48.8858 44.3542V48.9658Z" fill="#FC9F21"/>
<path fill-rule="evenodd" clip-rule="evenodd" d="M18.2754 49.8029H21.105V43.5164H18.2754V49.8029Z" fill="#FCEE21"/>
<path fill-rule="evenodd" clip-rule="evenodd" d="M22.8223 49.8029H25.6492V43.5164H22.8223V49.8029Z" fill="#FCEE21"/>
<path fill-rule="evenodd" clip-rule="evenodd" d="M38.8828 49.8029H45.955V43.5164H38.8828V49.8029Z" fill="#FCEE21"/>
<path fill-rule="evenodd" clip-rule="evenodd" d="M48.871 44.2126H15.3586C15.4261 43.8193 15.7708 43.516 16.1884 43.516H48.0439C48.4588 43.516 48.8062 43.8193 48.871 44.2126Z" fill="#FCCB21"/>
<path fill-rule="evenodd" clip-rule="evenodd" d="M48.871 49.1072C48.8683 49.1306 48.862 49.1513 48.8593 49.1747C48.853 49.1873 48.8503 49.2008 48.8476 49.2134C48.8359 49.2485 48.8206 49.2836 48.8062 49.3187C48.7918 49.3493 48.7774 49.3781 48.7594 49.4042C48.7504 49.4168 48.7414 49.4303 48.7333 49.4429C48.6595 49.5518 48.5587 49.64 48.4408 49.7048C48.4183 49.7165 48.394 49.7282 48.3706 49.7372C48.3472 49.7489 48.3211 49.7579 48.2941 49.766C48.2734 49.7723 48.2563 49.7786 48.2356 49.7813C48.1771 49.7966 48.1114 49.8047 48.0439 49.8047H16.1884C16.1263 49.8047 16.0678 49.7993 16.0084 49.784C15.985 49.7813 15.9616 49.775 15.9382 49.766C15.9112 49.7579 15.8851 49.7489 15.8617 49.7372C15.8347 49.7282 15.8122 49.7165 15.7879 49.7021C15.7645 49.6895 15.7411 49.6751 15.7177 49.6607C15.697 49.6463 15.6736 49.6283 15.6529 49.613C15.6322 49.5959 15.6142 49.5779 15.5935 49.5572C15.5764 49.5392 15.5611 49.5221 15.544 49.5041C15.4495 49.3925 15.3847 49.2575 15.3586 49.1072H48.871Z" fill="#FCCB21"/>
<path fill-rule="evenodd" clip-rule="evenodd" d="M51.5665 38.0682V42.6771C51.5665 42.7266 51.5638 42.7743 51.5521 42.8211C51.5485 42.8445 51.544 42.8652 51.5404 42.8886C51.5287 42.9291 51.5134 42.9678 51.499 43.0065C51.49 43.0299 51.4783 43.0533 51.4639 43.0767C51.3811 43.2324 51.2488 43.3566 51.0877 43.4331C51.0661 43.4421 51.0463 43.4502 51.0247 43.4592C51.0112 43.4655 50.9923 43.4718 50.9752 43.4772C50.9518 43.4862 50.9284 43.4916 50.905 43.4943C50.8456 43.5096 50.7871 43.5159 50.725 43.5159H18.8695C18.8074 43.5159 18.7489 43.5096 18.6895 43.4943C18.6661 43.4916 18.6427 43.4862 18.6193 43.4772C18.5401 43.4538 18.4663 43.4178 18.3979 43.3719C18.3754 43.3566 18.3547 43.3386 18.334 43.3242C18.3133 43.3089 18.2953 43.2918 18.2746 43.2684C18.2575 43.2504 18.2422 43.2324 18.2251 43.2153C18.2188 43.2126 18.2161 43.2063 18.2125 43.2009C18.1981 43.1829 18.1837 43.1649 18.172 43.1451C18.154 43.1244 18.1423 43.101 18.1306 43.0767C18.1045 43.0299 18.0802 42.9795 18.0658 42.9264C18.0568 42.9003 18.0514 42.8742 18.0451 42.8481C18.0424 42.8391 18.0397 42.8301 18.0397 42.8211C18.0307 42.7743 18.0271 42.7266 18.0271 42.6771V38.0682C18.0271 38.0178 18.0307 37.971 18.0397 37.9242C18.0685 37.7478 18.1603 37.5858 18.2836 37.4643C18.3484 37.4031 18.4186 37.3527 18.4987 37.314C18.6103 37.2618 18.7363 37.2285 18.8695 37.2285H50.725C51.1399 37.2285 51.4873 37.5318 51.5521 37.9242C51.5638 37.971 51.5665 38.0178 51.5665 38.0682Z" fill="#FC9F21"/>
<path fill-rule="evenodd" clip-rule="evenodd" d="M20.9565 43.5164H23.7861V37.229H20.9565V43.5164Z" fill="#FCEE21"/>
<path fill-rule="evenodd" clip-rule="evenodd" d="M25.5034 43.5164H28.3303V37.229H25.5034V43.5164Z" fill="#FCEE21"/>
<path fill-rule="evenodd" clip-rule="evenodd" d="M41.563 43.5155H48.6352V37.229H41.563V43.5155Z" fill="#FCEE21"/>
<path fill-rule="evenodd" clip-rule="evenodd" d="M51.5516 37.9249H18.041C18.1067 37.5316 18.4514 37.2292 18.8681 37.2292H50.7245C51.1412 37.2292 51.4868 37.5316 51.5516 37.9249Z" fill="#FCCB21"/>
<path fill-rule="evenodd" clip-rule="evenodd" d="M51.5524 42.8213C51.5488 42.8438 51.5434 42.8654 51.5398 42.8888C51.529 42.9293 51.5137 42.968 51.4984 43.0067C51.4903 43.0292 51.4786 43.0535 51.4633 43.0769C51.3814 43.2326 51.2491 43.3568 51.0871 43.4333C51.0664 43.4414 51.0466 43.4504 51.025 43.4594C51.0106 43.4657 50.9926 43.472 50.9746 43.4774C50.9521 43.4855 50.9287 43.4918 50.9044 43.4945C50.8459 43.5098 50.7865 43.5152 50.7253 43.5152H18.8698C18.8077 43.5152 18.7483 43.5098 18.6898 43.4945C18.6664 43.4918 18.643 43.4855 18.6196 43.4774C18.5395 43.454 18.4657 43.418 18.3982 43.3712C18.3748 43.3568 18.3541 43.3388 18.3334 43.3244C18.3127 43.3091 18.2956 43.2911 18.2749 43.2686C18.2569 43.2506 18.2425 43.2326 18.2245 43.2146C18.2191 43.2128 18.2155 43.2065 18.2128 43.2011C18.1984 43.1822 18.1831 43.1651 18.1723 43.1444C18.1543 43.1246 18.1426 43.1012 18.1309 43.0769C18.1039 43.0292 18.0805 42.9797 18.0661 42.9266C18.0571 42.9005 18.0508 42.8744 18.0454 42.8474C18.0427 42.8393 18.0391 42.8303 18.0391 42.8213H51.5524Z" fill="#FCCB21"/>
<path fill-rule="evenodd" clip-rule="evenodd" d="M51.1438 4.64903C48.6112 5.32133 48.0667 5.86583 47.3944 8.39843C46.7221 5.86583 46.1776 5.32133 43.645 4.64903C46.1776 3.97673 46.7221 3.43223 47.3944 0.899628C48.0667 3.43223 48.6112 3.97673 51.1438 4.64903Z" fill="white"/>
<path fill-rule="evenodd" clip-rule="evenodd" d="M12.6803 33.3014C11.0396 33.7361 10.6868 34.0889 10.2512 35.7296C9.8165 34.0889 9.4637 33.7361 7.823 33.3014C9.4637 32.8658 9.8165 32.513 10.2512 30.8723C10.6868 32.513 11.0396 32.8658 12.6803 33.3014Z" fill="white"/>
<path fill-rule="evenodd" clip-rule="evenodd" d="M15.1012 30.5799C14.0473 30.8598 13.8205 31.0857 13.5406 32.1405C13.2616 31.0857 13.0348 30.8598 11.98 30.5799C13.0348 30.3 13.2616 30.0732 13.5406 29.0193C13.8205 30.0732 14.0473 30.3 15.1012 30.5799Z" fill="white"/>
<path fill-rule="evenodd" clip-rule="evenodd" d="M72.4828 16.4844V21.0933C72.4828 21.1428 72.4792 21.1905 72.4675 21.2373C72.4648 21.2607 72.4594 21.2814 72.4567 21.3048C72.4441 21.3462 72.4288 21.384 72.4153 21.4227C72.4063 21.4461 72.3937 21.4704 72.3793 21.4929C72.2974 21.6495 72.1642 21.7728 72.0031 21.8493C71.9815 21.8583 71.9617 21.8673 71.941 21.8763C71.9266 21.8817 71.9086 21.888 71.8915 21.8934C71.8672 21.9024 71.8438 21.9087 71.8204 21.9114C71.761 21.9258 71.7025 21.9321 71.6404 21.9321H39.7849C39.7237 21.9321 39.6643 21.9258 39.6058 21.9114C39.5815 21.9087 39.5581 21.9024 39.5347 21.8934C39.4555 21.87 39.3817 21.8349 39.3142 21.7881C39.2908 21.7728 39.2701 21.7548 39.2494 21.7404C39.2287 21.726 39.2107 21.708 39.1909 21.6846C39.1729 21.6666 39.1585 21.6495 39.1405 21.6315C39.1342 21.6288 39.1315 21.6225 39.1288 21.6171C39.1135 21.5991 39.0991 21.582 39.0874 21.5613C39.0703 21.5406 39.0577 21.5172 39.046 21.4929C39.0199 21.4461 38.9956 21.3966 38.9812 21.3435C38.9731 21.3165 38.9668 21.2904 38.9605 21.2643C38.9578 21.2553 38.9551 21.2463 38.9551 21.2373C38.9461 21.1905 38.9434 21.1428 38.9434 21.0933V16.4844C38.9434 16.434 38.9461 16.3872 38.9551 16.3404C38.9848 16.164 39.0757 16.0011 39.1999 15.8814C39.2638 15.8193 39.3349 15.7689 39.4141 15.7311C39.5257 15.678 39.6526 15.6456 39.7849 15.6456H71.6404C72.0553 15.6456 72.4027 15.9489 72.4675 16.3404C72.4792 16.3872 72.4828 16.434 72.4828 16.4844Z" fill="#FC9F21"/>
<path fill-rule="evenodd" clip-rule="evenodd" d="M41.8716 21.9326H44.7021V15.6452H41.8716V21.9326Z" fill="#FCEE21"/>
<path fill-rule="evenodd" clip-rule="evenodd" d="M46.4192 21.9326H49.2461V15.6452H46.4192V21.9326Z" fill="#FCEE21"/>
<path fill-rule="evenodd" clip-rule="evenodd" d="M62.4797 21.9317H69.5519V15.6452H62.4797V21.9317Z" fill="#FCEE21"/>
<path fill-rule="evenodd" clip-rule="evenodd" d="M72.4669 16.3412H38.9563C39.022 15.9479 39.3676 15.6455 39.7834 15.6455H71.6398C72.0565 15.6455 72.4021 15.9479 72.4669 16.3412Z" fill="#FCCB21"/>
<path fill-rule="evenodd" clip-rule="evenodd" d="M72.4677 21.2376C72.465 21.261 72.4587 21.2817 72.456 21.3051C72.4443 21.3465 72.429 21.3843 72.4146 21.423C72.4065 21.4464 72.3939 21.4698 72.3786 21.4932C72.2976 21.6498 72.1644 21.7731 72.0024 21.8496C71.9817 21.8586 71.9619 21.8676 71.9412 21.8757C71.9259 21.882 71.9088 21.8883 71.8908 21.8937C71.8674 21.9027 71.844 21.909 71.8197 21.9117C71.7612 21.9261 71.7018 21.9315 71.6406 21.9315H39.7851C39.723 21.9315 39.6645 21.9261 39.6051 21.9117C39.5817 21.909 39.5583 21.9027 39.5349 21.8937C39.4548 21.8703 39.3819 21.8352 39.3144 21.7875C39.2901 21.7731 39.2694 21.7551 39.2487 21.7407C39.2289 21.7254 39.2109 21.7083 39.1902 21.6849C39.1722 21.6669 39.1578 21.6498 39.1407 21.6318C39.1344 21.6291 39.1317 21.6228 39.129 21.6174C39.1137 21.5994 39.0993 21.5814 39.0876 21.5607C39.0696 21.54 39.0579 21.5175 39.0462 21.4932C39.0192 21.4464 38.9958 21.396 38.9814 21.3438C38.9724 21.3168 38.967 21.2907 38.9607 21.2637C38.958 21.2556 38.9553 21.2466 38.9553 21.2376H72.4677Z" fill="#FCCB21"/>
<path fill-rule="evenodd" clip-rule="evenodd" d="M74.6334 10.1967V14.8056C74.6334 14.856 74.6298 14.9028 74.6181 14.9496C74.6154 14.9739 74.61 14.9946 74.6073 15.0171C74.5947 15.0585 74.5803 15.0972 74.5659 15.135C74.5569 15.1593 74.5443 15.1827 74.5308 15.2061C74.448 15.3618 74.3148 15.4851 74.1537 15.5616C74.1321 15.5706 74.1123 15.5796 74.0916 15.5886C74.0772 15.5949 74.0592 15.6003 74.0421 15.6066C74.0178 15.6156 73.9944 15.621 73.971 15.6237C73.9116 15.6381 73.8531 15.6444 73.791 15.6444H41.9355C41.8743 15.6444 41.8149 15.6381 41.7564 15.6237C41.7321 15.621 41.7087 15.6156 41.6853 15.6066C41.6061 15.5823 41.5323 15.5472 41.4648 15.5004C41.4414 15.4851 41.4207 15.468 41.4 15.4536C41.3793 15.4383 41.3622 15.4212 41.3415 15.3969C41.3235 15.3798 41.3091 15.3618 41.2911 15.3447C41.2857 15.3411 41.2821 15.3357 41.2794 15.3294C41.265 15.3123 41.2497 15.2943 41.238 15.2736C41.2209 15.2529 41.2083 15.2295 41.1975 15.2061C41.1705 15.1593 41.1471 15.1089 41.1318 15.0558C41.1237 15.0297 41.1174 15.0027 41.1111 14.9766C41.1084 14.9676 41.1057 14.9586 41.1057 14.9496C41.0967 14.9028 41.094 14.856 41.094 14.8056V10.1967C41.094 10.1472 41.0967 10.0995 41.1057 10.0527C41.1354 9.87631 41.2263 9.71431 41.3505 9.59371C41.4144 9.53161 41.4855 9.48211 41.5647 9.44341C41.6763 9.39031 41.8032 9.35791 41.9355 9.35791H73.791C74.2059 9.35791 74.5533 9.66121 74.6181 10.0527C74.6298 10.0995 74.6334 10.1472 74.6334 10.1967Z" fill="#FC9F21"/>
<path fill-rule="evenodd" clip-rule="evenodd" d="M44.0217 15.6452H46.8522V9.35782H44.0217V15.6452Z" fill="#FCEE21"/>
<path fill-rule="evenodd" clip-rule="evenodd" d="M48.5703 15.6452H51.3972V9.35782H48.5703V15.6452Z" fill="#FCEE21"/>
<path fill-rule="evenodd" clip-rule="evenodd" d="M64.6299 15.6443H71.7021V9.35782H64.6299V15.6443Z" fill="#FCEE21"/>
<path fill-rule="evenodd" clip-rule="evenodd" d="M74.6184 10.0539H41.1069C41.1726 9.66059 41.5182 9.35819 41.934 9.35819H73.7904C74.2071 9.35819 74.5527 9.66059 74.6184 10.0539Z" fill="#FCCB21"/>
<path fill-rule="evenodd" clip-rule="evenodd" d="M74.6186 14.9499C74.6159 14.9733 74.6096 14.994 74.6069 15.0174C74.5952 15.0588 74.5808 15.0975 74.5655 15.1353C74.5574 15.1587 74.5448 15.1821 74.5304 15.2064C74.4485 15.3621 74.3153 15.4854 74.1533 15.5619C74.1326 15.5709 74.1128 15.5799 74.0921 15.5889C74.0768 15.5943 74.0597 15.6006 74.0417 15.606C74.0183 15.615 73.9949 15.6213 73.9706 15.624C73.9121 15.6384 73.8527 15.6447 73.7915 15.6447H41.936C41.8739 15.6447 41.8154 15.6384 41.756 15.624C41.7326 15.6213 41.7092 15.615 41.6858 15.606C41.6066 15.5826 41.5328 15.5475 41.4653 15.5007C41.441 15.4854 41.4212 15.4683 41.4005 15.4539C41.3798 15.4386 41.3618 15.4206 41.3411 15.3972C41.324 15.3801 41.3087 15.3621 41.2916 15.3441C41.2853 15.3414 41.2826 15.336 41.2799 15.3297C41.2646 15.3117 41.2502 15.2946 41.2385 15.2739C41.2205 15.2532 41.2088 15.2298 41.1971 15.2064C41.1701 15.1587 41.1476 15.1092 41.1323 15.0561C41.1233 15.0291 41.1179 15.003 41.1116 14.9769C41.1089 14.9679 41.1062 14.9589 41.1062 14.9499H74.6186Z" fill="#FCCB21"/>
<path fill-rule="evenodd" clip-rule="evenodd" d="M70.6107 2.57489L70.9086 7.17569C70.9383 7.63649 70.5882 8.03699 70.1238 8.06669L38.334 10.1268C37.8696 10.1565 37.4691 9.80549 37.4394 9.34379L37.1415 4.74389C37.1388 4.69529 37.1379 4.64669 37.1469 4.60079C37.1865 4.20389 37.5114 3.87899 37.9272 3.85199L69.717 1.79279C70.1328 1.76579 70.4964 2.04479 70.5882 2.43359C70.6017 2.47859 70.608 2.52629 70.6107 2.57489Z" fill="#FC9F21"/>
<path fill-rule="evenodd" clip-rule="evenodd" d="M42.8349 3.53464L43.2417 9.80854L40.4175 9.99124L40.0107 3.71734L42.8349 3.53464Z" fill="#FCEE21"/>
<path fill-rule="evenodd" clip-rule="evenodd" d="M47.3696 3.24063L47.7764 9.51453L44.9549 9.69723L44.5481 3.42333L47.3696 3.24063Z" fill="#FCEE21"/>
<path fill-rule="evenodd" clip-rule="evenodd" d="M67.6328 1.92752L68.0396 8.20142L60.9818 8.65862L60.5759 2.38472L67.6328 1.92752Z" fill="#FCEE21"/>
<path fill-rule="evenodd" clip-rule="evenodd" d="M70.5878 2.43377L37.1465 4.60097C37.187 4.20317 37.5119 3.87917 37.9268 3.85217L69.7166 1.79297C70.1324 1.76597 70.496 2.04497 70.5878 2.43377Z" fill="#FCCB21"/>
<path fill-rule="evenodd" clip-rule="evenodd" d="M37.4631 9.48571L70.9044 7.31851C70.8639 7.71541 70.539 8.04031 70.1241 8.06641L38.3334 10.1265C37.9176 10.1535 37.554 9.87451 37.4631 9.48571Z" fill="#FCCB21"/>
<mask id="mask4" mask-type="alpha" maskUnits="userSpaceOnUse" x="16" y="22" width="65" height="15">
<path fill-rule="evenodd" clip-rule="evenodd" d="M77.3713 22.0352L19.6615 23.3546C18.0703 23.3906 16.8112 24.7091 16.8472 26.2994L17.0263 34.115C17.0623 35.7044 18.3817 36.9644 19.9711 36.9284L77.6827 35.6081C79.2721 35.5721 80.5321 34.2527 80.4952 32.6624L80.3161 24.8477C80.281 23.2808 78.9994 22.0343 77.4388 22.0343C77.4163 22.0343 77.3938 22.0343 77.3713 22.0352Z" fill="white"/>
</mask>
<g mask="url(#mask4)">
<path fill-rule="evenodd" clip-rule="evenodd" d="M77.3713 22.0352L19.6615 23.3546C18.0703 23.3906 16.8112 24.7091 16.8472 26.2994L17.0263 34.115C17.0623 35.7044 18.3817 36.9644 19.9711 36.9284L77.6827 35.6081C79.2721 35.5721 80.5321 34.2527 80.4952 32.6624L80.3161 24.8477C80.281 23.2808 78.9994 22.0343 77.4388 22.0343C77.4163 22.0343 77.3938 22.0343 77.3713 22.0352Z" fill="url(#paint1_linear)"/>
</g>
<path fill-rule="evenodd" clip-rule="evenodd" d="M31.8198 27.2089L30.9415 27.2287L30.9973 29.638L31.7325 29.6209C32.6578 29.5993 33.1699 29.1502 33.1518 28.3771C33.1348 27.64 32.6263 27.19 31.8198 27.2089ZM24.43 27.3781L23.6947 27.3952L23.7505 29.8378L24.4507 29.8216C25.3876 29.8 25.9222 29.35 25.9042 28.5778C25.8871 27.8173 25.3192 27.3583 24.43 27.3781ZM55.6563 25.3603L55.8319 33.0481L54.2074 33.085L54.0319 25.3981L55.6563 25.3603ZM41.1843 25.6915L41.2141 26.983L38.4384 27.046L38.4816 28.936L41.2572 28.873L41.2869 30.1636L38.5114 30.2275L38.5555 32.1517L41.3302 32.0878L41.3598 33.3793L36.9598 33.4801L36.7843 25.7923L41.1843 25.6915ZM31.7308 25.9075C33.6883 25.8634 34.7629 26.6806 34.7989 28.2592C34.8268 29.4697 34.1923 30.2905 32.9773 30.619L35.2282 33.5188L33.259 33.5638L31.018 30.5596L31.0882 33.6133L29.4637 33.6511L29.2882 25.9642L31.7308 25.9075ZM24.5659 26.0713C26.4397 26.029 27.5152 26.8921 27.5512 28.4599C27.5881 30.061 26.5315 31.0771 24.7882 31.1176L23.7802 31.141L23.8405 33.7798L22.2151 33.8167L22.0396 26.1298L24.5659 26.0713ZM59.5111 25.273L59.6137 29.7784C59.6307 30.493 59.7342 30.8836 60.0024 31.177C60.2454 31.4596 60.6775 31.6342 61.1166 31.6243C61.5793 31.6135 62.0247 31.3957 62.2542 31.0681C62.4846 30.7513 62.5476 30.4156 62.5323 29.701L62.4289 25.2055L64.0659 25.1686L64.1677 29.6173C64.1929 30.7468 63.9616 31.5361 63.4413 32.1247C62.9212 32.7133 62.0985 33.0544 61.1734 33.076C60.2122 33.0976 59.3265 32.7718 58.7551 32.1742C58.2331 31.6324 58.0153 30.9457 57.9883 29.7586L57.8857 25.3099L59.5111 25.273ZM68.1474 25.075L70.6134 29.6884L72.8797 24.967L74.7174 24.9247L74.893 32.6116L73.2676 32.6494L73.1586 27.8551L70.6881 32.9392L67.9999 27.973L68.1087 32.7673L66.4842 32.8042L66.3088 25.1173L68.1474 25.075ZM45.0984 25.6024L47.5662 30.2158L49.8316 25.4935L51.6693 25.4521L51.8449 33.139L50.2204 33.1759L50.1105 28.3816L47.641 33.4657L44.9517 28.5004L45.0616 33.2947L43.4362 33.3316L43.2607 25.6438L45.0984 25.6024Z" fill="black"/>
<path fill-rule="evenodd" clip-rule="evenodd" d="M51.9287 34.2291V34.6962C51.9287 34.734 51.926 34.7691 51.917 34.8051C51.9152 34.8222 51.9098 34.8384 51.9089 34.8555C51.8999 34.887 51.8882 34.9167 51.8765 34.9455C51.8711 34.9626 51.8621 34.9806 51.8504 34.9986C51.7883 35.1165 51.6875 35.211 51.5651 35.2686C51.5489 35.2749 51.5345 35.2821 51.5183 35.2893C51.5066 35.2938 51.494 35.2974 51.4805 35.3019C51.4616 35.3082 51.4445 35.3127 51.4265 35.3154C51.3824 35.3271 51.3374 35.3316 51.2906 35.3316H49.2584C49.5734 35.3316 49.8362 35.5602 49.8857 35.8599C49.8947 35.8932 49.8965 35.931 49.8965 35.967V39.4608C49.8965 39.4986 49.8893 39.5346 49.883 39.5688H49.8857C49.8839 39.5868 49.8785 39.6021 49.8767 39.6201C49.8722 39.6291 49.8695 39.6408 49.8677 39.6489C49.8587 39.6759 49.847 39.7029 49.8362 39.729C49.8254 39.7515 49.8137 39.774 49.8011 39.7947C49.7939 39.8028 49.7876 39.8136 49.7804 39.8235C49.7246 39.9063 49.649 39.9729 49.5599 40.0215C49.5419 40.0305 49.5239 40.0395 49.5068 40.0458C49.4888 40.0557 49.469 40.0611 49.4483 40.0683C49.433 40.0728 49.4195 40.0773 49.4033 40.0791C49.3592 40.0908 49.3097 40.098 49.2584 40.098H48.3179C48.632 40.098 48.8948 40.3248 48.9443 40.6236C48.9533 40.6596 48.9551 40.6956 48.9551 40.7334V44.2254C48.9551 44.2632 48.9479 44.2983 48.9416 44.3334H48.9443C48.9425 44.3505 48.938 44.3667 48.9353 44.3838C48.9308 44.3928 48.929 44.4045 48.9263 44.4126C48.9173 44.4396 48.9065 44.4666 48.8948 44.4927C48.884 44.5161 48.8723 44.5377 48.8597 44.5584C48.8534 44.5665 48.8462 44.5782 48.839 44.5872C48.7832 44.67 48.7076 44.7366 48.6185 44.7852C48.6005 44.7942 48.5834 44.8032 48.5654 44.8104C48.5474 44.8194 48.5276 44.8257 48.5069 44.832C48.4916 44.8365 48.4781 44.841 48.4628 44.8437C48.4178 44.8545 48.3683 44.8608 48.3179 44.8608H49.2584C49.5734 44.8608 49.8362 45.0903 49.8857 45.3873C49.8947 45.4233 49.8965 45.4593 49.8965 45.4971V48.9891C49.8965 49.0269 49.8947 49.0629 49.8857 49.0989C49.8785 49.1367 49.8695 49.1727 49.8569 49.2087C49.8515 49.224 49.8452 49.2393 49.8389 49.2546C49.7894 49.3599 49.712 49.4517 49.6157 49.5156C49.5977 49.5273 49.5797 49.539 49.5626 49.548C49.5446 49.5579 49.5266 49.5678 49.5068 49.5741C49.4888 49.5831 49.469 49.5894 49.4483 49.5957C49.433 49.6011 49.4195 49.6056 49.4033 49.6074C49.3592 49.6191 49.3097 49.6245 49.2584 49.6245H47.0372C47.354 49.6245 47.615 49.8549 47.6645 50.1537C47.6726 50.187 47.6753 50.2248 47.6753 50.2608V53.7555C47.6753 53.8122 47.669 53.8671 47.6528 53.9184C47.6438 53.9544 47.6312 53.9904 47.615 54.0237C47.5925 54.075 47.561 54.1218 47.5259 54.1641C47.5124 54.1776 47.5016 54.1911 47.4881 54.2037C47.4719 54.2199 47.4566 54.2334 47.4431 54.246C47.4278 54.2577 47.4098 54.2712 47.3945 54.282C47.3765 54.2937 47.3585 54.3045 47.3405 54.3135C47.3054 54.336 47.2667 54.3513 47.2271 54.3621C47.2091 54.3693 47.1911 54.3738 47.1731 54.3765C47.129 54.3864 47.084 54.3909 47.0372 54.3909H47.9984C48.3134 54.3909 48.5735 54.6186 48.6257 54.9174C48.632 54.9534 48.6338 54.9894 48.6338 55.0272V58.5201C48.6338 58.5552 48.632 58.5912 48.6257 58.6263C48.614 58.6875 48.596 58.7424 48.5717 58.7964C48.5654 58.8099 48.5582 58.8234 48.5501 58.8342C48.4844 58.9485 48.3863 59.0394 48.2666 59.0952C48.2531 59.1024 48.2396 59.1087 48.2261 59.1132C48.2126 59.1177 48.2018 59.1222 48.1883 59.1267C48.1703 59.133 48.1523 59.1384 48.1352 59.1402C48.0902 59.151 48.0452 59.1555 47.9984 59.1555H46.1831C46.4999 59.1555 46.7609 59.385 46.8104 59.682C46.8185 59.7171 46.8212 59.7531 46.8212 59.7909V63.2838C46.8212 63.3216 46.8185 63.3576 46.8104 63.3927C46.8077 63.4116 46.8032 63.426 46.8014 63.4449C46.7915 63.4755 46.7807 63.5043 46.7699 63.534C46.7627 63.5511 46.7537 63.57 46.7429 63.5871C46.6646 63.732 46.5332 63.8409 46.373 63.8904C46.355 63.8976 46.337 63.9021 46.319 63.9039C46.2749 63.9147 46.2299 63.9192 46.1831 63.9192H41.0756C40.8011 63.7527 40.5338 63.5781 40.2701 63.3927C39.9182 63.1506 39.5744 62.8896 39.2423 62.6169C38.1983 61.761 37.2623 60.7728 36.4613 59.682C36.3335 59.5101 36.2111 59.3346 36.0905 59.1555C35.9744 58.9836 35.861 58.8081 35.7494 58.6263C35.0384 57.4806 34.4669 56.2359 34.061 54.9174C34.0079 54.7437 33.9566 54.5682 33.9098 54.3909C33.8603 54.2154 33.8162 54.039 33.7739 53.8626C33.4922 52.6719 33.3455 51.4317 33.3455 50.1555V50.1537C33.3455 49.9773 33.3473 49.7991 33.3545 49.6245C33.359 49.449 33.3671 49.2735 33.3815 49.0989C33.4634 47.8164 33.6956 46.5717 34.0637 45.3873C34.1168 45.2118 34.1744 45.0354 34.2374 44.8608C34.2977 44.6826 34.3625 44.5071 34.4291 44.3334C34.9466 43.0014 35.6342 41.7567 36.4658 40.6236C36.5972 40.4454 36.7313 40.269 36.8717 40.098C37.0121 39.9162 37.1588 39.7407 37.3127 39.5688C38.6294 38.0568 40.226 36.7941 42.0188 35.8599C42.1169 35.8059 42.2159 35.7564 42.3158 35.7087C42.5831 35.5737 42.8576 35.4486 43.1366 35.3316C43.5308 35.1615 43.9349 35.0076 44.348 34.8699C44.4146 34.8474 44.4812 34.8249 44.5505 34.8051C46.0985 34.3101 47.7464 34.0419 49.4591 34.0419C49.5419 34.0419 49.6247 34.0419 49.7075 34.0437C50.4608 34.0554 51.2015 34.1175 51.9287 34.2291Z" fill="#A5681E"/>
<path fill-rule="evenodd" clip-rule="evenodd" d="M66.8438 49.9316C66.8438 58.8326 59.6285 66.047 50.7284 66.047C41.8283 66.047 34.613 58.8326 34.613 49.9316C34.613 41.0315 41.8283 33.8171 50.7284 33.8171C59.6285 33.8171 66.8438 41.0315 66.8438 49.9316Z" fill="#FCCB21"/>
<path fill-rule="evenodd" clip-rule="evenodd" d="M63.1093 49.9316C63.1093 56.984 57.3916 62.7008 50.3401 62.7008C43.2886 62.7008 37.5718 56.984 37.5718 49.9316C37.5718 42.8801 43.2886 37.1624 50.3401 37.1624C57.3916 37.1624 63.1093 42.8801 63.1093 49.9316Z" fill="#FC9F21"/>
<path fill-rule="evenodd" clip-rule="evenodd" d="M50.3406 37.1629C50.0958 37.1629 49.8528 37.1719 49.6116 37.1845C56.3247 37.5625 61.6527 43.1245 61.6527 49.9321C61.6527 56.7397 56.3247 62.3017 49.6116 62.6788C49.8528 62.6923 50.0958 62.7004 50.3406 62.7004C57.3921 62.7004 63.1098 56.9836 63.1098 49.9321C63.1098 42.8806 57.3921 37.1629 50.3406 37.1629Z" fill="#A5681E"/>
<path fill-rule="evenodd" clip-rule="evenodd" d="M58.7394 49.9316C58.7394 54.5702 54.9783 58.3313 50.3406 58.3313C45.7011 58.3313 41.9409 54.5702 41.9409 49.9316C41.9409 45.293 45.7011 41.5328 50.3406 41.5328C54.9783 41.5328 58.7394 45.293 58.7394 49.9316Z" fill="#FCCB21"/>
<path fill-rule="evenodd" clip-rule="evenodd" d="M53.8859 46.1559V44.9292H48.7604H46.7939V46.1559H48.7604C49.5992 46.1559 50.3111 46.6995 50.5676 47.4519H46.7939V48.6786H50.5676C50.3111 49.4319 49.5992 49.9755 48.7604 49.9755H46.7939V51.2013H47.1881C47.7902 51.2013 48.3815 51.3579 48.899 51.6657C49.8368 52.2228 51.167 53.3739 51.959 55.6464H53.2478C52.481 53.1525 51.1445 51.7296 50.0231 50.9349C50.9438 50.5263 51.6341 49.6911 51.8366 48.6786H53.8859V47.4519H51.8366C51.7394 46.9704 51.5324 46.5303 51.2426 46.1559H53.8859Z" fill="#FC9F21"/>
<defs>
<linearGradient id="paint0_linear" x1="10.6433" y1="9.35242" x2="10.6433" y2="23.1513" gradientUnits="userSpaceOnUse">
<stop stop-color="#E3B941"/>
<stop offset="0.502111" stop-color="#FEDF7B"/>
<stop offset="1" stop-color="#E3B941"/>
</linearGradient>
<linearGradient id="paint1_linear" x1="16.8464" y1="22.0343" x2="16.8464" y2="36.9292" gradientUnits="userSpaceOnUse">
<stop stop-color="#57C7E3"/>
<stop offset="0.470566" stop-color="#86E5F4"/>
<stop offset="1" stop-color="#2EC2ED"/>
<stop offset="1" stop-color="#57C7E3"/>
</linearGradient>
</defs>
</svg>
