<svg width="48" height="48" viewBox="0 0 48 48" fill="none" xmlns="http://www.w3.org/2000/svg">
<circle cx="23.5779" cy="23.5779" r="23.5779" fill="#1F80E0"/>
<path fill-rule="evenodd" clip-rule="evenodd" d="M20.7758 32.244C20.7543 32.244 20.732 32.244 20.7098 32.2432C20.159 32.224 19.6427 31.969 19.2924 31.5434L13.7591 24.8147C13.1207 24.0389 13.0984 22.8727 13.8075 22.1614C14.6225 21.3432 15.9415 21.4231 16.6567 22.292L20.6452 27.1409C20.7674 27.2899 20.9925 27.2976 21.1254 27.157L30.9169 16.7932C31.6067 16.0634 32.7613 15.8936 33.5564 16.5082C34.4713 17.2134 34.5574 18.5332 33.7845 19.3513L22.1717 31.6425C21.8083 32.0274 21.3036 32.244 20.7758 32.244Z" fill="white"/>
</svg>
