<svg xmlns="http://www.w3.org/2000/svg" xmlns:xlink="http://www.w3.org/1999/xlink" width="360" height="355" viewBox="0 0 360 355">
    <defs>
        <circle id="prefix__a" cx="20" cy="20" r="20"/>
        <circle id="prefix__c" cx="20" cy="20" r="20"/>
        <circle id="prefix__e" cx="20" cy="20" r="20"/>
        <circle id="prefix__g" cx="20.8" cy="20.8" r="20.8"/>
        <circle id="prefix__j" cx="19.911" cy="19.911" r="19.911"/>
        <circle id="prefix__l" cx="19.692" cy="19.692" r="19.692"/>
        <circle id="prefix__m" cx="20" cy="20" r="20"/>
        <linearGradient id="prefix__h" x1="20.643%" x2="81.354%" y1="88.674%" y2="12.81%">
            <stop offset="0%" stop-color="#9E2C32"/>
            <stop offset="100%" stop-color="#EC9636"/>
        </linearGradient>
    </defs>
    <g fill="none" fill-rule="evenodd" opacity=".2">
        <path fill="#1F80E0" d="M337.44 12.809l3.31-3.174c.077-.075.077-.195 0-.27l-3.31-3.174c-.314-.3-.314-.786 0-1.086.312-.3.82-.3 1.133 0l4.084 3.916c.276.264.276.693 0 .958l-4.084 3.916c-.314.3-.82.3-1.134 0-.313-.3-.313-.786 0-1.086z" transform="translate(0 -2)"/>
        <text fill="#1F80E0" font-family="Roboto-Medium, Roboto Medium" font-size="12" letter-spacing=".3" transform="translate(0 -2)">
            <tspan x="255.064" y="14">MORE BANKS</tspan>
        </text>
        <text fill="#000" fill-opacity=".9" font-family="Roboto-Medium, Roboto Medium" font-size="14" transform="translate(0 -2) translate(16 2)">
            <tspan x="0" y="13">NET BANKING</tspan>
        </text>
        <g transform="translate(0 -2) translate(16 39)">
            <mask id="prefix__b" fill="#fff">
                <use xlink:href="#prefix__a"/>
            </mask>
            <g fill-rule="nonzero" mask="url(#prefix__b)">
                <path fill="#156DD1" d="M39.436 19.734c.003 10.89-8.823 19.72-19.713 19.723C8.833 39.459.003 30.633 0 19.743v-.01C-.003 8.844 8.823.014 19.714.012c10.89-.003 19.72 8.824 19.722 19.714v.009z"/>
                <path fill="#FFF" d="M23.267 19.734c0 1.96-1.589 3.55-3.549 3.55s-3.55-1.59-3.55-3.55c0-1.96 1.59-3.55 3.55-3.55 1.96 0 3.55 1.59 3.55 3.55z"/>
                <path fill="#FFF" d="M18.494 22.317L20.942 22.317 20.942 39.452 18.494 39.452z"/>
            </g>
            <text fill="#7F7F7F" font-family="Roboto-Regular, Roboto" font-size="12" transform="translate(0 48)">
                <tspan x="11.073" y="11">SBI</tspan>
            </text>
            <g transform="translate(72)">
                <mask id="prefix__d" fill="#fff">
                    <use xlink:href="#prefix__c"/>
                </mask>
                <use fill="#004C8F" xlink:href="#prefix__c"/>
                <g fill-rule="nonzero" mask="url(#prefix__d)">
                    <g>
                        <path fill="#ED232A" d="M0 0L22.511 0 22.511 22.511 0 22.511z" transform="translate(9 9)"/>
                        <path fill="#FFF" d="M3.942 3.942L18.574 3.942 18.574 18.574 3.942 18.574z" transform="translate(9 9)"/>
                        <path fill="#FFF" d="M10.129 0L12.382 0 12.382 22.511 10.129 22.511z" transform="translate(9 9)"/>
                        <path fill="#FFF" d="M0 10.134L22.511 10.134 22.511 12.387 0 12.387z" transform="translate(9 9)"/>
                        <path fill="#004C8F" d="M7.88 7.88L14.636 7.88 14.636 14.636 7.88 14.636z" transform="translate(9 9)"/>
                    </g>
                </g>
                <g fill="#7F7F7F" font-family="Roboto-Regular, Roboto" font-size="12">
                    <text transform="translate(0 48)">
                        <tspan x="4.566" y="11">HDFC</tspan>
                    </text>
                </g>
            </g>
            <g transform="translate(144)">
                <mask id="prefix__f" fill="#fff">
                    <use xlink:href="#prefix__e"/>
                </mask>
                <g mask="url(#prefix__f)">
                    <mask id="prefix__i" fill="#fff">
                        <use xlink:href="#prefix__g"/>
                    </mask>
                    <use fill="url(#prefix__h)" xlink:href="#prefix__g"/>
                    <g mask="url(#prefix__i)">
                        <g>
                            <path fill="#EC9636" d="M8.454 7.077C15.873-.317 24.842-2.228 28.42 2.825c3.577 5.052.445 15.204-6.974 22.598-7.418 7.394-16.387 9.305-19.966 4.252-3.577-5.053-.445-15.204 6.974-22.598" transform="translate(6.5 5.2)"/>
                            <path fill="#9E2C32" d="M13.588 3.084c-.791.601-1.632 1.303-2.422 2.103-6.428 6.411-9.098 15.224-5.934 19.632 3.264 4.407 11.175 2.804 17.701-3.706 3.51-3.456 5.884-7.512 6.873-11.268.296-2.754-.098-5.209-1.335-7.061-2.818-3.907-8.85-3.605-14.883.3" transform="translate(6.5 5.2)"/>
                            <path fill="#FFFFFE" d="M16.665 29.02c-3.343 2.608-6.797 3.9-10.165 3.359 1.412.075 2.555-1.554 3.492-3.742.95-2.242 1.522-4.322 1.977-6.267.664-3.08.715-5.28.377-5.754-.572-.784-1.872-.58-3.343.298-.702.404-1.638.135-.533-1.257 1.119-1.404 5.568-4.782 7.167-5.308 1.756-.527 3.759.19 3.083 2.188-.481 1.459-6.635 18.224-2.055 16.484M21.7 3.014c.831.866.324 2.756-1.093 4.242-1.432 1.472-3.291 1.999-4.097 1.148-.86-.851-.352-2.768 1.08-4.268 1.443-1.5 3.303-1.959 4.11-1.122" transform="translate(6.5 5.2)"/>
                        </g>
                    </g>
                </g>
                <g fill="#7F7F7F" font-family="Roboto-Regular, Roboto" font-size="12">
                    <text transform="translate(0 48)">
                        <tspan x="7.294" y="11">ICICI</tspan>
                    </text>
                </g>
            </g>
            <g transform="translate(216)">
                <mask id="prefix__k" fill="#fff">
                    <use xlink:href="#prefix__j"/>
                </mask>
                <use fill="#A42551" xlink:href="#prefix__j"/>
                <g fill="#FFF" mask="url(#prefix__k)">
                    <g>
                        <path d="M0 24.889L14.267 0 18.667 7.527 9.155 24.768 0 24.889M14.933 15.061L23.446 14.933 28.622 24.889 19.88 24.889 14.933 15.061" transform="translate(6.222 4.978)"/>
                    </g>
                </g>
                <g fill="#7F7F7F" font-family="Roboto-Regular, Roboto" font-size="12">
                    <text transform="translate(0 48)">
                        <tspan x="7.133" y="11">AXIS</tspan>
                    </text>
                </g>
            </g>
            <g transform="translate(288)">
                <use fill="#054279" xlink:href="#prefix__l"/>
                <g>
                    <path fill="#054279" d="M17.013 28.501C7.642 28.501 0 22.1 0 14.251 0 6.403 7.642 0 17.013 0c9.369 0 17.012 6.403 17.012 14.251 0 7.849-7.643 14.25-17.012 14.25" transform="translate(2.462 6.154)"/>
                    <path fill="#FFFFFE" d="M27.93 15.694l1.896.08c-1.126 7.676-8.61 8.239-12.38.804l.497-.804c3.906 2.411 8.473 3.322 9.986-.08" transform="translate(2.462 6.154)"/>
                    <path fill="#D8232A" d="M15.053 4.523L18.849 3.319 19.015 24.213 14.887 25.579 15.053 4.523" transform="translate(2.462 6.154)"/>
                    <path fill="#FFFFFE" d="M28.011 12.88h1.733c-.667-3.515-2.496-5.725-6.025-6.025-2.944.054-5.446 1.715-7.51 4.981-1.366 2.009-3.54 5.176-6.194 5.55-3.192.448-5.047-2.287-3.667-4.646.839-1.434 3.102-2.033 4.684-1.887l.029.002c1.45.142 2.788.503 3.932 1.183l.025-2.961c-.72-.594-1.309-1.192-2.15-1.6-1.145-.556-2.26-.737-3.345-.542-4.817 1.03-5.695 4.861-4.787 9.964 1.87 5.92 7.703 6.376 11.06 2.572 2.296-2.678 8.005-11.723 12.215-6.59" transform="translate(2.462 6.154)"/>
                </g>
                <g fill="#7F7F7F" font-family="Roboto-Regular, Roboto" font-size="12">
                    <text transform="translate(0 48)">
                        <tspan x="1.259" y="11">KOTAK</tspan>
                    </text>
                </g>
            </g>
        </g>
        <path stroke="#000" stroke-linecap="square" stroke-width=".5" d="M0 123.5L360 123.5" opacity=".1" transform="translate(0 -2)"/>
        <g>
            <text fill="#000" fill-opacity=".9" font-family="Roboto-Medium, Roboto Medium" font-size="14" transform="translate(0 -2) translate(0 147) translate(16)">
                <tspan x="0" y="13">UPI</tspan>
            </text>
            <g>
                <g>
                    <g opacity=".3" transform="translate(0 -2) translate(0 147) translate(16 34) translate(11)">
                        <circle cx="19.998" cy="19.998" r="19.998" fill="#FFF" fill-rule="nonzero"/>
                        <circle cx="19.998" cy="19.998" r="19.781" stroke="#868686"/>
                    </g>
                    <path fill="#6E7BF2" fill-rule="nonzero" d="M19.998 39.998c-3.717.006-7.36-1.029-10.52-2.987L22.875.205c2.37.341 4.662 1.108 6.76 2.265C36.03 5.982 40.004 12.7 39.996 19.998c0 1.354-.135 2.704-.407 4.031-.523 2.559-1.545 4.988-3.008 7.152-2.171 3.215-5.226 5.731-8.798 7.244-1.21.512-2.468.903-3.754 1.166-1.327.271-2.677.407-4.03.407z" transform="translate(0 -2) translate(0 147) translate(16 34) translate(11)"/>
                    <path fill="#4285F4" fill-rule="nonzero" d="M13.215 19.91c.005-.336-.03-.671-.103-.999H8.509v1.82h2.703c-.103.644-.465 1.218-1 1.59l-.01.06 1.455 1.127.1.01c.975-.942 1.506-2.251 1.461-3.605" transform="translate(0 -2) translate(0 147) translate(16 34) translate(11)"/>
                    <path fill="#34A853" fill-rule="nonzero" d="M8.51 24.705c1.193.033 2.355-.391 3.246-1.187l-1.548-1.2c-.501.338-1.096.508-1.699.49-1.27-.007-2.394-.826-2.789-2.037l-.058.004-1.513 1.172-.02.054c.832 1.658 2.527 2.704 4.38 2.704" transform="translate(0 -2) translate(0 147) translate(16 34) translate(11)"/>
                    <path fill="#FBBC05" fill-rule="nonzero" d="M5.72 20.77c-.106-.31-.163-.638-.163-.968.002-.329.057-.656.16-.968l-.003-.064-1.532-1.191-.05.023c-.698 1.385-.698 3.016 0 4.4l1.588-1.231z" transform="translate(0 -2) translate(0 147) translate(16 34) translate(11)"/>
                    <path fill="#EB4335" fill-rule="nonzero" d="M8.51 16.796c.703-.011 1.38.25 1.896.73l1.383-1.35c-.887-.833-2.063-1.29-3.28-1.274-1.853 0-3.548 1.044-4.38 2.702l1.585 1.232c.4-1.21 1.523-2.03 2.795-2.04" transform="translate(0 -2) translate(0 147) translate(16 34) translate(11)"/>
                    <path fill="#FFF" fill-rule="nonzero" d="M20.93 20.347v3.562h-1.14v-8.8h3.02c.729-.016 1.432.258 1.957.761 1.029.947 1.095 2.551.145 3.58-.046.05-.095.099-.145.145-.527.5-1.23.77-1.956.75H20.93v.002zm0-4.153v3.072h1.91c.422.013.83-.153 1.125-.455.595-.572.612-1.515.04-2.11l-.01-.011c-.01-.01-.02-.022-.03-.03-.292-.307-.701-.478-1.125-.466h-1.91zm7.277 1.499c.727-.04 1.44.2 1.993.668.5.477.766 1.147.73 1.837v3.711h-1.086v-.837h-.048c-.403.651-1.118 1.042-1.883 1.033-.612.019-1.21-.192-1.676-.591-.436-.364-.683-.907-.674-1.474-.02-.581.246-1.137.711-1.486.552-.393 1.22-.589 1.898-.554.58-.021 1.155.105 1.67.368v-.261c.002-.388-.17-.756-.47-1-.303-.27-.694-.416-1.1-.413-.609-.013-1.18.29-1.51.798l-1-.627c.559-.79 1.483-1.236 2.447-1.178l-.002.006zm-1.474 4.374c-.002.292.14.57.378.74.252.197.566.3.885.294.48 0 .94-.19 1.282-.529.359-.311.566-.765.566-1.241-.434-.304-.957-.454-1.486-.423-.41-.015-.817.101-1.156.334-.289.178-.463.49-.469.825zm10.449-4.178l-3.8 8.676h-1.175l1.41-3.036-2.5-5.64h1.237l1.808 4.325h.025l1.757-4.325h1.238z" transform="translate(0 -2) translate(0 147) translate(16 34) translate(11)"/>
                </g>
                <text fill="#7F7F7F" font-family="Roboto-Regular, Roboto" font-size="12" transform="translate(0 -2) translate(0 147) translate(16 34) translate(0 48)">
                    <tspan x=".771" y="11">Google Pay</tspan>
                </text>
                <g>
                    <g fill-rule="nonzero">
                        <path fill="#FE7A09" d="M10.877 29.613c-.748.434-1.432.949-2.036 1.532-2.654 2.127-5.282 4.278-7.927 6.413-.165.253-.48.4-.81.375L12.388.02l5.295 8.796c1.825 3.1 3.616 6.217 5.498 9.291.241.257.345.593.284.922-.06.329-.279.619-.6.795-3.979 3.17-7.903 6.396-11.847 9.602-.05.008-.096.033-.125.07-.03.038-.04.084-.03.129l.014-.012z" transform="translate(0 -2) translate(0 147) translate(16 34) translate(72) translate(15.208)"/>
                        <path fill="#028C3C" d="M11.018 29.426c3.944-3.206 7.868-6.431 11.848-9.602.32-.176.539-.466.6-.795.06-.33-.044-.665-.285-.922-1.882-3.074-3.673-6.19-5.498-9.291l2.26-6.79.223-.665c.227.05.395.222.418.428 3.539 5.96 7.076 11.921 10.612 17.882.145.15.212.346.184.541-.03.195-.15.37-.335.482C23.493 26.785 15.952 32.887 8.422 39c-.132.11-.31.168-.492.157.251-.79.5-1.58.755-2.37.704-2.173 1.415-4.344 2.109-6.52.142-.194.173-.437.083-.654l-.015.012c.205.027.143-.109.156-.199z" transform="translate(0 -2) translate(0 147) translate(16 34) translate(72) translate(15.208)"/>
                        <path fill="#FEFEFE" d="M11.018 29.426c-.013.09.049.226-.156.199-.01-.045.002-.091.03-.128.03-.038.075-.063.126-.07z" transform="translate(0 -2) translate(0 147) translate(16 34) translate(72) translate(15.208)"/>
                    </g>
                    <text fill="#7F7F7F" font-family="Roboto-Regular, Roboto" font-size="12" transform="translate(0 -2) translate(0 147) translate(16 34) translate(72) translate(0 48)">
                        <tspan x="17.245" y="11">Bhim</tspan>
                    </text>
                </g>
                <g>
                    <g transform="translate(0 -2) translate(0 147) translate(16 34) translate(140) translate(17)">
                        <mask id="prefix__n" fill="#fff">
                            <use xlink:href="#prefix__m"/>
                        </mask>
                        <circle cx="20" cy="20" r="19.75" stroke="#000" stroke-opacity=".05" stroke-width=".5"/>
                        <g fill="#1F80E0" mask="url(#prefix__n)">
                            <path d="M26.651 21.262c.656 0 1.253-.47 1.32-1.123.074-.75-.514-1.382-1.248-1.382l-5.099-.004c-.203 0-.367-.164-.367-.367l-.003-5.027c0-.655-.472-1.253-1.125-1.319-.75-.075-1.381.511-1.38 1.246l.003 5.099c0 .202-.165.367-.367.366l-5.02-.002c-.668-.001-1.276.486-1.327 1.152-.03.385.115.737.363.985.227.227.54.367.886.368l5.1.003c.202 0 .366.164.367.367l.003 5.099c0 .346.14.66.367.886.248.248.6.394.985.364.666-.052 1.153-.66 1.153-1.327l-.003-5.02c0-.203.164-.368.367-.367l5.025.003z"/>
                        </g>
                    </g>
                    <text fill="#1F80E0" font-family="Roboto-Medium, Roboto Medium" font-size="12" transform="translate(0 -2) translate(0 147) translate(16 34) translate(140) translate(0 48)">
                        <tspan x=".613" y="11">ENTER UPI ID</tspan>
                    </text>
                </g>
            </g>
            <path stroke="#000" stroke-linecap="square" stroke-width=".5" d="M0 118.5L360 118.5" opacity=".1" transform="translate(0 -2) translate(0 147)"/>
        </g>
        <g>
            <text fill="#000" fill-opacity=".9" font-family="Roboto-Medium, Roboto Medium" font-size="14" transform="translate(0 -2) translate(16 288)">
                <tspan x="0" y="13">WALLETS</tspan>
            </text>
            <g>
                <path stroke="#000" stroke-linecap="square" stroke-width=".5" d="M0 0.52L327 0.52" opacity=".1" transform="translate(0 -2) translate(16 288) translate(0 34.653) translate(1 32.786)"/>
                <text fill="#1F80E0" font-family="Roboto-Medium, Roboto Medium" font-size="12" transform="translate(0 -2) translate(16 288) translate(0 34.653) translate(211 2.367)">
                    <tspan x="65.602" y="11">PAY NOW</tspan>
                </text>
                <text fill="#7F7F7F" font-family="Roboto-Regular, Roboto" font-size="12" transform="translate(0 -2) translate(16 288) translate(0 34.653) translate(46 2.367)">
                    <tspan x="0" y="11">Paytm</tspan>
                </text>
                <g>
                    <path fill="#00BAF2" d="M26.249 14.039c-.287-.067-.642-.23-.834-.38l-.131-.105v.13c0 .08-.036.167-.1.23-.096.104-.1.104-.91.104-.765 0-.821-.004-.92-.088l-.105-.083V9.649c0-4.14 0-4.194.08-4.278.076-.08.132-.083.93-.083.837 0 .853 0 .937.096l.088.096v2.974c0 3.229-.004 3.158.219 3.342.143.12.602.13.782.02.243-.15.235-.05.235-3.333V5.488l.116-.121.115-.121h1.612l.115.121.116.121v3.016c0 3.283-.008 3.158.227 3.325.164.113.603.109.758-.008.263-.2.251-.059.251-3.363v-2.99l.092-.088c.088-.088.124-.092.938-.092.785 0 .85.004.92.079.045.046.093.146.105.221.012.076.02 1.613.012 3.417l-.012 3.28-.092.27c-.271.782-.858 1.312-1.647 1.488-.34.075-.674.054-1.057-.071-.24-.08-.666-.338-.77-.468-.076-.1-.112-.092-.295.08-.204.192-.579.375-.93.455-.335.075-.514.075-.845 0zM20.876 15.63c-.2-.092-.375-.271-.662-.68-.459-.652-.802-.861-1.504-.932-.57-.054-.546-.013-.546-1.082 0-.869 0-.877.096-.982.095-.104.111-.108.59-.108h.49V5.409l.1-.1c.096-.105.1-.105.874-.105.83 0 .941.021 1.017.196.032.071.044 1.036.044 3.271v3.175h.458c.403 0 .467.008.539.083.116.121.128.21.112 1.078-.016 1.023.008.986-.65 1.003l-.46.016v.656c0 .719-.031.886-.183.96-.123.06-.167.055-.315-.012z" transform="translate(0 -2) translate(16 288) translate(0 34.653) matrix(1 0 0 -1 0 18.735)"/>
                    <path fill="#042E6F" d="M12.24 13.989c-.031-.013-.099-.063-.147-.109l-.091-.084v-1.904c0-2.106.012-2.223.25-2.695.172-.338.515-.693.83-.856.375-.192.718-.255 1.416-.255.55 0 .615-.008.71-.087.148-.122.148-.372 0-.493-.103-.084-.155-.088-1.2-.088-1.14 0-1.28-.02-1.344-.188-.012-.038-.024-.46-.024-.94v-.873l.103-.083c.104-.084.152-.088 1.432-.088.73 0 1.412.017 1.52.037.75.15 1.32.66 1.564 1.404l.107.334v6.784l-.092.096c-.087.092-.107.096-.929.096h-.841l-.096-.117-.096-.117v-3.3l-.1-.1c-.087-.096-.123-.105-.51-.105-.351 0-.435.013-.51.08l-.096.08-.02 1.695c-.02 1.692-.02 1.692-.112 1.788-.088.092-.116.096-.878.104-.43.005-.813-.004-.845-.016zM6.777 13.893c-.076-.08-.08-.138-.08-.903 0-.45.016-.848.04-.894.071-.142.259-.167 1.276-.167.977 0 .985 0 1.069-.096.116-.13.12-.438.012-.576-.076-.096-.1-.1-.87-.126-.45-.016-.857-.05-.949-.079-.69-.225-1.184-.752-1.356-1.441-.084-.35-.088-2.485 0-2.832.184-.735.686-1.257 1.38-1.429.203-.05.558-.062 1.751-.062.941 0 1.552.016 1.651.046.24.066.483.355.543.626.032.167.044 1.028.032 3.254-.016 3.313-.012 3.212-.26 3.747-.123.263-.478.627-.737.76-.096.046-.316.126-.487.172-.287.075-.443.083-1.627.083-1.257 0-1.313-.004-1.388-.083zm2.281-4.82c.04-.03.088-.105.112-.168.044-.125.048-1.278.004-1.445-.048-.184-.252-.26-.674-.243-.547.026-.543.021-.559.878-.016.747-.004.83.12.952.076.071.14.084.506.084.284-.005.447-.021.491-.059zM.195 13.968c-.207-.113-.199.033-.187-4.39l.008-4.132.116-.1.111-.104.838.012c.826.013.838.013.913.113.072.092.076.18.076 1.278v1.182l.91.017c.805.017.933.03 1.14.109.654.25 1.057.739 1.2 1.45.08.408.085 2.63.005 3.036-.152.748-.61 1.261-1.32 1.487-.276.088-3.654.125-3.81.042zm3.016-2.26c.092-.113.096-.142.096-.76 0-.69-.028-.82-.188-.894-.052-.025-.307-.046-.57-.046H2.07v1.846l.523-.017c.514-.012.522-.012.618-.13z" transform="translate(0 -2) translate(16 288) translate(0 34.653) matrix(1 0 0 -1 0 18.735)"/>
                </g>
            </g>
        </g>
    </g>
</svg>
