<svg xmlns="http://www.w3.org/2000/svg" xmlns:xlink="http://www.w3.org/1999/xlink" width="66" height="53" viewBox="0 0 66 53">
    <defs>
        <linearGradient id="prefix__a" x1="70.44%" x2="33.295%" y1="42.891%" y2="56.161%">
            <stop offset="0%" stop-color="#101C50"/>
            <stop offset="23.6%" stop-color="#0D267A"/>
            <stop offset="49.73%" stop-color="#085AA4"/>
            <stop offset="65.49%" stop-color="#058BBF"/>
            <stop offset="100%" stop-color="#B1FFFF"/>
        </linearGradient>
        <linearGradient id="prefix__c" x1="50%" x2="50%" y1="0%" y2="100%">
            <stop offset="0%" stop-color="#57C7E3"/>
            <stop offset="47.057%" stop-color="#86E5F4"/>
            <stop offset="100%" stop-color="#2EC2ED"/>
            <stop offset="100%" stop-color="#57C7E3"/>
        </linearGradient>
        <path id="prefix__b" d="M2.853 0C1.277 0 0 1.272 0 2.84v8.773c0 1.57 1.277 2.842 2.853 2.842h60.294c1.576 0 2.853-1.273 2.853-2.842V2.841C66 1.27 64.723 0 63.147 0H2.853z"/>
    </defs>
    <g fill="none" fill-rule="evenodd">
        <path fill="#000" d="M23.74 24.747c2.138 0 4.15 1.683 4.122 4.152-.028 2.09-1.783 4.052-4.283 4.026-2.253-.022-4.126-1.896-4.073-4.158.053-2.318 1.892-4.02 4.233-4.02zm11.656 0c1.286 0 2.334.897 2.376 2.272h-1.454c-.07-.56-.391-.94-.992-.94-.56 0-.909.38-.909.828 0 .66.671.856 1.44 1.094 1.09.337 2.096.996 2.096 2.441 0 1.502-1.09 2.484-2.6 2.484-1.397 0-2.739-.954-2.739-2.75h1.454c.07.94.545 1.417 1.314 1.417.67 0 1.118-.435 1.118-1.066 0-.533-.405-.884-1.314-1.179-1.9-.603-2.222-1.43-2.222-2.315 0-1.375 1.16-2.286 2.432-2.286zm11.279 0c1.132 0 2.082.42 2.683 1.304h.028v-1.094h1.454v7.772h-1.454v-1.206h-.028c-.545.926-1.523 1.403-2.627 1.403-2.264 0-4.11-1.712-4.11-3.956 0-2.484 1.776-4.223 4.054-4.223zm-15.891-2.4v2.61h1.271v1.333h-1.271v6.629h-.105c-.745 0-1.35-.606-1.35-1.354V26.29h-.602v-1.333h.603v-2.61h1.454zm10.16 0v2.61h1.272v1.333h-1.272v6.629h-.104c-.745 0-1.349-.606-1.349-1.354V26.29h-.603v-1.333h.603v-2.61h1.453zm-29.602-.73c.795 0 1.44.646 1.44 1.444v2.724h.027c.462-.688 1.202-1.038 2.167-1.038 1.845 0 3.228 1.178 3.228 3.31v4.672h-1.453v-4.223c0-1.67-.643-2.427-1.929-2.427-1.272 0-2.04.926-2.04 2.442v4.208h-1.454V21.616h.014zm44.543 3.13v1.5c-1.258.043-1.9.814-1.9 2.12v3.098c0 .698-.564 1.264-1.26 1.264h-.194v-7.772h1.356v.701h.028c.35-.519.95-.855 1.97-.911zM23.67 26.079c-1.453 0-2.711 1.235-2.711 2.75 0 1.473 1.216 2.764 2.683 2.764 1.524 0 2.768-1.207 2.768-2.778 0-1.515-1.216-2.736-2.74-2.736zm23.048 0c-1.502 0-2.72 1.334-2.638 2.932.075 1.44 1.253 2.609 2.689 2.581 1.485-.028 2.646-1.278 2.646-2.735 0-1.515-1.09-2.778-2.697-2.778z"/>
        <path fill="#131D4D" d="M44.989 14.058c.014.246-.024.482-.143.7-.192.35-.385.701-.579 1.051-.176.317-.292.654-.332 1.016-.01.097-.027.197.03.31.261-.388.516-.76.798-1.115.33-.416.68-.814 1.092-1.15.224-.183.463-.342.746-.421.387-.108.715.016.924.36.184.3.238.635.25.98.04 1.256-.838 2.634-1.994 3.127-.344.146-.702.197-1.068.137-.115-.018-.152.013-.191.109-.504 1.226-.848 2.494-1.022 3.808-.044.332-.21.414-.48.22-.433-.31-.664-.743-.686-1.275-.028-.7.157-1.365.367-2.023.17-.527.377-1.04.61-1.541.03-.067.067-.127.02-.214-.332-.616-.308-1.26-.107-1.904.272-.87.777-1.591 1.448-2.2.034-.031.074-.058.115-.08.116-.061.193-.042.202.105zM16.525 8.711c2.123.058 4.077.722 5.941 1.691 1.25.65 2.377 1.474 3.333 2.52.5.546.917 1.148 1.219 1.828.504 1.135.361 2.201-.327 3.214-.56.824-1.37 1.288-2.286 1.594-1.448.485-2.916.515-4.395.164-.137-.033-.165-.004-.174.13-.03.412-.138.533-.466.564-.399.037-.635-.109-.728-.477-.049-.193-.074-.395-.089-.594-.01-.129-.06-.195-.176-.25-.967-.455-1.827-1.061-2.56-1.845-.149-.16-.279-.334-.39-.523-.288-.495-.203-.94.246-1.295.294-.232.622-.403.97-.531.567-.21 1.142-.398 1.746-.473.144-.018.197-.076.196-.225 0-.674.072-1.341.212-2.001.018-.086.042-.172.074-.254.066-.176.174-.205.325-.09.155.119.244.284.315.461.219.547.244 1.125.27 1.702.011.243.009.244.242.237.986-.031 1.942.128 2.871.453.367.129.686.335.925.65.312.415.31.864-.013 1.247-.39.461-.814.474-1.27.31-.049-.018-.099-.043-.103-.107-.004-.065.043-.092.09-.12.13-.077.274-.133.386-.241.195-.188.175-.353-.071-.465-.328-.15-.678-.226-1.028-.3-.61-.13-1.226-.215-1.85-.236-.128-.004-.171.016-.167.158.028.985.046 1.97.067 2.956.002.077-.008.14.105.16 1.462.237 2.904.222 4.293-.368.554-.236 1.05-.566 1.366-1.1.438-.738.424-1.498.079-2.268-.476-1.062-1.243-1.88-2.158-2.569-1.804-1.358-3.84-2.18-6.054-2.564-1.024-.177-2.055-.236-3.09-.106-.26.033-.516.082-.793.213.138.056.236.065.334.074.095.008.187.027.267.08.067.045.118.103.106.19-.01.083-.077.12-.146.135-.306.066-.608.05-.895-.083-.173-.08-.184-.237-.136-.394.145-.475.457-.786.935-.924.8-.23 1.618-.351 2.452-.328zm25.742 5.368c.313-.01.543.126.722.366.077.103.145.215.205.329.116.226.057.346-.187.39-.423.077-.85.115-1.277.146-.223.016-.446.03-.669.04-.08.004-.128.025-.15.113-.03.125-.073.248-.118.37-.04.109-.02.142.105.132.375-.03.751-.033 1.127-.004.203.016.265.076.262.275-.008.529-.007.552-.494.576-.41.021-.821.046-1.232.056-.13.004-.183.047-.212.172-.05.211-.115.42-.183.626-.047.143.001.169.133.14.557-.117 1.117-.217 1.683-.287.182-.023.321.032.439.164.193.218.191.436-.023.635-.42.39-.918.65-1.448.851-.187.07-.384.106-.577.154-.757.187-1.477-.564-1.377-1.344.039-.306.098-.605.208-.891.05-.128.068-.24.012-.37-.035-.08-.05-.17-.06-.257-.028-.278.035-.367.315-.401.117-.015.173-.063.217-.165.085-.193.182-.382.273-.573.005-.01.003-.023.006-.048-.32-.024-.584-.145-.757-.435-.147-.245-.115-.347.16-.415.582-.142 1.175-.221 1.771-.282.375-.038.75-.05 1.126-.063zm9.78-1.415c.167-.008.26.058.29.232.14.79.253 1.583.295 2.384.007.144.045.187.19.186.77-.007 1.54-.001 2.31-.006.132 0 .24.03.324.133v.708c-.08.108-.188.139-.32.138-.764-.004-1.529.002-2.293-.005-.134-.002-.164.036-.162.167.012.75-.018 1.498-.087 2.244-.026.279-.073.325-.347.325h-.37c-.203-.003-.277-.086-.254-.287.087-.757.104-1.517.107-2.278 0-.144-.044-.172-.177-.171-.746.006-1.493.003-2.24.003-.272 0-.33-.059-.331-.332 0-.118-.002-.236 0-.354.004-.222.064-.284.287-.284.74-.002 1.48-.006 2.22.003.162.002.208-.036.194-.201-.064-.764-.155-1.524-.3-2.277-.05-.26 0-.325.258-.327.135 0 .27.005.405-.001zm-23.623 1.6c.2.097.28.277.327.477.114.496.14 1.004.172 1.51.024.37.037.742.056 1.114.011.419.04.837.019 1.256-.016.315-.134.482-.358.513-.382.053-.641-.08-.74-.383-.07-.215-.082-.441-.09-.664-.04-1.08-.034-2.16.161-3.229.032-.174.071-.346.157-.503.068-.126.167-.154.296-.091zm3.978-.23c.543.004 1.08.047 1.589.259.12.05.297.074.296.257 0 .188-.116.32-.275.403-.23.12-.488.124-.738.143-.663.05-1.329.039-1.99.108-.316.033-.63.076-.933.173-.062.02-.144.034-.147.105-.003.09.09.098.155.111.444.092.896.118 1.345.177.494.064.989.119 1.476.238 1.162.283 1.207 1.794.611 2.374-.334.325-.73.507-1.179.588-.93.167-1.786-.014-2.552-.576-.21-.155-.39-.345-.484-.596-.14-.374.013-.752.382-.96.274-.154.578-.206.883-.202.621.01 1.227.114 1.796.38.09.041.198.082.196.202-.002.113-.094.173-.185.218-.421.209-.851.294-1.305.097-.258-.112-.511-.238-.79-.294-.137-.027-.27-.018-.398.035-.11.046-.19.127-.2.25-.009.112.072.183.16.236.189.115.4.178.617.19.754.046 1.49-.036 2.177-.383.057-.029.113-.062.166-.098.126-.086.277-.162.26-.347-.018-.177-.17-.25-.307-.31-.425-.189-.88-.244-1.336-.298-.577-.068-1.16-.08-1.736-.177-.593-.1-.803-.459-.617-1.034.102-.314.313-.534.584-.705.457-.289.971-.406 1.495-.489.326-.051.653-.08.984-.075zm4.946-.61c.168.1.311.231.442.376.468.518.722 1.138.85 1.815.156.822.153 1.64-.112 2.444-.043.131-.111.247-.199.351-.323.387-.785.408-1.13.043-.347-.366-.59-.806-.832-1.244-.173-.314-.338-.632-.51-.947-.023-.044-.045-.115-.105-.103-.062.012-.05.084-.057.134-.055.387-.058.776-.068 1.165-.009.383-.015.767-.102 1.143-.059.255-.192.378-.408.392-.211.014-.4-.116-.484-.339-.123-.327-.104-.672-.111-1.014.018-.834.124-1.656.364-2.457.054-.18.12-.357.227-.514.2-.299.43-.325.683-.068.427.435.752.948 1.072 1.464.207.335.417.668.629 1 .036.058.073.14.157.12.094-.025.062-.12.06-.182-.018-.533-.148-1.049-.268-1.564-.116-.498-.256-.991-.386-1.486-.033-.126-.064-.251-.04-.383.04-.204.147-.255.328-.146zm-18.933 2.082c-.386.031-.773.06-1.154.127-.473.084-.95.156-1.39.363-.305.143-.333.3-.116.563.045.054.095.104.143.155.444.465.975.808 1.528 1.121.347.197.71.356 1.087.479.007-.014.013-.02.013-.025 0-.9-.002-1.801 0-2.702 0-.09-.044-.086-.111-.08zm28.27.084l-.796.965c-.286.393-.548.802-.781 1.255.27-.028.505-.097.726-.202.768-.363 1.235-.952 1.319-1.815.013-.14.041-.326-.122-.392-.153-.062-.253.089-.346.19zM29.522 9.641c.364-.005.677.13.92.408.05.057.108.079.18.095.648.143.956.7.74 1.329-.061.18-.148.348-.273.49-.593.671-1.293 1.174-2.181 1.377-.353.08-.7.06-1.042-.046-.093-.03-.142-.015-.174.072l-.008.016c-.075.134-.143.297-.327.274-.175-.022-.25-.18-.312-.33-.026-.064-.057-.138-.05-.203.031-.254-.08-.45-.212-.652-.113-.174-.149-.382-.153-.59.001-.287.081-.554.242-.783.644-.92 1.513-1.44 2.65-1.457zm.703 1.13c-.18.036-.349.098-.504.197-.386.242-.725.54-1.037.87-.159.166-.29.354-.428.538-.051.069-.042.104.05.104h.316c.645.006 1.218-.202 1.721-.606.176-.14.33-.302.4-.525.117-.37-.14-.655-.518-.579zm-1.593-.088c-.493-.015-1.231.555-1.333 1.014-.035.157-.02.234.079.377.338-.533.771-.976 1.254-1.39z"/>
        <path fill="url(#prefix__a)" fill-rule="nonzero" d="M33.874.25C32.812.395 31.76.54 30.72.821c-1.055.287-2.084.67-3.07 1.144-2.05.986-3.873 2.342-5.409 4.025-.621.68-1.17 1.408-1.69 2.168-.115.167-.064.304.122.37.116.042.233.08.35.12.214.07.279.045.413-.145.3-.423.588-.872.935-1.254L23.504 6c.437-.412.89-.806 1.358-1.182 1.76-1.413 3.828-2.48 5.997-3.088 2.286-.64 4.706-.785 7.052-.435 1.498.223 2.962.654 4.346 1.268 1.575.7 3.046 1.635 4.344 2.772 1.627 1.427 2.938 3.155 3.919 5.088.113.223.222.45.326.678.259.569.152.563.671.558l.204-.001c.182 0 .322-.082.252-.283-.357-1.024-.927-2.012-1.51-2.92-.598-.928-1.28-1.8-2.034-2.605l-.045-.048c-1.195-1.263-2.557-2.374-4.07-3.23-.6-.362-1.227-.67-1.874-.935-.508-.247-1.041-.426-1.576-.6C39.742.672 38.581.423 37.41.29c-.68-.077-1.387-.132-2.089-.132-.487 0-.973.027-1.446.091"/>
        <g transform="translate(0 37.34)">
            <mask id="prefix__d" fill="#fff">
                <use xlink:href="#prefix__b"/>
            </mask>
            <use fill="url(#prefix__c)" xlink:href="#prefix__b"/>
            <path fill="#000" d="M29.379 3.011l2.455 4.971 2.466-4.97h1.912v8.186h-1.69V6.092l-2.688 5.351-2.677-5.351v5.106h-1.69V3.01h1.912zm23.967 0L55.8 7.982l2.467-4.97h1.912v8.186h-1.69V6.092L55.8 11.443l-2.676-5.351v5.106h-1.69V3.01h1.912zm-8.98 0v4.8c0 .76.099 1.177.37 1.497.247.307.69.503 1.147.503.481 0 .95-.221 1.196-.565.247-.331.321-.687.321-1.448V3.011h1.702V7.75c0 1.203-.26 2.037-.814 2.651-.555.614-1.418.957-2.38.957-1 0-1.912-.368-2.492-1.018-.53-.59-.74-1.326-.74-2.59V3.011h1.69zm-36.339 0c1.949 0 3.046.945 3.046 2.615 0 1.705-1.122 2.761-2.934 2.761h-1.05v2.81H5.4V3.012h2.627zm17.281 0v1.375h-2.886V6.4h2.886v1.375h-2.886v2.049h2.886v1.375h-4.576V3.01h4.576zm15.05 0v8.187h-1.69V3.01h1.69zm-24.88 0c2.035 0 3.133.896 3.133 2.577 0 1.29-.68 2.148-1.95 2.467l2.27 3.142h-2.047l-2.257-3.252v3.252h-1.69V3.011h2.54zM7.855 4.398H7.09V7h.728c.974 0 1.541-.466 1.541-1.288 0-.81-.58-1.314-1.504-1.314zm7.684 0h-.912v2.565h.764c.962 0 1.505-.466 1.505-1.289 0-.785-.518-1.276-1.357-1.276z" mask="url(#prefix__d)"/>
        </g>
    </g>
</svg>
