<svg xmlns="http://www.w3.org/2000/svg" width="128" height="65" viewBox="0 0 128 65">
  <g fill="none" fill-rule="evenodd">
    <rect width="128" height="65" fill="#000000" fill-opacity="0"/>
    <path fill="#FFFFFF" d="M108.515429,31.3783843 C108.292743,31.2239747 108.038771,31.097248 107.754126,30.9975893 C107.46948,30.9016215 107.105699,30.8517921 106.660328,30.8517921 C105.941967,30.8517921 105.392307,31.0135839 105.009509,31.3347066 C104.624256,31.6564446 104.385007,32.0895297 104.285627,32.6351923 L104.285627,43.707776 L99.4994172,43.707776 L99.4994172,27.376038 L104.285627,27.376038 L104.285627,28.2231378 C105.051837,27.4633933 106.078768,27.0838286 107.365192,27.0838286 C107.860254,27.0838286 108.335685,27.1465768 108.794552,27.2733034 C109.250966,27.40003 109.652169,27.5999627 110,27.8718713 L108.515429,31.3783843 L108.515429,31.3783843 Z M92.1888228,42.8028496 C91.7679897,43.1350456 91.1931783,43.416797 90.4631618,43.6499493 C89.7331452,43.8818713 88.9356481,43.9999854 88.0700571,43.9999854 C87.1302374,43.9999854 86.2585117,43.8584946 85.4548801,43.5767432 C84.6500215,43.2956069 83.9390221,42.8951262 83.3206552,42.3777618 C82.7022882,41.8634732 82.2201092,41.2372223 81.8735047,40.5088519 C81.5275136,39.7767904 81.3539047,38.954913 81.3539047,38.0382982 C81.3539047,36.1294017 82.0354579,34.6991136 83.3954972,33.7443577 C84.7561499,32.7902171 86.5492915,32.3134544 88.7761487,32.3134544 C89.3693638,32.3134544 89.969327,32.3577472 90.5748114,32.4463328 C91.1815226,32.5324576 91.7305687,32.7133199 92.2274707,32.9846133 C92.0544752,32.2051831 91.7182995,31.6564446 91.2238513,31.3347066 C90.7300166,31.0135839 90.0110423,30.8517921 89.0724495,30.8517921 C88.3043985,30.8517921 87.6498374,30.9539116 87.105699,31.1587658 C86.5609472,31.3642352 86.029078,31.6410651 85.5113183,31.9917164 L83.3580762,29.0991508 C84.0752101,28.4772062 84.9524569,27.985064 85.991657,27.6245698 C87.0326974,27.2640757 88.1571683,27.0838286 89.3693638,27.0838286 C90.5067174,27.0838286 91.5459174,27.2296258 92.4851236,27.5230655 C93.4243298,27.8134294 94.2242807,28.2280592 94.8794552,28.7632638 C95.5352432,29.2990836 96.0413472,29.9505568 96.4008343,30.7207593 C96.7603215,31.491577 96.9388381,32.3429829 96.9388381,33.2786682 L96.9388381,43.707776 L92.1888228,43.707776 L92.1888228,42.8028496 L92.1888228,42.8028496 Z M92.1520152,36.6965956 C91.9532544,36.4234567 91.620146,36.1946106 91.1502362,36.0100573 C90.6815533,35.825504 90.1613398,35.7313818 89.5914361,35.7313818 C87.2670388,35.7313818 86.10392,36.4720557 86.10392,37.9515581 C86.10392,38.5944188 86.4063554,39.1062467 87.0130667,39.4851962 C87.6173241,39.8659912 88.3418195,40.0554659 89.1834857,40.0554659 C90.4189927,40.0554659 91.409116,39.7041994 92.1520152,39.0028968 L92.1520152,36.6965956 L92.1520152,36.6965956 Z M77.1609104,38.7703597 C77.1609104,39.3166375 77.3204098,39.6949718 77.6443163,39.9084384 C77.965769,40.124981 78.4099135,40.2307916 78.9798172,40.2307916 C79.3988099,40.2307916 79.826391,40.1612765 80.2607202,40.0259374 C80.6919821,39.8905983 81.0815287,39.7041994 81.4305871,39.4716623 L80.6870744,43.5330655 C80.4386234,43.6499493 80.074842,43.7576054 79.5920496,43.8541883 C79.1098706,43.9520016 78.4356788,43.9999854 77.5700877,43.9999854 C75.9119072,43.9999854 74.6438869,43.5675155 73.7660266,42.7001149 C72.8887798,41.8320992 72.449543,40.6884838 72.449543,39.2680384 L72.449543,31.08679 L70.3331084,31.08679 L70.3331084,27.376038 L72.449543,27.376038 L72.449543,24.3376753 L77.1609104,22.7308311 L77.1609104,27.376038 L80.7226551,27.376038 L80.7226551,31.08679 L77.1609104,31.08679 L77.1609104,38.7703597 L77.1609104,38.7703597 Z M65.8444267,31.2916442 C65.1027544,31.097248 64.3107785,30.9975893 63.4684989,30.9975893 C62.4802159,30.9975893 61.8121588,31.0910963 61.4661677,31.2756496 C61.1189498,31.4614332 60.9453408,31.7001222 60.9453408,31.9917164 C60.9453408,32.3029964 61.1434881,32.5515282 61.5397828,32.737927 C61.9360775,32.9218651 62.412122,33.0836569 62.9679161,33.2177656 C63.5249371,33.3549503 64.1193792,33.4724492 64.7494019,33.5690321 C65.380038,33.6680757 65.9431937,33.7843443 66.4376419,33.9196834 C67.6989142,34.3090909 68.6945586,34.8695178 69.4245752,35.5991186 C70.1539783,36.3317952 70.5196,37.338226 70.5196,38.622717 C70.5196,39.6174594 70.3097969,40.4553314 69.8889639,41.1369483 C69.4681308,41.8179501 68.8933194,42.3679189 68.1633029,42.7887005 C67.4332863,43.2082517 66.5676952,43.513995 65.5665297,43.707776 C64.5635237,43.9034025 63.4930372,43.9999854 62.3562972,43.9999854 C61.3925526,43.9999854 60.3398565,43.8929445 59.2018895,43.6788627 C58.0639225,43.465396 56.9750322,43.0759885 55.9364456,42.5112554 L57.5694743,39.1197806 C58.0639225,39.3929195 58.7442488,39.6469879 59.6098399,39.8801403 C60.4760444,40.1126774 61.4287467,40.2307916 62.4673333,40.2307916 C63.655604,40.2307916 64.5083124,40.080073 65.0272989,39.7767904 C65.5481259,39.4765837 65.8082326,39.0902521 65.8082326,38.622717 C65.8082326,38.2548407 65.6211275,37.9515581 65.2505981,37.719021 C64.8800687,37.4834079 64.2856266,37.2810144 63.4684989,37.1032281 C62.3562972,36.8706909 61.3422489,36.6270805 60.4269677,36.3748577 C59.5116864,36.1207893 58.7325931,35.8150459 58.0896877,35.4557821 C57.4455555,35.0934425 56.9504938,34.6505145 56.6045028,34.1233072 C56.2578983,33.5979455 56.0849028,32.9458571 56.0849028,32.1658117 C56.0849028,31.2916442 56.2830501,30.5368211 56.6793448,29.9044185 C57.0737992,29.2695551 57.6124164,28.7497299 58.2933562,28.3394063 C58.9736826,27.9309283 59.7895835,27.6337975 60.7422857,27.448629 C61.6943746,27.2640757 62.72744,27.171799 63.8402552,27.171799 C66.0419606,27.171799 67.9700632,27.6485618 69.6294706,28.6027024 L68.2559352,32.2550125 C67.3903442,31.8077783 66.5867125,31.4841948 65.8444267,31.2916442 L65.8444267,31.2916442 Z M52.0409791,39.9084384 C52.3612048,40.124981 52.8078032,40.2307916 53.3777069,40.2307916 C53.7966996,40.2307916 54.2242807,40.1612765 54.6567695,40.0259374 C55.0892583,39.8905983 55.478805,39.7041994 55.8260229,39.4716623 L55.0837372,43.5330655 C54.8358996,43.6499493 54.4708914,43.7576054 53.9893258,43.8541883 C53.5059199,43.9520016 52.8323416,43.9999854 51.9655236,43.9999854 C50.30857,43.9999854 49.04239,43.5675155 48.1633029,42.7001149 C47.2854426,41.8320992 46.8462058,40.6884838 46.8462058,39.2680384 L46.8462058,31.08679 L44.7309981,31.08679 L44.7309981,27.376038 L46.8462058,27.376038 L46.8462058,24.3376753 L51.5588001,22.7308311 L51.5588001,27.376038 L55.1205448,27.376038 L55.1205448,31.08679 L51.5588001,31.08679 L51.5588001,38.7703597 C51.5588001,39.3166375 51.718913,39.6949718 52.0409791,39.9084384 L52.0409791,39.9084384 Z M41.9667505,41.5448112 C41.2379609,42.3045556 40.3521256,42.9043539 39.314766,43.3435908 C38.2749525,43.7815973 37.1253297,43.9999854 35.8628305,43.9999854 C34.6009447,43.9999854 33.4507085,43.7815973 32.412122,43.3435908 C31.3729219,42.9043539 30.4883136,42.3045556 29.759524,41.5448112 C29.0295074,40.7850667 28.4602172,39.8905983 28.0528802,38.8577149 C27.6443163,37.8266771 27.4400344,36.7156661 27.4400344,35.5277579 C27.4400344,34.3386194 27.6443163,33.2331451 28.0528802,32.2119501 C28.4602172,31.1889095 29.0295074,30.2969018 29.759524,29.5371574 C30.4883136,28.7792584 31.3729219,28.178845 32.412122,27.7414536 C33.4507085,27.3022167 34.6009447,27.0838286 35.8628305,27.0838286 C37.1253297,27.0838286 38.2749525,27.3022167 39.314766,27.7414536 C40.3521256,28.178845 41.2379609,28.7792584 41.9667505,29.5371574 C42.6961536,30.2969018 43.2654438,31.1889095 43.6740077,32.2119501 C44.0819582,33.2331451 44.2868536,34.3386194 44.2868536,35.5277579 C44.2868536,36.7156661 44.0819582,37.8266771 43.6740077,38.8577149 C43.2654438,39.8905983 42.6961536,40.7850667 41.9667505,41.5448112 L41.9667505,41.5448112 Z M38.6086743,32.2242536 C37.9645421,31.3888423 37.0498742,30.9699063 35.8628305,30.9699063 C34.6751733,30.9699063 33.7605055,31.3888423 33.1169867,32.2242536 C32.4746948,33.0627408 32.1514018,34.1632938 32.1514018,35.5277579 C32.1514018,36.8916069 32.4746948,37.9952358 33.1169867,38.8429506 C33.7605055,39.6906655 34.6751733,40.1126774 35.8628305,40.1126774 C37.0498742,40.1126774 37.9645421,39.6906655 38.6086743,38.8429506 C39.2521931,37.9952358 39.5736458,36.8916069 39.5736458,35.5277579 C39.5736458,34.1632938 39.2521931,33.0627408 38.6086743,32.2242536 L38.6086743,32.2242536 Z M20.8349181,33.4816769 C20.8349181,32.7619189 20.5938286,32.1430502 20.1116496,31.6269161 C19.6288571,31.110782 18.8436292,30.8517921 17.7553524,30.8517921 C17.0382185,30.8517921 16.41249,31.0135839 15.8806208,31.3347066 C15.3499785,31.6564446 14.9855837,32.080302 14.7868229,32.6056638 L14.7868229,43.707776 L10,43.707776 L10,23.6363727 L14.7868229,22 L14.7868229,28.5731739 C15.8260229,27.580277 17.2492485,27.0838286 19.0534323,27.0838286 C20.0932458,27.0838286 21.0201828,27.2296258 21.8373106,27.5230655 C22.6538249,27.8134294 23.3396724,28.2280592 23.89608,28.7632638 C24.4537145,29.2990836 24.8733207,29.9425595 25.1579658,30.6918459 C25.4438378,31.4429779 25.5849334,32.2728527 25.5849334,33.1894674 L25.5849334,43.707776 L20.8349181,43.707776 L20.8349181,33.4816769 L20.8349181,33.4816769 Z"/>
  </g>
</svg>
