<svg width="153" height="12" viewBox="0 0 153 12" fill="none" xmlns="http://www.w3.org/2000/svg">
<path fill-rule="evenodd" clip-rule="evenodd" d="M26.1992 0.505466L25.78 2.99496C24.5229 2.28328 21.6621 2.11489 21.6618 3.42569C21.6618 3.94643 22.3091 4.30456 23.0892 4.73621C24.2724 5.39083 25.7613 6.21455 25.7613 8.03101C25.7613 10.9336 22.7371 12 20.7325 12C18.7285 12 17.4168 11.3454 17.4168 11.3454L17.8535 8.74238C19.0562 9.7344 22.7006 10.0163 22.7006 8.44313C22.7006 7.78209 21.9832 7.39225 21.1513 6.94019C20.0034 6.31646 18.6376 5.57428 18.6376 3.83782C18.6376 0.654624 22.0994 0 23.5571 0C24.9056 0 26.1992 0.505466 26.1992 0.505466ZM36.0001 11.8002H33.3028L32.9588 10.0782H29.2245L28.6121 11.8002H25.5499L29.931 1.07097C29.931 1.07097 30.1966 0.207031 31.287 0.207031H33.6484L36.0001 11.8002ZM10.1976 0.207267L7.39708 8.18091L7.06569 6.46388L7.06599 6.4645L6.07756 1.25107C6.07756 1.25107 5.95805 0.207267 4.6841 0.207267H0.0543259L0 0.403562C0 0.403562 1.41579 0.706221 3.07274 1.72863L5.62485 11.8004H8.68551L13.3591 0.207267H10.1976ZM15.6063 11.8001H12.6688L14.5047 0.207275H17.4425L15.6063 11.8001ZM30.0705 7.69916L31.614 3.36084L32.4823 7.69916H30.0705Z" fill="#163AC3"/>
<path d="M56.1944 10.716H51.0034V1.28174H56.1945L56.1944 10.716Z" fill="#FF5F00"/>
<path d="M51.3326 6C51.3326 4.08626 52.2187 2.38149 53.5984 1.28286C52.554 0.450025 51.2623 -0.00198088 49.9322 6.52584e-06C46.6559 6.52584e-06 44 2.68625 44 6C44 9.31375 46.6559 12 49.9322 12C51.2623 12.002 52.5541 11.55 53.5985 10.7171C52.2189 9.61871 51.3326 7.91384 51.3326 6" fill="#EB001B"/>
<path d="M63.1979 6C63.1979 9.31374 60.542 12 57.2657 12C55.9355 12.002 54.6435 11.55 53.5989 10.7171C54.979 9.61852 55.8651 7.91384 55.8651 6C55.8651 4.08616 54.979 2.38148 53.5989 1.28286C54.6435 0.45005 55.9354 -0.00194605 57.2656 6.29821e-06C60.5419 6.29821e-06 63.1978 2.68625 63.1978 6" fill="#F79E1B"/>
<path d="M79.9855 11.9999C83.2335 12.0156 86.198 9.32516 86.198 6.05211C86.198 2.47284 83.2335 -0.00119004 79.9855 4.2944e-07H77.1903C73.9034 -0.00119004 71.198 2.47358 71.198 6.05211C71.198 9.32588 73.9034 12.0156 77.1903 11.9999H79.9855Z" fill="#0079BE"/>
<path d="M77.2033 0.496094C74.1999 0.497046 71.7661 2.95537 71.7654 5.98942C71.7661 9.02295 74.1998 11.481 77.2033 11.482C80.2075 11.481 82.6418 9.02295 82.6422 5.98942C82.6417 2.95537 80.2075 0.497046 77.2033 0.496094ZM73.7564 5.98942C73.7592 4.50681 74.6762 3.24253 75.9692 2.74013V9.23795C74.6762 8.73583 73.7592 7.47224 73.7564 5.98942ZM78.437 9.23938V2.73991C79.7305 3.2411 80.6489 4.50609 80.6512 5.98942C80.6489 7.4732 79.7305 8.73724 78.437 9.23938Z" fill="white"/>
<path d="M79.9855 11.9999C83.2335 12.0156 86.198 9.32516 86.198 6.05211C86.198 2.47284 83.2335 -0.00119004 79.9855 4.2944e-07H77.1903C73.9034 -0.00119004 71.198 2.47358 71.198 6.05211C71.198 9.32588 73.9034 12.0156 77.1903 11.9999H79.9855Z" fill="#0079BE"/>
<path d="M77.2033 0.496094C74.1999 0.497046 71.7661 2.95537 71.7654 5.98942C71.7661 9.02295 74.1998 11.481 77.2033 11.482C80.2075 11.481 82.6418 9.02295 82.6422 5.98942C82.6417 2.95537 80.2075 0.497046 77.2033 0.496094ZM73.7564 5.98942C73.7592 4.50681 74.6762 3.24253 75.9692 2.74013V9.23795C74.6762 8.73583 73.7592 7.47224 73.7564 5.98942ZM78.437 9.23938V2.73991C79.7305 3.2411 80.6489 4.50609 80.6512 5.98942C80.6489 7.4732 79.7305 8.73724 78.437 9.23938Z" fill="white"/>
<path fill-rule="evenodd" clip-rule="evenodd" d="M94.198 0H106.198V6.53101H105.574C105.393 6.53101 105.253 6.58103 105.152 6.6511V6.53101H104.237C104.086 6.53101 103.915 6.57094 103.824 6.6511V6.53093H102.185V6.65103C102.044 6.5509 101.832 6.53093 101.722 6.53093H100.636V6.65103C100.535 6.5509 100.304 6.53093 100.163 6.53093H98.9457L98.664 6.83132L98.4025 6.53093H96.5919V8.49412H98.3725L98.6641 8.19358L98.9256 8.49412H100.032V8.03333H100.133C100.283 8.03333 100.455 8.03333 100.605 7.96326V8.49412H101.511V7.9833H101.561C101.611 7.9833 101.621 7.9833 101.621 8.04342V8.49412H104.377C104.548 8.49412 104.729 8.45411 104.83 8.37387V8.49412H105.705C105.886 8.49412 106.067 8.46406 106.198 8.40394V12H94.198V6.08009H94.7815L94.9122 5.75958H95.2039L95.3246 6.08009H96.4613V5.83967L96.5618 6.08009H97.1553L97.2558 5.82965V6.08009H100.072V5.55925H100.123C100.163 5.55925 100.173 5.56927 100.173 5.62939V6.08016H101.631V5.95999C101.752 6.02004 101.933 6.08016 102.175 6.08016H102.788L102.919 5.75966H103.211L103.341 6.08016H104.518V5.7797L104.699 6.08016H105.645V4.1169H104.709V4.3473L104.568 4.1169H103.613V4.3473L103.492 4.1169H102.195C101.973 4.1169 101.782 4.14689 101.631 4.22706V4.1169H100.736V4.22706C100.635 4.14697 100.505 4.1169 100.354 4.1169H97.0849L96.8636 4.6177L96.6322 4.1169H95.6062V4.3473L95.4855 4.1169H94.6104L94.198 5.04843V0ZM97.404 4.37914H97.9526V5.77566H97.6135V4.67843L97.1246 5.77566H96.8354L96.3467 4.67843V5.77566H95.6683L95.5387 5.46639H94.8404L94.7108 5.77566H94.3517L94.9502 4.37914H95.4489L96.0175 5.69583V4.37914H96.5561L96.9951 5.32676L97.404 4.37914ZM104.915 5.77566H105.394V4.37914H105.055V5.34672L104.467 4.37914H103.948V5.6959L103.389 4.37921H102.89L102.412 5.47644H102.262C102.172 5.47644 102.082 5.45648 102.033 5.40666C101.973 5.33681 101.943 5.22704 101.943 5.07743C101.943 4.92783 101.973 4.81813 102.033 4.75826C102.102 4.69839 102.172 4.67843 102.292 4.67843H102.611V4.37914H102.292C102.063 4.37914 101.883 4.42896 101.783 4.53873C101.634 4.68834 101.604 4.87786 101.604 5.08734C101.604 5.33674 101.664 5.49632 101.773 5.616C101.893 5.73574 102.102 5.77566 102.262 5.77566H102.651L102.781 5.46639H103.479L103.609 5.77566H104.287V4.72825L104.915 5.77566ZM100.267 6.78293H99.1999L98.771 7.24181L98.362 6.78293H97.0154V8.17938H98.3421L98.771 7.7205L99.18 8.17938H99.8284V7.71067H100.247C100.537 7.71067 100.826 7.63084 100.826 7.24181C100.826 6.86276 100.527 6.78293 100.267 6.78293ZM101.753 6.78293C101.923 6.78293 102.053 6.79298 102.162 6.85286C102.272 6.91258 102.332 7.00239 102.332 7.16191C102.332 7.38144 102.182 7.50118 102.093 7.53098C102.172 7.56091 102.232 7.61073 102.262 7.65072C102.302 7.7205 102.312 7.78037 102.312 7.91002V8.17938H101.983V8.00988C101.983 7.92007 101.983 7.80033 101.923 7.73055C101.873 7.68073 101.803 7.67068 101.684 7.67068H101.324V8.17938H100.985V6.78293H101.753ZM104.526 7.33162C104.716 7.33162 104.836 7.37146 104.916 7.44138C104.975 7.51116 105.015 7.60104 105.015 7.74067C105.015 8.03989 104.826 8.17945 104.487 8.17945H103.838V7.88016H104.487C104.546 7.88016 104.586 7.87025 104.616 7.85037C104.636 7.83034 104.656 7.8004 104.656 7.76056C104.656 7.72057 104.636 7.68073 104.616 7.66084C104.596 7.64081 104.556 7.63091 104.497 7.63091L104.437 7.62922C104.139 7.62153 103.798 7.6127 103.798 7.20197C103.798 7.00239 103.918 6.78293 104.277 6.78293H104.945V7.08222H104.327C104.267 7.08222 104.227 7.08222 104.197 7.10211C104.157 7.13204 104.148 7.16198 104.148 7.21187C104.148 7.26177 104.177 7.2917 104.217 7.31173L104.219 7.31215C104.258 7.32185 104.298 7.33162 104.347 7.33162H104.526ZM105.793 8.17945C106.133 8.17945 106.322 8.03996 106.322 7.74067C106.322 7.60104 106.282 7.51116 106.222 7.44138C106.143 7.37146 106.023 7.33162 105.833 7.33162H105.654C105.604 7.33162 105.565 7.32178 105.525 7.31195L105.524 7.31173C105.484 7.2917 105.454 7.26177 105.454 7.21187C105.454 7.16198 105.474 7.13204 105.504 7.10211C105.534 7.08222 105.574 7.08222 105.634 7.08222H106.252V6.78293H105.584C105.235 6.78293 105.105 7.00239 105.105 7.20197C105.105 7.61271 105.446 7.62153 105.743 7.62922L105.803 7.63091C105.863 7.63091 105.903 7.64081 105.923 7.66084C105.943 7.68073 105.963 7.72057 105.963 7.76056C105.963 7.8004 105.943 7.83034 105.923 7.85037C105.903 7.87025 105.853 7.88016 105.793 7.88016H105.145V8.17945H105.793ZM103.639 7.89042H102.851V7.61109H103.619V7.3319H102.851V7.07245H103.639V6.78322H102.521V8.17966H103.639V7.89042ZM101.734 7.38134C101.793 7.38134 101.843 7.38134 101.893 7.36145C101.933 7.33152 101.963 7.28162 101.963 7.22175C101.963 7.16188 101.933 7.12204 101.893 7.10201C101.853 7.07207 101.793 7.07207 101.734 7.07207H101.325V7.39139L101.734 7.38134ZM100.267 7.43123H99.8283V7.07207H100.267C100.387 7.07207 100.467 7.12204 100.467 7.24171C100.467 7.36145 100.387 7.43123 100.267 7.43123ZM99.4991 6.93276L98.9805 7.4813L99.4991 8.05993V6.93276ZM98.1722 7.89061H97.3443V7.61127H98.0824V7.33209H97.3443V7.07264H98.1822L98.5513 7.48162L98.1722 7.89061ZM101.434 4.37914H101.095V5.77566H101.434V4.37914ZM100.327 4.37914C100.496 4.37914 100.616 4.37914 100.726 4.43901C100.836 4.50879 100.905 4.5986 100.905 4.75819C100.905 4.97765 100.756 5.08734 100.666 5.12726C100.736 5.15712 100.796 5.20701 100.826 5.24693C100.875 5.31678 100.885 5.37665 100.885 5.49632V5.77566H100.546V5.59611L100.547 5.56571C100.548 5.48823 100.549 5.3882 100.496 5.32676C100.447 5.27686 100.367 5.26689 100.247 5.26689H99.8879V5.77566H99.5587V4.37914H100.327ZM99.3192 5.48635H98.5412V5.20701H99.3092V4.91777H98.5412V4.66838H99.3192V4.37914H98.202V5.77566H99.3192V5.48635ZM103.359 5.16685L103.13 4.61824L102.9 5.16685H103.359ZM100.297 4.97747C100.367 4.97747 100.417 4.97747 100.467 4.94754C100.506 4.92751 100.526 4.87769 100.526 4.81789C100.526 4.75809 100.506 4.71817 100.467 4.68823C100.427 4.66828 100.357 4.66828 100.297 4.66828H99.888V4.97747H100.297ZM94.9601 5.16685L95.1896 4.61824L95.419 5.16685H94.9601Z" fill="#0077A6"/>
<g clip-path="url(#clip0_1737_35310)">
<path d="M150.046 2.47766L152.189 6.85594L147.685 11.2363L150.046 2.47766Z" fill="#008C44"/>
<path d="M148.563 2.47766L150.702 6.85594L146.2 11.2363L148.563 2.47766Z" fill="#F47920"/>
<path d="M114.207 9.64331L116.343 1.72283H119.759C120.826 1.72283 121.54 1.89673 121.902 2.25507C122.263 2.61054 122.332 3.19077 122.115 4.00631C121.983 4.48673 121.784 4.88999 121.51 5.2086C121.238 5.52779 120.879 5.78019 120.437 5.9658C120.812 6.0585 121.05 6.24257 121.157 6.51857C121.264 6.79458 121.251 7.19707 121.122 7.72471L120.862 8.83103L120.862 8.86097C120.787 9.17076 120.809 9.3366 120.931 9.35003L120.852 9.64331H118.542C118.549 9.45694 118.564 9.29034 118.579 9.15042C118.596 9.00723 118.617 8.89629 118.637 8.82009L118.853 8.02912C118.961 7.6178 118.968 7.33085 118.867 7.16559C118.765 6.99592 118.538 6.91243 118.179 6.91243H117.207L116.467 9.64331H114.207ZM117.688 5.12761H118.728C119.093 5.12761 119.362 5.07406 119.527 4.96331C119.694 4.8516 119.818 4.66293 119.89 4.38999C119.965 4.11245 119.947 3.91898 119.839 3.809C119.731 3.69729 119.474 3.64297 119.069 3.64297H118.088L117.688 5.12761Z" fill="#1B3281"/>
<path d="M128.457 3.79865L126.882 9.64332H124.968L125.203 8.78709C124.866 9.12759 124.521 9.38613 124.174 9.55138C123.829 9.71952 123.465 9.80225 123.082 9.80225C122.766 9.80225 122.494 9.74313 122.275 9.62586C122.054 9.50897 121.889 9.33123 121.778 9.09688C121.679 8.8917 121.636 8.63834 121.653 8.33566C121.671 8.03777 121.773 7.53528 121.963 6.83164L122.779 3.79865H124.873L124.058 6.81743C123.939 7.25927 123.911 7.56983 123.969 7.73892C124.029 7.90955 124.19 7.99765 124.452 7.99765C124.716 7.99765 124.938 7.89938 125.121 7.69881C125.307 7.49996 125.45 7.20342 125.558 6.8088L126.366 3.79865H128.457Z" fill="#1B3281"/>
<path d="M127.697 9.64331L129.831 1.72283H132.767C133.415 1.72283 133.917 1.76218 134.274 1.84855C134.631 1.93128 134.911 2.06563 135.119 2.25507C135.379 2.50287 135.539 2.80958 135.605 3.17752C135.666 3.54547 135.63 3.97406 135.495 4.47732C135.256 5.36273 134.836 6.04123 134.239 6.51531C133.64 6.98325 132.899 7.21838 132.014 7.21838H130.64L129.987 9.64331H127.697ZM131.16 5.28403H131.898C132.376 5.28403 132.711 5.22338 132.908 5.1063C133.098 4.98768 133.234 4.77694 133.316 4.47732C133.398 4.17368 133.377 3.9614 133.253 3.84278C133.133 3.72474 132.826 3.66504 132.336 3.66504H131.599L131.16 5.28403Z" fill="#1B3281"/>
<path d="M137.957 9.6434L137.979 9.08831C137.641 9.34839 137.299 9.54493 136.955 9.66777C136.613 9.79291 136.249 9.85645 135.858 9.85645C135.265 9.85645 134.852 9.69061 134.613 9.36969C134.376 9.0482 134.338 8.58659 134.499 7.99773C134.653 7.41654 134.927 6.98871 135.323 6.7152C135.717 6.43843 136.374 6.24035 137.296 6.11367C137.413 6.09409 137.57 6.07835 137.766 6.05398C138.448 5.97279 138.831 5.78584 138.913 5.48085C138.956 5.31387 138.93 5.19065 138.829 5.11502C138.732 5.03652 138.55 4.99794 138.288 4.99794C138.07 4.99794 137.895 5.04439 137.752 5.14093C137.608 5.23844 137.501 5.38086 137.429 5.58124H135.387C135.572 4.92328 135.948 4.42616 136.514 4.09373C137.077 3.75553 137.82 3.59277 138.74 3.59277C139.172 3.59277 139.56 3.63442 139.902 3.72482C140.245 3.81139 140.496 3.9348 140.659 4.08413C140.859 4.2705 140.977 4.48297 141.011 4.7179C141.05 4.95226 141.007 5.28815 140.888 5.72769L140.01 8.9862C139.982 9.09292 139.976 9.18812 139.992 9.27468C140.01 9.35722 140.045 9.42785 140.107 9.47833L140.06 9.6434H137.957ZM138.466 7.03363C138.244 7.12556 137.955 7.21366 137.596 7.3104C137.032 7.46606 136.715 7.67374 136.646 7.93074C136.599 8.096 136.618 8.22325 136.696 8.31999C136.774 8.41193 136.908 8.45838 137.098 8.45838C137.445 8.45838 137.724 8.36797 137.932 8.18947C138.141 8.00867 138.297 7.72479 138.406 7.33324C138.425 7.24994 138.442 7.19005 138.452 7.14533L138.466 7.03363Z" fill="#1B3281"/>
<path d="M140.076 11.9464L140.54 10.2165H141.139C141.34 10.2165 141.497 10.1758 141.609 10.1017C141.722 10.0247 141.799 9.895 141.843 9.72033C141.865 9.64337 141.879 9.56237 141.888 9.47043C141.894 9.37293 141.894 9.26986 141.888 9.15047L141.569 3.79869H143.688L143.655 7.34492L145.505 3.79869H147.476L144.205 9.61515C143.834 10.2652 143.564 10.7119 143.393 10.9556C143.224 11.1963 143.064 11.3835 142.908 11.5101C142.706 11.6854 142.481 11.8096 142.237 11.8819C141.994 11.9558 141.622 11.9927 141.123 11.9927C140.98 11.9927 140.815 11.9898 140.636 11.9802C140.458 11.9731 140.269 11.9622 140.076 11.9464Z" fill="#1B3281"/>
</g>
<defs>
<clipPath id="clip0_1737_35310">
<rect width="38" height="12" fill="white" transform="translate(114.198)"/>
</clipPath>
</defs>
</svg>
