<svg width="110" height="12" viewBox="0 0 110 12" fill="none" xmlns="http://www.w3.org/2000/svg">
<path fill-rule="evenodd" clip-rule="evenodd" d="M26.1992 0.505466L25.78 2.99496C24.5229 2.28328 21.6621 2.11489 21.6618 3.42569C21.6618 3.94643 22.3091 4.30456 23.0892 4.73621C24.2724 5.39083 25.7613 6.21455 25.7613 8.03101C25.7613 10.9336 22.7371 12 20.7325 12C18.7285 12 17.4168 11.3454 17.4168 11.3454L17.8535 8.74238C19.0562 9.7344 22.7006 10.0163 22.7006 8.44313C22.7006 7.78209 21.9832 7.39225 21.1513 6.94019C20.0034 6.31646 18.6376 5.57428 18.6376 3.83782C18.6376 0.654624 22.0994 0 23.5571 0C24.9056 0 26.1992 0.505466 26.1992 0.505466ZM36.0001 11.8002H33.3028L32.9588 10.0782H29.2245L28.6121 11.8002H25.5499L29.931 1.07097C29.931 1.07097 30.1966 0.207031 31.287 0.207031H33.6484L36.0001 11.8002ZM10.1976 0.207267L7.39708 8.18091L7.06569 6.46388L7.06599 6.4645L6.07756 1.25107C6.07756 1.25107 5.95805 0.207267 4.6841 0.207267H0.0543259L0 0.403562C0 0.403562 1.41579 0.706221 3.07274 1.72863L5.62485 11.8004H8.68551L13.3591 0.207267H10.1976ZM15.6063 11.8001H12.6688L14.5047 0.207275H17.4425L15.6063 11.8001ZM30.0705 7.69916L31.614 3.36084L32.4823 7.69916H30.0705Z" fill="#163AC3"/>
<path d="M56.1944 10.716H51.0034V1.28174H56.1945L56.1944 10.716Z" fill="#FF5F00"/>
<path d="M51.3326 6C51.3326 4.08626 52.2187 2.38148 53.5984 1.28286C52.554 0.450025 51.2623 -0.00198088 49.9322 6.52584e-06C46.6559 6.52584e-06 44 2.68625 44 6C44 9.31375 46.6559 12 49.9322 12C51.2623 12.002 52.5541 11.55 53.5985 10.7171C52.2189 9.61871 51.3326 7.91384 51.3326 6Z" fill="#EB001B"/>
<path d="M63.1979 6C63.1979 9.31374 60.542 12 57.2657 12C55.9355 12.002 54.6435 11.55 53.5989 10.7171C54.979 9.61852 55.8651 7.91384 55.8651 6C55.8651 4.08616 54.979 2.38148 53.5989 1.28286C54.6435 0.45005 55.9354 -0.00194605 57.2656 6.29821e-06C60.5419 6.29821e-06 63.1978 2.68625 63.1978 6" fill="#F79E1B"/>
<g clip-path="url(#clip0_1740_35450)">
<path d="M107.046 2.47766L109.189 6.85594L104.685 11.2363L107.046 2.47766Z" fill="#008C44"/>
<path d="M105.563 2.47766L107.702 6.85594L103.2 11.2363L105.563 2.47766Z" fill="#F47920"/>
<path d="M71.2065 9.64331L73.3431 1.72283H76.7589C77.8264 1.72283 78.5395 1.89673 78.9023 2.25507C79.2625 2.61054 79.3319 3.19077 79.1148 4.00631C78.9835 4.48673 78.7839 4.88999 78.5097 5.2086C78.2377 5.52779 77.879 5.78019 77.4373 5.9658C77.812 6.0585 78.0504 6.24257 78.1573 6.51857C78.2636 6.79458 78.2513 7.19707 78.1222 7.72471L77.8624 8.83103L77.8617 8.86097C77.7867 9.17076 77.8089 9.33659 77.9311 9.35003L77.8523 9.64331H75.5416C75.5494 9.45694 75.5638 9.29034 75.5791 9.15042C75.5958 9.00723 75.6166 8.89629 75.6371 8.82009L75.8525 8.02912C75.9611 7.6178 75.9678 7.33085 75.8671 7.16559C75.7654 6.99592 75.5378 6.91243 75.1786 6.91243H74.2075L73.4669 9.64331H71.2065ZM74.688 5.12761H75.7281C76.0926 5.12761 76.3616 5.07406 76.5274 4.96331C76.694 4.8516 76.8176 4.66293 76.8902 4.38999C76.9654 4.11245 76.9469 3.91898 76.8391 3.809C76.7315 3.69729 76.4739 3.64297 76.0689 3.64297H75.0885L74.688 5.12761Z" fill="#1B3281"/>
<path d="M85.4566 3.79865L83.8815 9.64332H81.9675L82.2027 8.78709C81.8659 9.12759 81.5212 9.38613 81.1736 9.55138C80.8289 9.71952 80.4652 9.80225 80.0822 9.80225C79.7657 9.80225 79.4939 9.74313 79.2751 9.62586C79.0537 9.50897 78.8888 9.33123 78.7778 9.09688C78.6793 8.8917 78.6364 8.63834 78.6532 8.33566C78.6709 8.03777 78.7732 7.53528 78.9627 6.83164L79.7789 3.79865H81.8726L81.058 6.81743C80.939 7.25927 80.9106 7.56983 80.9686 7.73892C81.0291 7.90955 81.1904 7.99765 81.4523 7.99765C81.7161 7.99765 81.9379 7.89938 82.121 7.69881C82.3068 7.49996 82.4503 7.20342 82.5581 6.8088L83.366 3.79865H85.4566Z" fill="#1B3281"/>
<path d="M84.697 9.64331L86.8313 1.72283H89.7674C90.4152 1.72283 90.9166 1.76218 91.2742 1.84855C91.631 1.93128 91.9108 2.06563 92.1188 2.25507C92.3794 2.50287 92.5391 2.80958 92.6047 3.17752C92.6665 3.54547 92.6299 3.97406 92.4947 4.47732C92.2555 5.36273 91.8364 6.04123 91.2391 6.51531C90.64 6.98325 89.8987 7.21838 89.014 7.21838H87.64L86.9873 9.64331H84.697ZM88.1602 5.28403H88.8985C89.3758 5.28403 89.7114 5.22338 89.908 5.1063C90.0983 4.98768 90.2335 4.77694 90.316 4.47732C90.3984 4.17368 90.3771 3.9614 90.2525 3.84278C90.1326 3.72474 89.8261 3.66504 89.3357 3.66504H88.5989L88.1602 5.28403Z" fill="#1B3281"/>
<path d="M94.9574 9.6434L94.9787 9.08831C94.641 9.34839 94.2991 9.54493 93.9554 9.66777C93.6131 9.79291 93.2486 9.85645 92.8582 9.85645C92.2652 9.85645 91.8516 9.69061 91.6125 9.36969C91.3763 9.0482 91.3376 8.58659 91.4987 7.99773C91.653 7.41654 91.9274 6.98871 92.3232 6.7152C92.7168 6.43843 93.3741 6.24035 94.2963 6.11367C94.4133 6.09409 94.57 6.07835 94.7662 6.05398C95.448 5.97279 95.8308 5.78584 95.9132 5.48085C95.9561 5.31387 95.93 5.19065 95.8293 5.11502C95.7321 5.03652 95.5504 4.99794 95.2881 4.99794C95.0704 4.99794 94.8953 5.04439 94.7517 5.14093C94.6082 5.23844 94.5011 5.38086 94.4286 5.58124H92.3874C92.5717 4.92328 92.9483 4.42616 93.5136 4.09373C94.077 3.75553 94.8197 3.59277 95.7397 3.59277C96.1723 3.59277 96.5597 3.63442 96.9022 3.72482C97.2452 3.81139 97.4959 3.9348 97.6586 4.08413C97.8587 4.2705 97.9772 4.48297 98.011 4.7179C98.0499 4.95226 98.0072 5.28815 97.8878 5.72769L97.0098 8.9862C96.9817 9.09292 96.9763 9.18812 96.9915 9.27468C97.0098 9.35722 97.0449 9.42785 97.1068 9.47833L97.0596 9.6434H94.9574ZM95.4663 7.03363C95.2439 7.12556 94.955 7.21366 94.5959 7.3104C94.032 7.46606 93.7147 7.67374 93.6461 7.93074C93.5985 8.096 93.6177 8.22325 93.6963 8.31999C93.7737 8.41193 93.9082 8.45838 94.0977 8.45838C94.4452 8.45838 94.7242 8.36797 94.9322 8.18947C95.1408 8.00867 95.2967 7.72479 95.4058 7.33324C95.4249 7.24994 95.4416 7.19005 95.4525 7.14533L95.4663 7.03363Z" fill="#1B3281"/>
<path d="M97.0757 11.9464L97.5403 10.2165H98.1395C98.3396 10.2165 98.4971 10.1758 98.6086 10.1017C98.7218 10.0247 98.7989 9.895 98.8433 9.72033C98.8655 9.64337 98.8791 9.56237 98.8884 9.47043C98.8944 9.37293 98.8944 9.26986 98.8884 9.15047L98.5687 3.79869H100.688L100.655 7.34492L102.505 3.79869H104.476L101.205 9.61515C100.834 10.2652 100.564 10.7119 100.393 10.9556C100.224 11.1963 100.064 11.3835 99.9078 11.5101C99.706 11.6854 99.4807 11.8096 99.2374 11.8819C98.9936 11.9558 98.6224 11.9927 98.1234 11.9927C97.9798 11.9927 97.8145 11.9898 97.6358 11.9802C97.4584 11.9731 97.2691 11.9622 97.0757 11.9464Z" fill="#1B3281"/>
</g>
<defs>
<clipPath id="clip0_1740_35450">
<rect width="38" height="12" fill="white" transform="translate(71.198)"/>
</clipPath>
</defs>
</svg>
