<?xml version="1.0" encoding="UTF-8" standalone="no"?>
<svg width="78px" height="25px" viewBox="0 0 78 25" version="1.1" xmlns="http://www.w3.org/2000/svg" xmlns:xlink="http://www.w3.org/1999/xlink">
    <!-- Generator: sketchtool 39.1 (31720) - http://www.bohemiancoding.com/sketch -->
    <title>9546AC5E-45B2-4B21-9E61-E197FCC2544F</title>
    <desc>Created with sketchtool.</desc>
    <defs></defs>
    <g id="Subscription" stroke="none" stroke-width="1" fill="none" fill-rule="evenodd">
        <g id="Subscription-–-Payment-Details-–-Paytm" transform="translate(-1024.000000, -294.000000)">
            <g id="Credit-Card-Details" transform="translate(245.000000, 259.000000)">
                <g id="Paytm" transform="translate(423.000000, 35.000000)">
                    <g transform="translate(395.000000, 12.500000) scale(1, -1) translate(-395.000000, -12.500000) translate(356.000000, 0.000000)" id="Shape">
                        <path d="M64.16475,20.5118534 C63.46275,20.356681 62.595,19.9784483 62.127,19.6293103 L61.80525,19.3868534 L61.80525,19.6875 C61.80525,19.8717672 61.7175,20.075431 61.5615,20.2209052 C61.3275,20.4633621 61.31775,20.4633621 59.3385,20.4633621 C57.4665,20.4633621 57.33,20.4536638 57.08625,20.2596983 L56.83275,20.0657328 L56.83275,10.3189655 C56.83275,0.707974138 56.83275,0.581896552 57.02775,0.387931034 C57.213,0.203663793 57.3495,0.193965517 59.2995,0.193965517 C61.347,0.193965517 61.386,0.193965517 61.59075,0.417025862 L61.80525,0.640086207 L61.80525,7.54525862 C61.80525,15.0420259 61.7955,14.8771552 62.3415,15.3038793 C62.6925,15.5851293 63.81375,15.6045259 64.2525,15.3523707 C64.84725,15.0032328 64.82775,15.2359914 64.82775,7.61314655 L64.82775,0.659482759 L65.1105,0.378232759 L65.39325,0.0969827586 L67.36275,0.0969827586 L69.33225,0.0969827586 L69.615,0.378232759 L69.89775,0.659482759 L69.89775,7.66163793 C69.89775,15.2844828 69.87825,14.9935345 70.4535,15.3814655 C70.85325,15.643319 71.92575,15.6336207 72.306,15.362069 C72.9495,14.8965517 72.92025,15.2262931 72.92025,7.5549569 L72.92025,0.610991379 L73.1445,0.407327586 C73.359,0.203663793 73.44675,0.193965517 75.43575,0.193965517 C77.3565,0.193965517 77.5125,0.203663793 77.688,0.378232759 C77.79525,0.484913793 77.91225,0.717672414 77.9415,0.892241379 C77.97075,1.06681034 77.99025,4.63577586 77.97075,8.82543103 L77.9415,16.4385776 L77.71725,17.0689655 C77.05425,18.8825431 75.621,20.1142241 73.6905,20.5215517 C72.86175,20.6961207 72.04275,20.6476293 71.10675,20.356681 C70.52175,20.1724138 69.4785,19.5711207 69.225,19.2704741 C69.03975,19.0377155 68.952,19.0571121 68.5035,19.4547414 C68.00625,19.9008621 67.08975,20.3275862 66.23175,20.5118534 C65.41275,20.6864224 64.974,20.6864224 64.16475,20.5118534 L64.16475,20.5118534 Z" fill="#00BAF2"></path>
                        <path d="M51.0315,24.2068966 C50.544,23.9935345 50.115,23.5765086 49.413,22.6260776 C48.29175,21.1131466 47.45325,20.6282328 45.73725,20.4633621 C44.343,20.3372845 44.4015,20.4342672 44.4015,17.9515086 C44.4015,15.9342672 44.4015,15.9148707 44.6355,15.6724138 C44.8695,15.4299569 44.9085,15.4202586 46.0785,15.4202586 L47.27775,15.4202586 L47.27775,7.95258621 L47.27775,0.475215517 L47.5215,0.242456897 C47.7555,0 47.76525,0 49.65675,0 C51.68475,0 51.95775,0.0484913793 52.143,0.455818966 C52.221,0.620689655 52.25025,2.86099138 52.25025,8.04956897 L52.25025,15.4202586 L53.3715,15.4202586 C54.35625,15.4202586 54.51225,15.4396552 54.68775,15.6142241 C54.9705,15.8954741 54.99975,16.0991379 54.96075,18.1163793 C54.92175,20.4924569 54.98025,20.4051724 53.3715,20.4439655 L52.25025,20.4827586 L52.25025,22.0053879 C52.25025,23.6734914 52.17225,24.0614224 51.80175,24.2359914 C51.4995,24.3717672 51.39225,24.362069 51.0315,24.2068966 L51.0315,24.2068966 Z" fill="#00BAF2"></path>
                        <path d="M29.92275,20.3954741 C29.84475,20.3663793 29.679,20.25 29.562,20.143319 L29.33775,19.9493534 L29.33775,15.5269397 C29.33775,10.6390086 29.367,10.3674569 29.952,9.27155172 C30.37125,8.48599138 31.20975,7.66163793 31.98,7.28340517 C32.8965,6.83728448 33.735,6.69181034 35.44125,6.69181034 C36.78675,6.69181034 36.94275,6.67241379 37.17675,6.48814655 C37.5375,6.20689655 37.5375,5.625 37.17675,5.34375 C36.92325,5.14978448 36.7965,5.14008621 34.242,5.14008621 C31.4535,5.14008621 31.11225,5.09159483 30.95625,4.70366379 C30.927,4.61637931 30.89775,3.63685345 30.89775,2.52155172 L30.89775,0.494612069 L31.15125,0.300646552 C31.40475,0.106681034 31.52175,0.0969827586 34.6515,0.0969827586 C36.43575,0.0969827586 38.103,0.135775862 38.36625,0.184267241 C40.19925,0.533405172 41.5935,1.71659483 42.18825,3.44288793 L42.4515,4.21875 L42.4515,12.09375 L42.4515,19.96875 L42.22725,20.1918103 C42.01275,20.4051724 41.964,20.4148707 39.9555,20.4148707 L37.89825,20.4148707 L37.66425,20.143319 L37.43025,19.8717672 L37.43025,16.0409483 L37.43025,12.2101293 L37.1865,11.9773707 C36.972,11.7543103 36.88425,11.7349138 35.9385,11.7349138 C35.0805,11.7349138 34.87575,11.7640086 34.6905,11.919181 L34.4565,12.1034483 L34.40775,16.0409483 C34.359,19.96875 34.359,19.96875 34.13475,20.1918103 C33.92025,20.4051724 33.852,20.4148707 31.98975,20.4342672 C30.93675,20.4439655 30.00075,20.424569 29.92275,20.3954741 L29.92275,20.3954741 Z" fill="#042E6F"></path>
                        <path d="M16.56525,20.1724138 C16.38,19.9881466 16.37025,19.8523707 16.37025,18.0775862 C16.37025,17.0301724 16.40925,16.1088362 16.46775,16.0021552 C16.64325,15.6724138 17.1015,15.6142241 19.58775,15.6142241 C21.9765,15.6142241 21.996,15.6142241 22.20075,15.3911638 C22.4835,15.0905172 22.49325,14.3728448 22.23,14.0528017 C22.04475,13.8297414 21.98625,13.8200431 20.1045,13.7618534 C19.00275,13.7230603 18.00825,13.6454741 17.784,13.5775862 C16.09725,13.0538793 14.88825,11.8318966 14.469,10.231681 C14.26425,9.41702586 14.2545,4.4612069 14.469,3.65625 C14.9175,1.94935345 16.146,0.737068966 17.8425,0.339439655 C18.33975,0.223060345 19.2075,0.193965517 22.12275,0.193965517 C24.42375,0.193965517 25.9155,0.232758621 26.15925,0.300646552 C26.74425,0.455818966 27.339,1.125 27.48525,1.75538793 C27.56325,2.14331897 27.5925,4.14116379 27.56325,9.31034483 C27.52425,17.0010776 27.534,16.768319 26.9295,18.0096983 C26.62725,18.6206897 25.7595,19.4644397 25.12575,19.7747845 C24.89175,19.8814655 24.3555,20.0657328 23.93625,20.1724138 C23.23425,20.3469828 22.854,20.3663793 19.95825,20.3663793 C16.887,20.3663793 16.7505,20.356681 16.56525,20.1724138 L16.56525,20.1724138 Z M22.14225,8.98060345 C22.23975,8.91271552 22.35675,8.73814655 22.41525,8.59267241 C22.5225,8.30172414 22.53225,5.625 22.425,5.23706897 C22.308,4.81034483 21.81075,4.63577586 20.77725,4.67456897 C19.4415,4.73275862 19.45125,4.72306034 19.41225,6.7112069 C19.37325,8.44719828 19.4025,8.64116379 19.70475,8.92241379 C19.89,9.08728448 20.046,9.11637931 20.943,9.11637931 C21.63525,9.10668103 22.035,9.06788793 22.14225,8.98060345 L22.14225,8.98060345 Z" fill="#042E6F"></path>
                        <path d="M0.47775,20.3469828 C-0.02925,20.0851293 -0.00975,20.424569 0.0195,10.1540948 L0.039,0.5625 L0.32175,0.329741379 L0.59475,0.0872844828 L2.64225,0.11637931 C4.6605,0.145474138 4.68975,0.145474138 4.875,0.378232759 C5.0505,0.591594828 5.06025,0.795258621 5.06025,3.34590517 L5.06025,6.09051724 L7.28325,6.12931034 C9.25275,6.16810345 9.56475,6.19719828 10.07175,6.38146552 C11.67075,6.96336207 12.6555,8.09806034 13.0065,9.74676724 C13.2015,10.6971983 13.21125,15.856681 13.01625,16.7974138 C12.64575,18.5334052 11.5245,19.7262931 9.789,20.25 C9.11625,20.4536638 0.858,20.5409483 0.47775,20.3469828 L0.47775,20.3469828 Z M7.84875,15.1002155 C8.073,14.8383621 8.08275,14.7704741 8.08275,13.3351293 C8.08275,11.7349138 8.0145,11.4342672 7.6245,11.2596983 C7.49775,11.2015086 6.87375,11.1530172 6.23025,11.1530172 L5.06025,11.1530172 L5.06025,13.2963362 L5.06025,15.4396552 L6.3375,15.4008621 C7.59525,15.3717672 7.61475,15.3717672 7.84875,15.1002155 L7.84875,15.1002155 Z" fill="#042E6F"></path>
                    </g>
                </g>
            </g>
        </g>
    </g>
</svg>