<?xml version="1.0" encoding="UTF-8" standalone="no"?>
<!-- Created with Keyshape -->
<svg xmlns="http://www.w3.org/2000/svg" id="Recommended-badge" shape-rendering="geometricPrecision" text-rendering="geometricPrecision" viewBox="0 0 72 14" style="white-space: pre;">
    <defs>
        <linearGradient id="Gradient-0" x1="-12.357" y1="22.132" x2="12.584" y2="22.316" gradientUnits="userSpaceOnUse">
            <stop offset="0.001" stop-color="#0088e9" stop-opacity="0"/>
            <stop offset="0.076" stop-color="#80c4f4" stop-opacity="0.3"/>
            <stop offset="0.499" stop-color="#ffffff" stop-opacity="0.6"/>
            <stop offset="0.925" stop-color="#80c4f4" stop-opacity="0.3"/>
            <stop offset="1" stop-color="#0088e9" stop-opacity="0"/>
        </linearGradient>
        <mask id="Mask-1" style="mask-type: alpha;">
            <g id="Rectangle-2" transform="translate(166.016,138.299)">
                <g id="Rectangle-1-3" opacity="1" transform="translate(-130.516,-131.299)">
                    <path id="Rectangle-Path-1-3" fill="#0088e9" d="M36,-3.701L36,3.701C36,5.91014,33.7909,7.701,32,7.701L-32,7.701C-34.2091,7.701,-36,5.91014,-36,3.701L-36,-3.701C-36,-5.91014,-33.7909,-7.701,-32,-7.701L32,-7.701C34.2091,-7.701,36,-5.91014,36,-3.701Z" fill-opacity="1" fill-rule="nonzero"/>
                </g>
            </g>
        </mask>
    </defs>
    <style>
@keyframes Shimmer_t { 0% { transform: translate(293.949px,209.965px) rotate(9.848deg) scale(1.81351,1.43); animation-timing-function: cubic-bezier(0.333,0,0.667,1); } 57.2224% { transform: translate(442.16px,209.965px) rotate(9.848deg) scale(1.81351,1.43); } 100% { transform: translate(442.16px,209.965px) rotate(9.848deg) scale(1.81351,1.43); } }
    </style>
    <g id="Rectangle" transform="translate(166.516,138.299)">
        <g id="Rectangle-1" opacity="1" transform="translate(-130.516,-131.299)">
            <path id="Rectangle-Path-1" fill="#1f80e0" d="M35.4845,-5L35.4845,5C35.4845,6.10457,34.3799,7,33.4845,7L-33.4845,7C-34.5891,7,-35.4845,6.10457,-35.4845,5L-35.4845,-5C-35.4845,-6.10457,-34.3799,-7,-33.4845,-7L33.4845,-7C34.5891,-7,35.4845,-6.10457,35.4845,-5Z" fill-opacity="1" fill-rule="nonzero"/>
        </g>
    </g>
    <g mask="url(#Mask-1)">
        <g id="Shimmer" transform="translate(293.949,209.965) rotate(9.848) scale(1.81351,1.43)" style="animation: 2.333s linear infinite both Shimmer_t;">
            <g id="Rectangle-1-2" opacity="0.7" transform="translate(-189.112,-120.504) rotate(24.199)">
                <path id="Rectangle-Path-1-2" fill="url(#Gradient-0)" d="M12.3215,2.759L12.3215,41.241L-12.3215,41.241L-12.3215,2.759L12.3215,2.759Z" fill-opacity="1" fill-rule="nonzero"/>
            </g>
        </g>
    </g>
    <g id="RECOMMENDED-Outlines" transform="translate(4.665,9.844)">
        <g id="D" opacity="1">
            <path id="D-2" fill="#fdfaff" d="M58.576,0C59.073,-0.003,59.52,-0.117,59.916,-0.344C60.312,-0.571,60.619,-0.89,60.836,-1.301C61.053,-1.712,61.162,-2.182,61.162,-2.711C61.162,-2.711,61.162,-2.973,61.162,-2.973C61.162,-3.502,61.051,-3.974,60.83,-4.389C60.609,-4.804,60.301,-5.125,59.906,-5.35C59.511,-5.575,59.064,-5.688,58.564,-5.688C58.564,-5.688,56.814,-5.688,56.814,-5.688C56.814,-5.688,56.814,0,56.814,0C56.814,0,58.576,0,58.576,0ZM58.564,-4.738C59.025,-4.738,59.375,-4.589,59.615,-4.291C59.855,-3.993,59.975,-3.555,59.975,-2.977C59.975,-2.977,59.975,-2.676,59.975,-2.676C59.97,-2.119,59.845,-1.69,59.603,-1.391C59.361,-1.092,59.011,-0.941,58.553,-0.941C58.553,-0.941,57.986,-0.941,57.986,-0.941C57.986,-0.941,57.986,-4.738,57.986,-4.738C57.986,-4.738,58.564,-4.738,58.564,-4.738Z" fill-opacity="1" fill-rule="nonzero"/>
        </g>
        <g id="E" opacity="1">
            <path id="E-2" fill="#fdfaff" d="M55.528,-3.383C55.528,-3.383,53.278,-3.383,53.278,-3.383C53.278,-3.383,53.278,-4.738,53.278,-4.738C53.278,-4.738,55.911,-4.738,55.911,-4.738C55.911,-4.738,55.911,-5.688,55.911,-5.688C55.911,-5.688,52.106,-5.688,52.106,-5.688C52.106,-5.688,52.106,0,52.106,0C52.106,0,55.919,0,55.919,0C55.919,0,55.919,-0.941,55.919,-0.941C55.919,-0.941,53.278,-0.941,53.278,-0.941C53.278,-0.941,53.278,-2.465,53.278,-2.465C53.278,-2.465,55.528,-2.465,55.528,-2.465C55.528,-2.465,55.528,-3.383,55.528,-3.383Z" fill-opacity="1" fill-rule="nonzero"/>
        </g>
        <g id="D-3" opacity="1">
            <path id="D-4" fill="#fdfaff" d="M48.461,0C48.958,-0.003,49.405,-0.117,49.801,-0.344C50.197,-0.571,50.504,-0.89,50.721,-1.301C50.938,-1.712,51.047,-2.182,51.047,-2.711C51.047,-2.711,51.047,-2.973,51.047,-2.973C51.047,-3.502,50.936,-3.974,50.715,-4.389C50.494,-4.804,50.186,-5.125,49.791,-5.35C49.396,-5.575,48.949,-5.688,48.449,-5.688C48.449,-5.688,46.699,-5.688,46.699,-5.688C46.699,-5.688,46.699,0,46.699,0C46.699,0,48.461,0,48.461,0ZM48.449,-4.738C48.91,-4.738,49.26,-4.589,49.5,-4.291C49.74,-3.993,49.859,-3.555,49.859,-2.977C49.859,-2.977,49.859,-2.676,49.859,-2.676C49.854,-2.119,49.73,-1.69,49.488,-1.391C49.246,-1.092,48.895,-0.941,48.437,-0.941C48.437,-0.941,47.871,-0.941,47.871,-0.941C47.871,-0.941,47.871,-4.738,47.871,-4.738C47.871,-4.738,48.449,-4.738,48.449,-4.738Z" fill-opacity="1" fill-rule="nonzero"/>
        </g>
        <g id="N" opacity="1">
            <path id="N-2" fill="#fdfaff" d="M45.468,-5.688C45.468,-5.688,44.3,-5.688,44.3,-5.688C44.3,-5.688,44.3,-1.938,44.3,-1.938C44.3,-1.938,42.015,-5.688,42.015,-5.688C42.015,-5.688,40.843,-5.688,40.843,-5.688C40.843,-5.688,40.843,0,40.843,0C40.843,0,42.015,0,42.015,0C42.015,0,42.015,-3.742,42.015,-3.742C42.015,-3.742,44.296,0,44.296,0C44.296,0,45.468,0,45.468,0C45.468,0,45.468,-5.688,45.468,-5.688Z" fill-opacity="1" fill-rule="nonzero"/>
        </g>
        <g id="E-3" opacity="1">
            <path id="E-4" fill="#fdfaff" d="M39.557,-3.383C39.557,-3.383,37.307,-3.383,37.307,-3.383C37.307,-3.383,37.307,-4.738,37.307,-4.738C37.307,-4.738,39.939,-4.738,39.939,-4.738C39.939,-4.738,39.939,-5.688,39.939,-5.688C39.939,-5.688,36.135,-5.688,36.135,-5.688C36.135,-5.688,36.135,0,36.135,0C36.135,0,39.947,0,39.947,0C39.947,0,39.947,-0.941,39.947,-0.941C39.947,-0.941,37.307,-0.941,37.307,-0.941C37.307,-0.941,37.307,-2.465,37.307,-2.465C37.307,-2.465,39.557,-2.465,39.557,-2.465C39.557,-2.465,39.557,-3.383,39.557,-3.383Z" fill-opacity="1" fill-rule="nonzero"/>
        </g>
        <g id="M" opacity="1">
            <path id="M-2" fill="#fdfaff" d="M28.919,-5.688C28.919,-5.688,28.919,0,28.919,0C28.919,0,30.091,0,30.091,0C30.091,0,30.091,-1.555,30.091,-1.555C30.091,-1.555,29.974,-4.234,29.974,-4.234C29.974,-4.234,31.505,0,31.505,0C31.505,0,32.31,0,32.31,0C32.31,0,33.845,-4.238,33.845,-4.238C33.845,-4.238,33.728,-1.555,33.728,-1.555C33.728,-1.555,33.728,0,33.728,0C33.728,0,34.903,0,34.903,0C34.903,0,34.903,-5.688,34.903,-5.688C34.903,-5.688,33.364,-5.688,33.364,-5.688C33.364,-5.688,31.911,-1.562,31.911,-1.562C31.911,-1.562,30.45,-5.688,30.45,-5.688C30.45,-5.688,28.919,-5.688,28.919,-5.688Z" fill-opacity="1" fill-rule="nonzero"/>
        </g>
        <g id="M-3" opacity="1">
            <path id="M-4" fill="#fdfaff" d="M21.703,-5.688C21.703,-5.688,21.703,0,21.703,0C21.703,0,22.875,0,22.875,0C22.875,0,22.875,-1.555,22.875,-1.555C22.875,-1.555,22.758,-4.234,22.758,-4.234C22.758,-4.234,24.289,0,24.289,0C24.289,0,25.094,0,25.094,0C25.094,0,26.629,-4.238,26.629,-4.238C26.629,-4.238,26.512,-1.555,26.512,-1.555C26.512,-1.555,26.512,0,26.512,0C26.512,0,27.687,0,27.687,0C27.687,0,27.687,-5.688,27.687,-5.688C27.687,-5.688,26.148,-5.688,26.148,-5.688C26.148,-5.688,24.695,-1.562,24.695,-1.562C24.695,-1.562,23.234,-5.688,23.234,-5.688C23.234,-5.688,21.703,-5.688,21.703,-5.688Z" fill-opacity="1" fill-rule="nonzero"/>
        </g>
        <g id="O" opacity="1">
            <path id="O-2" fill="#fdfaff" d="M20.644,-2.969C20.644,-3.526,20.543,-4.017,20.341,-4.443C20.139,-4.869,19.853,-5.196,19.485,-5.424C19.116,-5.652,18.696,-5.766,18.222,-5.766C17.748,-5.766,17.326,-5.652,16.958,-5.424C16.589,-5.196,16.305,-4.869,16.103,-4.443C15.901,-4.017,15.8,-3.525,15.8,-2.965C15.8,-2.965,15.8,-2.684,15.8,-2.684C15.803,-2.137,15.905,-1.653,16.108,-1.232C16.311,-0.811,16.598,-0.489,16.968,-0.262C17.338,-0.035,17.758,0.078,18.229,0.078C18.706,0.078,19.128,-0.037,19.497,-0.266C19.865,-0.495,20.149,-0.82,20.347,-1.242C20.545,-1.664,20.644,-2.155,20.644,-2.715C20.644,-2.715,20.644,-2.969,20.644,-2.969ZM19.456,-2.695C19.453,-2.104,19.347,-1.655,19.136,-1.346C18.925,-1.037,18.622,-0.883,18.229,-0.883C17.828,-0.883,17.522,-1.043,17.308,-1.363C17.094,-1.683,16.987,-2.134,16.987,-2.715C16.987,-2.715,16.987,-2.992,16.987,-2.992C16.99,-3.583,17.098,-4.032,17.312,-4.338C17.526,-4.644,17.829,-4.797,18.222,-4.797C18.618,-4.797,18.922,-4.642,19.136,-4.332C19.35,-4.022,19.456,-3.569,19.456,-2.973C19.456,-2.973,19.456,-2.695,19.456,-2.695Z" fill-opacity="1" fill-rule="nonzero"/>
        </g>
        <g id="C" opacity="1">
            <path id="C-2" fill="#fdfaff" d="M13.822,-1.895C13.796,-1.549,13.694,-1.292,13.516,-1.127C13.338,-0.962,13.067,-0.879,12.705,-0.879C12.304,-0.879,12.01,-1.021,11.824,-1.305C11.638,-1.589,11.545,-2.037,11.545,-2.652C11.545,-2.652,11.545,-3.082,11.545,-3.082C11.55,-3.671,11.65,-4.105,11.844,-4.385C12.038,-4.665,12.33,-4.805,12.721,-4.805C13.08,-4.805,13.347,-4.722,13.523,-4.557C13.699,-4.392,13.801,-4.125,13.83,-3.758C13.83,-3.758,15.002,-3.758,15.002,-3.758C14.94,-4.393,14.708,-4.886,14.307,-5.238C13.906,-5.59,13.377,-5.766,12.721,-5.766C12.247,-5.766,11.831,-5.655,11.473,-5.432C11.115,-5.209,10.839,-4.89,10.646,-4.473C10.453,-4.056,10.357,-3.574,10.357,-3.027C10.357,-3.027,10.357,-2.68,10.357,-2.68C10.357,-1.823,10.566,-1.149,10.984,-0.658C11.402,-0.167,11.976,0.078,12.705,0.078C13.372,0.078,13.908,-0.097,14.316,-0.449C14.724,-0.801,14.95,-1.283,14.994,-1.895C14.994,-1.895,13.822,-1.895,13.822,-1.895Z" fill-opacity="1" fill-rule="nonzero"/>
        </g>
        <g id="E-5" opacity="1">
            <path id="E-6" fill="#fdfaff" d="M9.243,-3.383C9.243,-3.383,6.993,-3.383,6.993,-3.383C6.993,-3.383,6.993,-4.738,6.993,-4.738C6.993,-4.738,9.626,-4.738,9.626,-4.738C9.626,-4.738,9.626,-5.688,9.626,-5.688C9.626,-5.688,5.821,-5.688,5.821,-5.688C5.821,-5.688,5.821,0,5.821,0C5.821,0,9.634,0,9.634,0C9.634,0,9.634,-0.941,9.634,-0.941C9.634,-0.941,6.993,-0.941,6.993,-0.941C6.993,-0.941,6.993,-2.465,6.993,-2.465C6.993,-2.465,9.243,-2.465,9.243,-2.465C9.243,-2.465,9.243,-3.383,9.243,-3.383Z" fill-opacity="1" fill-rule="nonzero"/>
        </g>
        <g id="R" opacity="1">
            <path id="R-2" fill="#fdfaff" d="M3.68,0C3.68,0,4.938,0,4.938,0C4.938,0,4.938,-0.055,4.938,-0.055C4.938,-0.055,3.707,-2.379,3.707,-2.379C4.048,-2.533,4.303,-2.739,4.471,-2.998C4.639,-3.257,4.723,-3.581,4.723,-3.969C4.723,-4.516,4.541,-4.939,4.176,-5.238C3.811,-5.537,3.293,-5.688,2.621,-5.688C2.621,-5.688,0.508,-5.688,0.508,-5.688C0.508,-5.688,0.508,0,0.508,0C0.508,0,1.68,0,1.68,0C1.68,0,1.68,-2.082,1.68,-2.082C1.68,-2.082,2.613,-2.082,2.613,-2.082C2.613,-2.082,3.68,0,3.68,0ZM1.68,-4.738C1.68,-4.738,2.621,-4.738,2.621,-4.738C2.936,-4.738,3.17,-4.662,3.322,-4.508C3.474,-4.354,3.551,-4.143,3.551,-3.875C3.551,-3.612,3.47,-3.406,3.309,-3.256C3.148,-3.106,2.919,-3.031,2.625,-3.031C2.625,-3.031,1.68,-3.031,1.68,-3.031C1.68,-3.031,1.68,-4.738,1.68,-4.738Z" fill-opacity="1" fill-rule="nonzero"/>
        </g>
    </g>
</svg>
